G04*
G04 #@! TF.GenerationSoftware,Altium Limited,Altium Designer,26.3.0 (6)*
G04*
G04 Layer_Physical_Order=1*
G04 Layer_Color=255*
%FSLAX25Y25*%
%MOIN*%
G70*
G04*
G04 #@! TF.SameCoordinates,93A21E67-8BBF-49F2-ADDE-66DC4D57E892*
G04*
G04*
G04 #@! TF.FilePolarity,Positive*
G04*
G01*
G75*
%ADD16C,0.01000*%
%ADD53C,0.08268*%
%ADD66R,0.03100X0.03800*%
%ADD67R,0.05118X0.13386*%
%ADD68R,0.11811X0.07874*%
%ADD69R,0.04134X0.02165*%
%ADD70R,0.02756X0.05118*%
%ADD71R,0.05906X0.01968*%
%ADD72R,0.05118X0.02756*%
%ADD73R,0.04724X0.06299*%
%ADD74R,0.12992X0.17323*%
%ADD75R,0.04331X0.03150*%
%ADD76R,0.04724X0.01181*%
%ADD77R,0.01181X0.04724*%
G04:AMPARAMS|DCode=78|XSize=62.99mil|YSize=49.21mil|CornerRadius=0mil|HoleSize=0mil|Usage=FLASHONLY|Rotation=225.000|XOffset=0mil|YOffset=0mil|HoleType=Round|Shape=Rectangle|*
%AMROTATEDRECTD78*
4,1,4,0.00487,0.03967,0.03967,0.00487,-0.00487,-0.03967,-0.03967,-0.00487,0.00487,0.03967,0.0*
%
%ADD78ROTATEDRECTD78*%

%ADD79R,0.03543X0.07874*%
%ADD80R,0.03800X0.03100*%
%ADD81R,0.07874X0.04331*%
%ADD82R,0.02362X0.05354*%
%ADD83R,0.02165X0.04134*%
%ADD84R,0.15354X0.24410*%
%ADD85R,0.06299X0.04724*%
%ADD86R,0.06102X0.04724*%
%ADD87R,0.08858X0.08346*%
%ADD88R,0.01575X0.05315*%
%ADD89R,0.02756X0.05906*%
%ADD90R,0.12992X0.06299*%
%ADD91R,0.07874X0.03543*%
%ADD92R,0.05236X0.05236*%
%ADD93R,0.24410X0.15354*%
%ADD94R,0.17323X0.12992*%
%ADD95R,0.03937X0.01968*%
%ADD96R,0.06299X0.06299*%
%ADD97R,0.03937X0.03150*%
%ADD98R,0.07480X0.07087*%
%ADD99R,0.08268X0.06299*%
%ADD100C,0.02000*%
%ADD101C,0.01200*%
%ADD102C,0.01500*%
%ADD103C,0.00800*%
%ADD104C,0.03500*%
%ADD105C,0.01100*%
%ADD106C,0.02500*%
%ADD107C,0.01473*%
%ADD108C,0.03000*%
%ADD109C,0.06000*%
%ADD110C,0.07874*%
%ADD111O,0.14173X0.07087*%
%ADD112O,0.06693X0.04724*%
%ADD113C,0.03937*%
%ADD114C,0.09843*%
%ADD115C,0.11811*%
%ADD116O,0.07874X0.15748*%
%ADD117O,0.15748X0.07874*%
%ADD118C,0.01181*%
%ADD119O,0.07087X0.14173*%
%ADD120C,0.02362*%
G36*
X245100Y265700D02*
Y263500D01*
X245800Y262800D01*
X249700D01*
X250900Y261600D01*
Y257400D01*
X249850Y256350D01*
X239432D01*
X238400Y257382D01*
Y265300D01*
X240500Y267400D01*
X243400D01*
X245100Y265700D01*
D02*
G37*
G36*
X236600Y274700D02*
Y265000D01*
X235500Y263900D01*
X225100D01*
X223622Y262422D01*
Y254822D01*
X222100Y253300D01*
X210000D01*
X208700Y254600D01*
X208700Y257500D01*
Y270900D01*
X214100Y276300D01*
X235000D01*
X236600Y274700D01*
D02*
G37*
G36*
X258900Y275500D02*
Y259800D01*
X260200Y258500D01*
X263300D01*
X264300Y257500D01*
Y253900D01*
X263400Y253000D01*
X252900D01*
X252000Y253900D01*
Y263000D01*
X251300Y263700D01*
X247700D01*
X246900Y264500D01*
Y275700D01*
X248100Y276900D01*
X257500D01*
X258900Y275500D01*
D02*
G37*
G36*
X289000Y275100D02*
Y265100D01*
X287300Y263400D01*
X280900Y263400D01*
X276900Y259400D01*
Y255000D01*
X274500Y252600D01*
X270100D01*
X268980Y253720D01*
X268980Y272980D01*
X273100Y277100D01*
X287000D01*
X289000Y275100D01*
D02*
G37*
G36*
X206900Y273600D02*
Y255800D01*
X203700Y252600D01*
X196900D01*
X194300Y255200D01*
Y273800D01*
X196400Y275900D01*
X204600D01*
X206900Y273600D01*
D02*
G37*
G36*
X237500Y253300D02*
X237500Y250252D01*
X238453Y249200D01*
X242800D01*
X243900Y248100D01*
Y243800D01*
X243200Y243100D01*
X225500D01*
X224100Y244500D01*
X224100Y253800D01*
X225200Y254900D01*
X235900D01*
X237500Y253300D01*
D02*
G37*
G36*
X262721Y231983D02*
X256616Y225879D01*
X253786D01*
X253437Y226535D01*
X253437Y226679D01*
Y228950D01*
X248500D01*
X243563D01*
Y226679D01*
X243563Y226535D01*
X243214Y225879D01*
X240050D01*
X239465Y225763D01*
X238969Y225431D01*
X234619Y221081D01*
X234520Y220934D01*
X233720Y221176D01*
Y227424D01*
X243196Y236900D01*
X262721D01*
Y231983D01*
D02*
G37*
G36*
X141700Y222100D02*
X151800Y222100D01*
X153600Y220300D01*
Y214500D01*
X152000Y212900D01*
X137400Y212900D01*
X114200Y236100D01*
X95928D01*
X94000Y240628D01*
X94000Y246100D01*
X96400Y248500D01*
X115300D01*
X141700Y222100D01*
D02*
G37*
G36*
X117900Y222428D02*
Y212400D01*
X116000Y210500D01*
X96500D01*
X93500Y212400D01*
Y220800D01*
X96500Y223800D01*
X115500D01*
X117900Y222428D01*
D02*
G37*
G36*
X46100Y253232D02*
X77400Y225232D01*
X89500D01*
Y213132D01*
Y206791D01*
X87600Y204200D01*
X79837D01*
X74063Y219368D01*
X50028Y240000D01*
X34200Y240000D01*
X34200Y299900D01*
X34283Y300100D01*
X46100D01*
Y253232D01*
D02*
G37*
G36*
X150300Y250400D02*
X152600D01*
X162000Y241000D01*
X166700Y236300D01*
X166700Y204300D01*
X154000Y191600D01*
X143300D01*
X141100Y193800D01*
Y199600D01*
X144800Y203300D01*
X155000D01*
X159300Y207600D01*
Y234000D01*
X154500Y238800D01*
X148700D01*
X144100Y234200D01*
X134100D01*
X131600Y236700D01*
Y247759D01*
X133744Y250244D01*
X134000Y250500D01*
X140100D01*
X150300Y250400D01*
D02*
G37*
G36*
X203772Y192428D02*
X203833Y180603D01*
X203704Y180472D01*
Y179736D01*
X203631D01*
Y176673D01*
X202204D01*
Y180035D01*
X201363D01*
Y180035D01*
X201204Y179948D01*
X198085Y181927D01*
X198085Y181927D01*
X198085Y181927D01*
X197880Y182638D01*
X197823Y182836D01*
X197266Y184643D01*
X196667Y186437D01*
X196026Y188216D01*
X195690Y189100D01*
X173600Y189100D01*
X172200Y187700D01*
Y167400D01*
X172100Y167300D01*
X171259D01*
Y167638D01*
X164741D01*
Y167197D01*
X164200Y166656D01*
X164200Y130800D01*
X162222Y128822D01*
X161483Y129128D01*
Y130162D01*
X159400D01*
X157317D01*
Y128922D01*
X156578Y128615D01*
X154700Y130494D01*
X154700Y172296D01*
X158613Y181313D01*
X174200Y196900D01*
X199300D01*
X203772Y192428D01*
D02*
G37*
G36*
X198500Y126119D02*
Y110100D01*
X198000Y109600D01*
X191500D01*
X190500Y110600D01*
Y114400D01*
X189200Y115700D01*
X182300D01*
Y126600D01*
X184450Y128750D01*
X195869D01*
X198500Y126119D01*
D02*
G37*
G36*
X20900Y308800D02*
Y308800D01*
X21475Y308325D01*
X27700Y302100D01*
Y239600D01*
X31200Y236100D01*
X40700D01*
X74000Y202800D01*
X131100D01*
X135500Y207200D01*
X156845D01*
X157151Y206461D01*
X154704Y204014D01*
X144800D01*
X144527Y203959D01*
X144295Y203805D01*
X140595Y200105D01*
X140441Y199873D01*
X140386Y199600D01*
Y193800D01*
X140441Y193527D01*
X140595Y193295D01*
X142795Y191095D01*
X143027Y190941D01*
X143300Y190886D01*
X154000D01*
X154273Y190941D01*
X154505Y191095D01*
X167205Y203795D01*
X167359Y204027D01*
X167414Y204300D01*
Y207200D01*
X173600D01*
Y207000D01*
X185100Y218500D01*
Y230900D01*
X191100Y236900D01*
X237825D01*
X238131Y236161D01*
X231109Y229139D01*
X230777Y228643D01*
X230661Y228057D01*
Y197345D01*
X223396Y190079D01*
X222452Y190267D01*
X222364Y190479D01*
X221779Y191064D01*
X221014Y191381D01*
X220186D01*
X219421Y191064D01*
X219015Y190658D01*
X218628Y190514D01*
X218027Y190616D01*
X217679Y190964D01*
X216914Y191281D01*
X216086D01*
X215321Y190964D01*
X214736Y190379D01*
X214419Y189614D01*
Y188786D01*
X214736Y188021D01*
X215073Y187684D01*
Y186562D01*
X213989Y185478D01*
X213250Y185784D01*
Y188900D01*
X208750D01*
Y184125D01*
X208572Y183950D01*
X207970Y183651D01*
X207414Y183881D01*
X206586D01*
X205821Y183564D01*
X205334Y183077D01*
X204870Y183157D01*
X204533Y183321D01*
X204486Y192432D01*
X204458Y192566D01*
X204431Y192701D01*
X204430Y192703D01*
X204430Y192704D01*
X204353Y192818D01*
X204277Y192933D01*
X199805Y197405D01*
X199573Y197559D01*
X199300Y197614D01*
X174200D01*
X173927Y197559D01*
X173695Y197405D01*
X158690Y182399D01*
X157890Y182730D01*
Y183994D01*
X151144D01*
Y180595D01*
X156794D01*
X157233Y179926D01*
X154045Y172580D01*
X154044Y172574D01*
X154041Y172569D01*
X154015Y172438D01*
X153986Y172308D01*
X153988Y172302D01*
X153986Y172296D01*
X153986Y164401D01*
X153756Y163697D01*
X153186Y163697D01*
X151144D01*
Y159547D01*
Y155398D01*
X153186D01*
X153986Y154693D01*
Y153459D01*
X152670D01*
Y149900D01*
Y146341D01*
X153986D01*
X153986Y130494D01*
X154041Y130221D01*
X154195Y129989D01*
X156074Y128111D01*
X156305Y127956D01*
X156578Y127902D01*
X156851Y127956D01*
X157617Y128145D01*
Y128145D01*
X157617Y128145D01*
X161183D01*
X161183Y128145D01*
Y128145D01*
X161914Y128162D01*
X161983Y128156D01*
X162222Y128108D01*
X162495Y128162D01*
X162726Y128317D01*
X164705Y130295D01*
X164859Y130527D01*
X164914Y130800D01*
X164914Y141550D01*
X166650D01*
Y144450D01*
Y147350D01*
X165725D01*
X166135Y148150D01*
X169650D01*
Y153350D01*
X169650D01*
X169464Y154150D01*
X170234Y154921D01*
X171388Y153767D01*
X176832Y159211D01*
X175679Y160365D01*
X176751Y161437D01*
X182369Y155819D01*
X182866Y155487D01*
X183451Y155371D01*
X185907D01*
X186213Y154631D01*
X176391Y144809D01*
X176081Y144346D01*
X175973Y143800D01*
X175973Y143800D01*
Y138550D01*
X174800D01*
Y134050D01*
X175973D01*
Y133038D01*
X174800D01*
Y128538D01*
X180000D01*
Y133038D01*
X178827D01*
Y134050D01*
X180000D01*
Y138550D01*
X178827D01*
Y141365D01*
X179627Y141524D01*
X179836Y141021D01*
X180421Y140436D01*
X181186Y140119D01*
X182014D01*
X182779Y140436D01*
X183065Y140722D01*
X184282D01*
Y138941D01*
X188438D01*
Y145459D01*
X187778D01*
Y148288D01*
X189180Y149689D01*
X189273Y149667D01*
X189919Y149297D01*
Y148686D01*
X190236Y147921D01*
X190821Y147336D01*
X191586Y147019D01*
X192414D01*
X193179Y147336D01*
X193516Y147673D01*
X197034D01*
X197034Y147673D01*
X197580Y147781D01*
X197644Y147824D01*
X200110D01*
Y151761D01*
Y155398D01*
X200410D01*
Y156238D01*
X200110D01*
Y156310D01*
X197727D01*
X197614Y156386D01*
X197048Y156498D01*
Y157529D01*
X197594Y157638D01*
X197637Y157666D01*
X200110D01*
Y157738D01*
X200410D01*
Y158579D01*
X200110D01*
Y163572D01*
Y167509D01*
Y172058D01*
X193986D01*
Y169477D01*
Y164429D01*
X192215D01*
X189829Y166815D01*
Y174600D01*
X189713Y175185D01*
X189381Y175681D01*
X186781Y178281D01*
X186285Y178613D01*
X186269Y178616D01*
X186187Y179448D01*
X186435Y179551D01*
X187049Y180165D01*
X187250Y180650D01*
X183150D01*
X183316Y180250D01*
X183169Y179852D01*
X182934Y179450D01*
X179600D01*
Y174950D01*
X182076D01*
X182407Y174150D01*
X180259Y172002D01*
X182706Y169555D01*
X185153Y167108D01*
X186031Y167987D01*
X186771Y167680D01*
Y165840D01*
X183343Y162413D01*
X186526Y159229D01*
X186195Y158429D01*
X184084D01*
X178329Y164184D01*
X177833Y164516D01*
X177248Y164632D01*
X176254D01*
X175669Y164516D01*
X175172Y164184D01*
X173516Y162528D01*
X172362Y163681D01*
X172359Y163678D01*
X171559Y164009D01*
Y164810D01*
X168750D01*
Y163182D01*
X170732D01*
X171063Y162382D01*
X166918Y158237D01*
X168072Y157083D01*
X166319Y155331D01*
X165987Y154834D01*
X165871Y154249D01*
X165714Y154183D01*
X164914Y154716D01*
X164914Y163182D01*
X167250D01*
Y165560D01*
X168000D01*
Y166310D01*
X171559D01*
Y166586D01*
X172100D01*
X172373Y166641D01*
X172605Y166795D01*
X172705Y166895D01*
X172859Y167127D01*
X172914Y167400D01*
Y169357D01*
X172957Y169384D01*
X173714Y169602D01*
X174164Y169151D01*
X174650Y168950D01*
Y171000D01*
Y173050D01*
X174164Y172849D01*
X173714Y172398D01*
X172957Y172616D01*
X172914Y172643D01*
Y173886D01*
X173000Y174650D01*
X173714Y174650D01*
X175150D01*
Y177200D01*
X175900D01*
Y177950D01*
X178800D01*
Y179750D01*
X178988Y180104D01*
X179049Y180165D01*
X179250Y180650D01*
X177200D01*
Y182150D01*
X179250D01*
X179247Y182157D01*
X179773Y182957D01*
X180878D01*
Y184585D01*
X177319D01*
Y186085D01*
X180878D01*
Y187586D01*
X180958Y187796D01*
X181111Y187801D01*
X181184Y187780D01*
X181874Y187034D01*
Y186085D01*
X185433D01*
X188992D01*
Y187586D01*
X189297Y188386D01*
X190182Y188386D01*
Y186150D01*
X192560D01*
X194938D01*
Y186769D01*
X195738Y186909D01*
X195992Y186203D01*
X196586Y184425D01*
X197139Y182631D01*
X197194Y182440D01*
X197400Y181729D01*
X197418Y181694D01*
X197426Y181654D01*
X197470Y181589D01*
X197502Y181517D01*
X197518Y181502D01*
X197528Y181482D01*
X197558Y181456D01*
X197581Y181423D01*
X197646Y181379D01*
X197703Y181325D01*
X200822Y179346D01*
X200916Y179309D01*
X201005Y179263D01*
X201045Y179259D01*
X201081Y179245D01*
X201442Y178653D01*
X201490Y178479D01*
Y176673D01*
X201544Y176400D01*
X201663Y176222D01*
Y173611D01*
X203331D01*
Y173311D01*
X204172D01*
Y173611D01*
X204244D01*
Y176330D01*
X204291Y176400D01*
X204345Y176673D01*
X205361D01*
X205477Y176088D01*
X205600Y175905D01*
Y173611D01*
X205672D01*
Y173311D01*
X206513D01*
Y173611D01*
X224053D01*
X224239Y173161D01*
X224305Y172811D01*
X223987Y172335D01*
X223871Y171750D01*
Y167700D01*
X223987Y167115D01*
X224319Y166619D01*
X225188Y165749D01*
X225684Y165418D01*
X226269Y165301D01*
X227450D01*
Y163572D01*
Y159635D01*
Y155698D01*
Y151761D01*
Y147824D01*
X233575D01*
Y151624D01*
X247399D01*
Y150604D01*
X252599D01*
Y155104D01*
X247399D01*
Y154479D01*
X233575D01*
Y158700D01*
X234375Y159031D01*
X236806Y156600D01*
X269700D01*
X273800Y160700D01*
Y164300D01*
X270312Y167788D01*
X258843D01*
X258553Y168588D01*
X258746Y168878D01*
X258859Y169444D01*
Y170141D01*
X259758D01*
Y172950D01*
X257380D01*
Y173700D01*
D01*
Y172950D01*
X255002D01*
Y170278D01*
X252710D01*
X251978Y170441D01*
Y176959D01*
X251978D01*
X251995Y177752D01*
X252164Y177921D01*
X252481Y178686D01*
Y179514D01*
X252164Y180279D01*
X251579Y180864D01*
X250814Y181181D01*
X249986D01*
X249221Y180864D01*
X248636Y180279D01*
X248319Y179514D01*
Y178686D01*
X248636Y177921D01*
X248798Y177759D01*
X248695Y176959D01*
X247822D01*
Y175229D01*
X237400D01*
X236815Y175113D01*
X236319Y174781D01*
X233783Y172246D01*
X230513D01*
X229947Y172134D01*
X229834Y172058D01*
X228903D01*
X228486Y172660D01*
X228432Y172858D01*
X228529Y173350D01*
Y179016D01*
X243981Y194469D01*
X244313Y194965D01*
X244429Y195550D01*
Y196835D01*
X253137D01*
Y202565D01*
X243863D01*
Y200878D01*
X243719Y200781D01*
X243069Y200131D01*
X242329Y200437D01*
Y207167D01*
X243063Y207900D01*
X243863Y207569D01*
Y206835D01*
X253137D01*
Y212565D01*
X243863D01*
Y211229D01*
X242700D01*
X242115Y211113D01*
X241619Y210781D01*
X241069Y210231D01*
X240329Y210538D01*
Y217866D01*
X240634Y218171D01*
X243863D01*
Y216835D01*
X253137D01*
Y222565D01*
X253831Y222821D01*
X257250D01*
X257835Y222937D01*
X258331Y223269D01*
X265331Y230269D01*
X265663Y230765D01*
X265779Y231350D01*
Y236900D01*
X285700D01*
X292100Y230500D01*
Y7900D01*
X287300Y3100D01*
X120400D01*
X120300Y3000D01*
X117000Y6300D01*
Y27700D01*
X112400Y32300D01*
Y43481D01*
X144291Y75373D01*
X175700D01*
X175700Y75373D01*
X176246Y75481D01*
X176709Y75791D01*
X183991Y83073D01*
X198884D01*
X199309Y82273D01*
X199119Y81814D01*
Y80986D01*
X199436Y80221D01*
X200021Y79636D01*
X200786Y79319D01*
X200788D01*
X200824Y78534D01*
X200060Y78217D01*
X199474Y77631D01*
X199157Y76867D01*
Y76039D01*
X199474Y75274D01*
X199549Y75198D01*
X199821Y74764D01*
X199236Y74179D01*
X198919Y73414D01*
Y72586D01*
X199236Y71821D01*
X199821Y71236D01*
X200586Y70919D01*
X201414D01*
X202179Y71236D01*
X202202Y71259D01*
X205082D01*
X206927Y69413D01*
Y50713D01*
X204537Y48323D01*
X204176Y47781D01*
X204049Y47143D01*
Y43529D01*
X203779D01*
Y36775D01*
X203991D01*
Y34277D01*
X203779D01*
Y27523D01*
X203991D01*
Y26182D01*
X204118Y25543D01*
X204480Y25002D01*
X205935Y23547D01*
X205604Y22747D01*
X204740D01*
Y23047D01*
X203703D01*
Y19390D01*
Y15732D01*
X204740D01*
Y16032D01*
X214676D01*
Y16032D01*
X215442Y15949D01*
Y15058D01*
X225109D01*
Y22757D01*
X217176D01*
X216870Y23496D01*
X220558Y27184D01*
X220889Y27680D01*
X221006Y28265D01*
Y28817D01*
X222243D01*
Y32383D01*
X216709D01*
Y28817D01*
X216820D01*
X217126Y28078D01*
X215912Y26864D01*
X215069Y27152D01*
X215021Y27523D01*
X215021D01*
Y34277D01*
X214809D01*
Y36775D01*
X215021D01*
Y43529D01*
X214809D01*
Y47400D01*
X214682Y48039D01*
X214320Y48580D01*
X212737Y50163D01*
Y71128D01*
X212610Y71767D01*
X212248Y72308D01*
X206924Y77632D01*
X206383Y77994D01*
X205744Y78121D01*
X202513D01*
X202417Y78217D01*
X201652Y78534D01*
X201650D01*
X201614Y79319D01*
X202379Y79636D01*
X202614Y79871D01*
X244300D01*
X244885Y79987D01*
X245381Y80319D01*
X252263Y87200D01*
X252595Y87697D01*
X252711Y88282D01*
Y94699D01*
X253782D01*
Y99199D01*
X248582D01*
Y94699D01*
X249653D01*
Y88915D01*
X243667Y82929D01*
X219479D01*
X219148Y83729D01*
X228793Y93375D01*
X228793Y93375D01*
X229103Y93838D01*
X229211Y94384D01*
X229211Y94384D01*
Y119819D01*
X229227Y119900D01*
X229227Y119900D01*
Y120123D01*
X230027Y120454D01*
X232891Y117591D01*
X232891Y117591D01*
X233354Y117281D01*
X233900Y117173D01*
X276109D01*
X284973Y108309D01*
Y45432D01*
X284845Y45337D01*
X284173Y45134D01*
X282695Y46611D01*
X282464Y46766D01*
X282191Y46821D01*
X278986Y46821D01*
X276043Y49764D01*
X275812Y49918D01*
X275539Y49973D01*
X244739D01*
X244465Y49918D01*
X244234Y49764D01*
X242034Y47564D01*
X241879Y47332D01*
X241825Y47059D01*
Y40059D01*
X241879Y39786D01*
X242034Y39554D01*
X244234Y37354D01*
X244339Y37284D01*
X244339Y36484D01*
X244339Y36409D01*
Y34856D01*
X247898D01*
X251457D01*
Y36345D01*
X251457Y36484D01*
X251792Y37145D01*
X252665D01*
X253000Y36484D01*
X253000Y36345D01*
Y34856D01*
X256559D01*
X260118D01*
Y36345D01*
X260118Y36484D01*
X260453Y37145D01*
X261326D01*
X261661Y36484D01*
X261661Y36345D01*
Y34856D01*
X265220D01*
X268779D01*
Y36345D01*
X268779Y36484D01*
X269115Y37145D01*
X274799D01*
X275194Y36345D01*
X275079Y36196D01*
X274740Y35378D01*
X274723Y35250D01*
X279000D01*
Y33750D01*
X274723D01*
X274740Y33622D01*
X275079Y32804D01*
X275618Y32102D01*
X275766Y31988D01*
X275766Y30980D01*
X275689Y30921D01*
X275166Y30240D01*
X274837Y29446D01*
X274725Y28594D01*
X274837Y27743D01*
X275166Y26949D01*
X275689Y26268D01*
X275848Y26146D01*
Y25137D01*
X275689Y25016D01*
X275166Y24334D01*
X274837Y23541D01*
X274725Y22689D01*
X274837Y21837D01*
X275166Y21044D01*
X275689Y20362D01*
X275848Y20240D01*
Y19232D01*
X275689Y19110D01*
X275166Y18429D01*
X274837Y17635D01*
X274725Y16783D01*
X274837Y15932D01*
X275166Y15138D01*
X275689Y14457D01*
X275848Y14335D01*
Y13327D01*
X275689Y13205D01*
X275166Y12523D01*
X274837Y11730D01*
X274725Y10878D01*
X274837Y10026D01*
X275166Y9233D01*
X275689Y8551D01*
X276371Y8028D01*
X277164Y7700D01*
X278016Y7588D01*
X279984D01*
X280836Y7700D01*
X281629Y8028D01*
X282311Y8551D01*
X282834Y9233D01*
X283162Y10026D01*
X283275Y10878D01*
X283162Y11730D01*
X282834Y12523D01*
X282311Y13205D01*
X282152Y13327D01*
Y14335D01*
X282311Y14457D01*
X282834Y15138D01*
X282924Y15356D01*
X285883D01*
X285883Y15356D01*
X286430Y15465D01*
X286893Y15774D01*
X289909Y18791D01*
X289909Y18791D01*
X290219Y19254D01*
X290327Y19800D01*
X290327Y19800D01*
Y110900D01*
X290327Y110900D01*
X290219Y111446D01*
X289909Y111909D01*
X289909Y111909D01*
X277509Y124309D01*
X277046Y124619D01*
X276500Y124727D01*
X276500Y124727D01*
X237691D01*
X233239Y129180D01*
X233462Y130088D01*
X233819Y130236D01*
X234404Y130821D01*
X234721Y131586D01*
Y132414D01*
X234627Y132641D01*
X234778Y133441D01*
X234778D01*
Y139959D01*
X230622D01*
Y138127D01*
X227105D01*
X226034Y139198D01*
Y143209D01*
X225926Y143755D01*
X225898Y143797D01*
Y146271D01*
X224229D01*
Y146571D01*
X223389D01*
Y146271D01*
X223316D01*
Y143797D01*
X223288Y143755D01*
X223180Y143209D01*
X222098D01*
X221989Y143755D01*
X221961Y143797D01*
Y146271D01*
X221889D01*
Y146571D01*
X221048D01*
Y146271D01*
X201663D01*
Y143797D01*
X201635Y143755D01*
X201599Y143574D01*
X200767Y143492D01*
X200749Y143535D01*
X200135Y144149D01*
X199650Y144350D01*
Y142300D01*
Y140250D01*
X200135Y140451D01*
X200726Y141042D01*
X200850Y141036D01*
X201526Y140850D01*
Y139469D01*
X201236Y139179D01*
X200919Y138414D01*
Y137586D01*
X201236Y136821D01*
X201821Y136236D01*
X202586Y135919D01*
X203414D01*
X203773Y136067D01*
X204573Y135584D01*
Y134584D01*
X202429Y132441D01*
X202116Y132650D01*
X200350D01*
Y131144D01*
X200900Y130712D01*
Y125887D01*
X205400D01*
Y125887D01*
X206018D01*
Y125887D01*
X210518D01*
Y125887D01*
X211136D01*
Y125887D01*
X215636D01*
Y125887D01*
X216254D01*
Y125887D01*
X220754D01*
Y128388D01*
X221493Y128694D01*
X223053Y127134D01*
Y124696D01*
X222636Y124279D01*
X222319Y123514D01*
Y122686D01*
X222636Y121921D01*
X223221Y121336D01*
X223986Y121019D01*
X224814D01*
X225579Y121336D01*
X226373Y120998D01*
Y119965D01*
X226356Y119884D01*
X226356Y119884D01*
Y95517D01*
X226127Y95364D01*
X225327Y95792D01*
Y112900D01*
X225327Y112900D01*
X225219Y113446D01*
X224909Y113909D01*
X224909Y113909D01*
X220032Y118787D01*
X220174Y119587D01*
X220754D01*
Y124787D01*
X216254D01*
Y124787D01*
X215636D01*
Y124787D01*
X211136D01*
Y124787D01*
X210518D01*
Y124787D01*
X206018D01*
Y124787D01*
X205400D01*
Y124787D01*
X200900D01*
Y119587D01*
X201722D01*
Y115850D01*
X201722Y115850D01*
X201831Y115304D01*
X202140Y114841D01*
X205931Y111050D01*
X205478Y110372D01*
X205214Y110481D01*
X204386D01*
X203726Y110207D01*
X203279Y110379D01*
X202926Y110600D01*
Y111006D01*
X199214D01*
Y126119D01*
X199159Y126392D01*
X199005Y126623D01*
X196450Y129178D01*
Y131150D01*
X193900D01*
X191350D01*
Y129464D01*
X189250D01*
Y131150D01*
X186700D01*
X184150D01*
Y129391D01*
X183945Y129255D01*
X181795Y127105D01*
X181641Y126873D01*
X181586Y126600D01*
Y115700D01*
X181641Y115427D01*
X181795Y115195D01*
X182027Y115041D01*
X182300Y114986D01*
X188904D01*
X189786Y114104D01*
Y110600D01*
X189841Y110327D01*
X189995Y110095D01*
X190677Y109413D01*
X190346Y108613D01*
X190245D01*
Y105245D01*
X197550D01*
Y107518D01*
X198038Y107933D01*
X198426Y107764D01*
Y105806D01*
X202926D01*
Y106200D01*
X203279Y106421D01*
X203726Y106593D01*
X204386Y106319D01*
X205214D01*
X205979Y106636D01*
X206564Y107221D01*
X206881Y107986D01*
Y108356D01*
X207670Y108840D01*
X207773Y108785D01*
Y107586D01*
X207773Y107586D01*
X207881Y107039D01*
X208191Y106576D01*
X208776Y105991D01*
X208776Y105991D01*
X209240Y105681D01*
X209786Y105573D01*
X211111D01*
Y105245D01*
X218417D01*
Y108613D01*
X211111D01*
X210627Y109213D01*
Y109645D01*
X210874Y109951D01*
X211355Y110245D01*
X218417D01*
Y111184D01*
X219216Y111575D01*
X219573Y111297D01*
Y103357D01*
X218417D01*
Y103613D01*
X211111D01*
X211111Y103613D01*
X210311Y103534D01*
X209714Y103781D01*
X208886D01*
X208121Y103464D01*
X207784Y103127D01*
X202926D01*
Y104706D01*
X198426D01*
Y103527D01*
X197550D01*
Y103613D01*
X190245D01*
Y100245D01*
X197550D01*
Y100673D01*
X198426D01*
Y99506D01*
X198450D01*
Y98375D01*
X197550D01*
Y98613D01*
X190245D01*
Y95245D01*
X197550D01*
Y95521D01*
X198450D01*
Y94354D01*
X202950D01*
Y94775D01*
X203120Y94942D01*
X203750Y95241D01*
X204286Y95019D01*
X205114D01*
X205879Y95336D01*
X206109Y95566D01*
X206694Y95802D01*
X207152Y95564D01*
X207465Y95251D01*
X207950Y95050D01*
Y97100D01*
X209450D01*
Y95050D01*
X209935Y95251D01*
X210011Y95327D01*
X210811Y94995D01*
Y94945D01*
X214014D01*
Y96929D01*
Y98913D01*
X210811D01*
Y98913D01*
X210804Y98913D01*
X210486Y99073D01*
X210480Y99089D01*
X210480Y99394D01*
X210751Y100069D01*
X211111Y100245D01*
X218417D01*
Y100502D01*
X220414D01*
X220414Y100502D01*
X220960Y100610D01*
X221424Y100920D01*
X221673Y101169D01*
X222473Y100837D01*
Y95291D01*
X215709Y88527D01*
X211202D01*
X210871Y89327D01*
X210964Y89421D01*
X211281Y90186D01*
Y91014D01*
X210964Y91779D01*
X210379Y92364D01*
X209614Y92681D01*
X208786D01*
X208021Y92364D01*
X207834Y92177D01*
X202950D01*
Y93254D01*
X198450D01*
Y88527D01*
X180500D01*
X180500Y88527D01*
X179954Y88419D01*
X179491Y88109D01*
X179491Y88109D01*
X172709Y81327D01*
X142400D01*
X141854Y81219D01*
X141391Y80909D01*
X141391Y80909D01*
X113139Y52658D01*
X112400Y52964D01*
Y104300D01*
X104400Y112300D01*
X54582D01*
Y113939D01*
X54664Y114021D01*
X54981Y114786D01*
Y115614D01*
X54664Y116379D01*
X54079Y116964D01*
X53314Y117281D01*
X52486D01*
X51721Y116964D01*
X51136Y116379D01*
X50819Y115614D01*
Y114786D01*
X51136Y114021D01*
X51218Y113939D01*
Y112300D01*
X49582D01*
Y113939D01*
X49664Y114021D01*
X49981Y114786D01*
Y115614D01*
X49664Y116379D01*
X49079Y116964D01*
X48314Y117281D01*
X47486D01*
X46721Y116964D01*
X46136Y116379D01*
X45819Y115614D01*
Y114786D01*
X46136Y114021D01*
X46218Y113939D01*
Y112300D01*
X16500D01*
X6500Y122300D01*
Y304100D01*
X11200Y308800D01*
X20900D01*
X20900Y308800D01*
D02*
G37*
G36*
X277139Y47659D02*
X278691Y46107D01*
X282191Y46107D01*
X283839Y44459D01*
Y39359D01*
X282339Y37859D01*
X244739D01*
X242539Y40059D01*
Y47059D01*
X244739Y49259D01*
X275539D01*
X277139Y47659D01*
D02*
G37*
G36*
X45300Y44100D02*
Y33100D01*
X45900Y32500D01*
X51100D01*
X55200Y28400D01*
Y25200D01*
X54200Y24200D01*
X49300D01*
X45200Y28300D01*
X41400Y28300D01*
X40700Y29000D01*
X40700Y44500D01*
X44900D01*
X45300Y44100D01*
D02*
G37*
G36*
X39800Y45000D02*
Y28409D01*
X40945Y27264D01*
X43836D01*
X46600Y24500D01*
Y19350D01*
X52950D01*
X55800Y16500D01*
X55800Y15800D01*
X50500Y10500D01*
X37100D01*
X35500Y12100D01*
Y44600D01*
X36300Y45400D01*
X39400D01*
X39800Y45000D01*
D02*
G37*
G36*
X52300Y84100D02*
X73400D01*
X76500Y81000D01*
Y55700D01*
X36800D01*
X35000Y53900D01*
X35003Y53897D01*
Y45113D01*
X34995Y45105D01*
X34841Y44873D01*
X34826Y44799D01*
X33663D01*
Y39862D01*
Y34925D01*
X34786D01*
Y12100D01*
X34841Y11827D01*
X34995Y11595D01*
X35000Y11591D01*
Y10300D01*
X33100Y8400D01*
X27700Y8400D01*
X20300Y15800D01*
Y73800D01*
X31400Y86100D01*
X52300Y84100D01*
D02*
G37*
G36*
X385200Y123500D02*
X388600Y120100D01*
Y9900D01*
X383200Y4500D01*
X304600D01*
X301600Y7500D01*
X301928Y118028D01*
X307400Y123500D01*
X385200Y123500D01*
D02*
G37*
%LPC*%
G36*
X257450Y235750D02*
Y234450D01*
X258750D01*
X258549Y234935D01*
X257936Y235549D01*
X257450Y235750D01*
D02*
G37*
G36*
X255950D02*
X255465Y235549D01*
X254851Y234935D01*
X254650Y234450D01*
X255950D01*
Y235750D01*
D02*
G37*
G36*
X258750Y232950D02*
X254650D01*
X254851Y232465D01*
X255015Y232300D01*
X254951Y232236D01*
X254750Y231750D01*
X258850D01*
X258649Y232236D01*
X258485Y232400D01*
X258549Y232465D01*
X258750Y232950D01*
D02*
G37*
G36*
X253437Y232865D02*
X249250D01*
Y230450D01*
X253437D01*
Y232865D01*
D02*
G37*
G36*
X247750D02*
X243563D01*
Y230450D01*
X247750D01*
Y232865D01*
D02*
G37*
G36*
X258850Y230250D02*
X257550D01*
Y228950D01*
X258035Y229151D01*
X258649Y229765D01*
X258850Y230250D01*
D02*
G37*
G36*
X256050D02*
X254750D01*
X254951Y229765D01*
X255564Y229151D01*
X256050Y228950D01*
Y230250D01*
D02*
G37*
G36*
X101144Y247135D02*
Y242974D01*
X105304D01*
X104994Y244130D01*
X104344Y245256D01*
X103425Y246175D01*
X102299Y246825D01*
X101144Y247135D01*
D02*
G37*
G36*
X99644Y247135D02*
X98488Y246825D01*
X97362Y246175D01*
X96443Y245256D01*
X95793Y244130D01*
X95483Y242974D01*
X99644D01*
Y247135D01*
D02*
G37*
G36*
X105304Y241474D02*
X101144D01*
Y237314D01*
X102299Y237624D01*
X103425Y238274D01*
X104344Y239193D01*
X104994Y240319D01*
X105304Y241474D01*
D02*
G37*
G36*
X99644D02*
X95483D01*
X95793Y240319D01*
X96443Y239193D01*
X97362Y238274D01*
X98488Y237624D01*
X99644Y237314D01*
Y241474D01*
D02*
G37*
G36*
X40907Y297922D02*
Y293762D01*
X45068D01*
X44758Y294917D01*
X44108Y296043D01*
X43189Y296962D01*
X42063Y297612D01*
X40907Y297922D01*
D02*
G37*
G36*
X39408D02*
X38252Y297612D01*
X37126Y296962D01*
X36207Y296043D01*
X35557Y294917D01*
X35247Y293762D01*
X39408D01*
Y297922D01*
D02*
G37*
G36*
X45068Y292262D02*
X40907D01*
Y288102D01*
X42063Y288411D01*
X43189Y289061D01*
X44108Y289980D01*
X44758Y291106D01*
X45068Y292262D01*
D02*
G37*
G36*
X39408D02*
X35247D01*
X35557Y291106D01*
X36207Y289980D01*
X37126Y289061D01*
X38252Y288411D01*
X39408Y288102D01*
Y292262D01*
D02*
G37*
G36*
X40907Y251465D02*
Y247305D01*
X45068D01*
X44758Y248461D01*
X44108Y249587D01*
X43189Y250506D01*
X42063Y251156D01*
X40907Y251465D01*
D02*
G37*
G36*
X39408Y251465D02*
X38252Y251156D01*
X37126Y250506D01*
X36207Y249587D01*
X35557Y248461D01*
X35247Y247305D01*
X39408D01*
Y251465D01*
D02*
G37*
G36*
Y245805D02*
X35247D01*
X35557Y244650D01*
X36207Y243524D01*
X37126Y242604D01*
X38252Y241955D01*
X39408Y241645D01*
Y245805D01*
D02*
G37*
G36*
X45068D02*
X40907D01*
Y241645D01*
X42063Y241955D01*
X43189Y242604D01*
X44108Y243524D01*
X44758Y244650D01*
X45068Y245805D01*
D02*
G37*
G36*
X140514Y247135D02*
Y242974D01*
X144674D01*
X144364Y244130D01*
X143714Y245256D01*
X142795Y246175D01*
X141669Y246825D01*
X140514Y247135D01*
D02*
G37*
G36*
X139014Y247135D02*
X137858Y246825D01*
X136732Y246175D01*
X135813Y245256D01*
X135163Y244130D01*
X134854Y242974D01*
X139014D01*
Y247135D01*
D02*
G37*
G36*
X144674Y241474D02*
X140514D01*
Y237314D01*
X141669Y237624D01*
X142795Y238274D01*
X143714Y239193D01*
X144364Y240319D01*
X144674Y241474D01*
D02*
G37*
G36*
X139014D02*
X134854D01*
X135163Y240319D01*
X135813Y239193D01*
X136732Y238274D01*
X137858Y237624D01*
X139014Y237314D01*
Y241474D01*
D02*
G37*
G36*
X151689Y200291D02*
X148388D01*
Y197679D01*
X151689D01*
Y200291D01*
D02*
G37*
G36*
X146888D02*
X143587D01*
Y197679D01*
X146888D01*
Y200291D01*
D02*
G37*
G36*
X151689Y196179D02*
X148388D01*
Y193567D01*
X151689D01*
Y196179D01*
D02*
G37*
G36*
X146888D02*
X143587D01*
Y193567D01*
X146888D01*
Y196179D01*
D02*
G37*
G36*
X188992Y195193D02*
X186183D01*
Y193565D01*
X188992D01*
Y195193D01*
D02*
G37*
G36*
X180878D02*
X178069D01*
Y193565D01*
X180878D01*
Y195193D01*
D02*
G37*
G36*
X176569D02*
X173760D01*
Y193565D01*
X176569D01*
Y195193D01*
D02*
G37*
G36*
X184683D02*
X181874D01*
Y193565D01*
X184683D01*
Y195193D01*
D02*
G37*
G36*
X188992Y192065D02*
X186183D01*
Y190437D01*
X188992D01*
Y192065D01*
D02*
G37*
G36*
X184683D02*
X181874D01*
Y190437D01*
X184683D01*
Y192065D01*
D02*
G37*
G36*
X180878D02*
X178069D01*
Y190437D01*
X180878D01*
Y192065D01*
D02*
G37*
G36*
X176569D02*
X173760D01*
Y190437D01*
X176569D01*
Y192065D01*
D02*
G37*
G36*
X169750Y186150D02*
Y184850D01*
X171050D01*
X170849Y185336D01*
X170236Y185949D01*
X169750Y186150D01*
D02*
G37*
G36*
X168250D02*
X167764Y185949D01*
X167151Y185336D01*
X166950Y184850D01*
X168250D01*
Y186150D01*
D02*
G37*
G36*
X164950Y182550D02*
X164464Y182349D01*
X163851Y181736D01*
X163650Y181250D01*
X164950D01*
Y182550D01*
D02*
G37*
G36*
X171050Y175750D02*
X169750D01*
Y174450D01*
X170236Y174651D01*
X170849Y175265D01*
X171050Y175750D01*
D02*
G37*
G36*
Y183350D02*
X166950D01*
X167020Y183180D01*
X166450Y182609D01*
Y180500D01*
X165700D01*
Y179750D01*
X163650D01*
X163851Y179264D01*
X164093Y179023D01*
X164381Y178500D01*
X164093Y177977D01*
X163851Y177735D01*
X163650Y177250D01*
X165700D01*
Y176500D01*
X166450D01*
Y174450D01*
X166936Y174651D01*
X167350Y175066D01*
X167764Y174651D01*
X168250Y174450D01*
Y176500D01*
X169000D01*
Y177250D01*
X171050D01*
X170849Y177735D01*
X170607Y177977D01*
X170319Y178500D01*
X170607Y179023D01*
X170849Y179264D01*
X171050Y179750D01*
X169000D01*
Y181250D01*
X171050D01*
X170849Y181736D01*
X170284Y182300D01*
X170849Y182864D01*
X171050Y183350D01*
D02*
G37*
G36*
X164950Y175750D02*
X163650D01*
X163851Y175265D01*
X164464Y174651D01*
X164950Y174450D01*
Y175750D01*
D02*
G37*
G36*
X161778Y153459D02*
X160150D01*
Y150650D01*
X161778D01*
Y153459D01*
D02*
G37*
G36*
X158650D02*
X157022D01*
Y150650D01*
X158650D01*
Y153459D01*
D02*
G37*
G36*
X161778Y149150D02*
X160150D01*
Y146341D01*
X161778D01*
Y149150D01*
D02*
G37*
G36*
X158650D02*
X157022D01*
Y146341D01*
X158650D01*
Y149150D01*
D02*
G37*
G36*
X161483Y133979D02*
X160150D01*
Y131662D01*
X161483D01*
Y133979D01*
D02*
G37*
G36*
X158650D02*
X157317D01*
Y131662D01*
X158650D01*
Y133979D01*
D02*
G37*
G36*
X21222Y297922D02*
Y293762D01*
X25383D01*
X25073Y294917D01*
X24423Y296043D01*
X23504Y296962D01*
X22378Y297612D01*
X21222Y297922D01*
D02*
G37*
G36*
X19722D02*
X18567Y297612D01*
X17441Y296962D01*
X16522Y296043D01*
X15872Y294917D01*
X15562Y293762D01*
X19722D01*
Y297922D01*
D02*
G37*
G36*
X25383Y292262D02*
X21222D01*
Y288102D01*
X22378Y288411D01*
X23504Y289061D01*
X24423Y289980D01*
X25073Y291106D01*
X25383Y292262D01*
D02*
G37*
G36*
X19722D02*
X15562D01*
X15872Y291106D01*
X16522Y289980D01*
X17441Y289061D01*
X18567Y288411D01*
X19722Y288102D01*
Y292262D01*
D02*
G37*
G36*
X21222Y251465D02*
Y247305D01*
X25383D01*
X25073Y248461D01*
X24423Y249587D01*
X23504Y250506D01*
X22378Y251156D01*
X21222Y251465D01*
D02*
G37*
G36*
X19722Y251465D02*
X18567Y251156D01*
X17441Y250506D01*
X16522Y249587D01*
X15872Y248461D01*
X15562Y247305D01*
X19722D01*
Y251465D01*
D02*
G37*
G36*
Y245805D02*
X15562D01*
X15872Y244650D01*
X16522Y243524D01*
X17441Y242604D01*
X18567Y241955D01*
X19722Y241645D01*
Y245805D01*
D02*
G37*
G36*
X25383D02*
X21222D01*
Y241645D01*
X22378Y241955D01*
X23504Y242604D01*
X24423Y243524D01*
X25073Y244650D01*
X25383Y245805D01*
D02*
G37*
G36*
X217350Y233050D02*
Y231750D01*
X218650D01*
X218449Y232236D01*
X217835Y232849D01*
X217350Y233050D01*
D02*
G37*
G36*
X215850D02*
X215365Y232849D01*
X214751Y232236D01*
X214550Y231750D01*
X215850D01*
Y233050D01*
D02*
G37*
G36*
X201250D02*
Y231750D01*
X202550D01*
X202349Y232236D01*
X201735Y232849D01*
X201250Y233050D01*
D02*
G37*
G36*
X199750D02*
X199265Y232849D01*
X198651Y232236D01*
X198450Y231750D01*
X199750D01*
Y233050D01*
D02*
G37*
G36*
X279750Y231050D02*
Y229750D01*
X281050D01*
X280849Y230236D01*
X280236Y230849D01*
X279750Y231050D01*
D02*
G37*
G36*
X278250D02*
X277765Y230849D01*
X277151Y230236D01*
X276950Y229750D01*
X278250D01*
Y231050D01*
D02*
G37*
G36*
X218650Y230250D02*
X217350D01*
Y228950D01*
X217835Y229151D01*
X218449Y229765D01*
X218650Y230250D01*
D02*
G37*
G36*
X215850D02*
X214550D01*
X214751Y229765D01*
X215365Y229151D01*
X215850Y228950D01*
Y230250D01*
D02*
G37*
G36*
X202550D02*
X201250D01*
Y228950D01*
X201735Y229151D01*
X202349Y229765D01*
X202550Y230250D01*
D02*
G37*
G36*
X199750D02*
X198450D01*
X198651Y229765D01*
X199265Y229151D01*
X199750Y228950D01*
Y230250D01*
D02*
G37*
G36*
X281050Y228250D02*
X279750D01*
Y226950D01*
X280236Y227151D01*
X280849Y227765D01*
X281050Y228250D01*
D02*
G37*
G36*
X278250D02*
X276950D01*
X277151Y227765D01*
X277765Y227151D01*
X278250Y226950D01*
Y228250D01*
D02*
G37*
G36*
X217350Y225350D02*
Y224050D01*
X218650D01*
X218449Y224535D01*
X217835Y225149D01*
X217350Y225350D01*
D02*
G37*
G36*
X215850D02*
X215365Y225149D01*
X214751Y224535D01*
X214550Y224050D01*
X215850D01*
Y225350D01*
D02*
G37*
G36*
X218650Y222550D02*
X217350D01*
Y221250D01*
X217835Y221451D01*
X218449Y222064D01*
X218650Y222550D01*
D02*
G37*
G36*
X215850D02*
X214550D01*
X214751Y222064D01*
X215365Y221451D01*
X215850Y221250D01*
Y222550D01*
D02*
G37*
G36*
X43913Y222358D02*
X31459D01*
Y214431D01*
X43913D01*
Y222358D01*
D02*
G37*
G36*
X29959D02*
X17504D01*
Y214431D01*
X29959D01*
Y222358D01*
D02*
G37*
G36*
X280350Y206650D02*
Y205350D01*
X281650D01*
X281449Y205836D01*
X280836Y206449D01*
X280350Y206650D01*
D02*
G37*
G36*
X278850D02*
X278364Y206449D01*
X277751Y205836D01*
X277550Y205350D01*
X278850D01*
Y206650D01*
D02*
G37*
G36*
X43913Y212931D02*
X31459D01*
Y205004D01*
X43913D01*
Y212931D01*
D02*
G37*
G36*
X29959D02*
X17504D01*
Y205004D01*
X29959D01*
Y212931D01*
D02*
G37*
G36*
X192350Y206050D02*
Y204750D01*
X193650D01*
X193449Y205236D01*
X192835Y205849D01*
X192350Y206050D01*
D02*
G37*
G36*
X190850D02*
X190365Y205849D01*
X189751Y205236D01*
X189550Y204750D01*
X190850D01*
Y206050D01*
D02*
G37*
G36*
X183150D02*
Y204750D01*
X184450D01*
X184249Y205236D01*
X183635Y205849D01*
X183150Y206050D01*
D02*
G37*
G36*
X181650D02*
X181165Y205849D01*
X180551Y205236D01*
X180350Y204750D01*
X181650D01*
Y206050D01*
D02*
G37*
G36*
X281650Y203850D02*
X280350D01*
Y202550D01*
X280836Y202751D01*
X281449Y203364D01*
X281650Y203850D01*
D02*
G37*
G36*
X278850D02*
X277550D01*
X277751Y203364D01*
X278364Y202751D01*
X278850Y202550D01*
Y203850D01*
D02*
G37*
G36*
X193650Y203250D02*
X192350D01*
Y201950D01*
X192835Y202151D01*
X193449Y202765D01*
X193650Y203250D01*
D02*
G37*
G36*
X190850D02*
X189550D01*
X189751Y202765D01*
X190365Y202151D01*
X190850Y201950D01*
Y203250D01*
D02*
G37*
G36*
X184450D02*
X183150D01*
Y201950D01*
X183635Y202151D01*
X184249Y202765D01*
X184450Y203250D01*
D02*
G37*
G36*
X181650D02*
X180350D01*
X180551Y202765D01*
X181165Y202151D01*
X181650Y201950D01*
Y203250D01*
D02*
G37*
G36*
X212119Y199950D02*
Y198650D01*
X213419D01*
X213218Y199135D01*
X212604Y199749D01*
X212119Y199950D01*
D02*
G37*
G36*
X210619D02*
X210133Y199749D01*
X209520Y199135D01*
X209319Y198650D01*
X210619D01*
Y199950D01*
D02*
G37*
G36*
X117043Y200291D02*
X113742D01*
Y197679D01*
X117043D01*
Y200291D01*
D02*
G37*
G36*
X112242D02*
X108941D01*
Y197679D01*
X112242D01*
Y200291D01*
D02*
G37*
G36*
X133250Y196250D02*
Y194950D01*
X134550D01*
X134349Y195436D01*
X133736Y196049D01*
X133250Y196250D01*
D02*
G37*
G36*
X131750D02*
X131264Y196049D01*
X130651Y195436D01*
X130450Y194950D01*
X131750D01*
Y196250D01*
D02*
G37*
G36*
X125750Y196150D02*
Y194850D01*
X127050D01*
X126849Y195335D01*
X126235Y195949D01*
X125750Y196150D01*
D02*
G37*
G36*
X124250D02*
X123765Y195949D01*
X123151Y195335D01*
X122950Y194850D01*
X124250D01*
Y196150D01*
D02*
G37*
G36*
X117043Y196179D02*
X113742D01*
Y193567D01*
X117043D01*
Y196179D01*
D02*
G37*
G36*
X112242D02*
X108941D01*
Y193567D01*
X112242D01*
Y196179D01*
D02*
G37*
G36*
X97350Y194750D02*
Y193450D01*
X98650D01*
X98449Y193936D01*
X97835Y194549D01*
X97350Y194750D01*
D02*
G37*
G36*
X95850D02*
X95364Y194549D01*
X94751Y193936D01*
X94550Y193450D01*
X95850D01*
Y194750D01*
D02*
G37*
G36*
X213419Y197150D02*
X209319D01*
X209520Y196665D01*
X209884Y196300D01*
X209553Y195500D01*
X208450D01*
Y193350D01*
X211000D01*
X213550D01*
Y195500D01*
X213185D01*
X212853Y196300D01*
X213218Y196665D01*
X213419Y197150D01*
D02*
G37*
G36*
X134550Y193450D02*
X133250D01*
Y192150D01*
X133736Y192351D01*
X134349Y192964D01*
X134550Y193450D01*
D02*
G37*
G36*
X131750D02*
X130450D01*
X130651Y192964D01*
X131264Y192351D01*
X131750Y192150D01*
Y193450D01*
D02*
G37*
G36*
X127050Y193350D02*
X125750D01*
Y192050D01*
X126235Y192251D01*
X126849Y192865D01*
X127050Y193350D01*
D02*
G37*
G36*
X124250D02*
X122950D01*
X123151Y192865D01*
X123765Y192251D01*
X124250Y192050D01*
Y193350D01*
D02*
G37*
G36*
X98650Y191950D02*
X97350D01*
Y190650D01*
X97835Y190851D01*
X98449Y191464D01*
X98650Y191950D01*
D02*
G37*
G36*
X95850D02*
X94550D01*
X94751Y191464D01*
X95364Y190851D01*
X95850Y190650D01*
Y191950D01*
D02*
G37*
G36*
X213550Y191850D02*
X211750D01*
Y189700D01*
X213550D01*
Y191850D01*
D02*
G37*
G36*
X210250D02*
X208450D01*
Y189700D01*
X210250D01*
Y191850D01*
D02*
G37*
G36*
X34215Y197105D02*
Y189037D01*
X38444D01*
Y192224D01*
X38274Y193513D01*
X37777Y194714D01*
X36986Y195746D01*
X35954Y196537D01*
X34753Y197034D01*
X34215Y197105D01*
D02*
G37*
G36*
X32715D02*
X32176Y197034D01*
X30975Y196537D01*
X29943Y195746D01*
X29152Y194714D01*
X28655Y193513D01*
X28485Y192224D01*
Y189037D01*
X32715D01*
Y197105D01*
D02*
G37*
G36*
X253137Y192565D02*
X243863D01*
Y186835D01*
X253137D01*
Y187027D01*
X266100D01*
X266792Y187118D01*
X267436Y187385D01*
X267990Y187810D01*
X268415Y188364D01*
X268682Y189008D01*
X268773Y189700D01*
X268682Y190392D01*
X268415Y191036D01*
X267990Y191590D01*
X267436Y192015D01*
X266792Y192282D01*
X266100Y192373D01*
X253137D01*
Y192565D01*
D02*
G37*
G36*
X157890Y188894D02*
X151144D01*
Y185494D01*
X157890D01*
Y188894D01*
D02*
G37*
G36*
X149644D02*
X142898D01*
Y185494D01*
X149644D01*
Y188894D01*
D02*
G37*
G36*
X135843Y186728D02*
X133033D01*
Y185100D01*
X135843D01*
Y186728D01*
D02*
G37*
G36*
X131533D02*
X126340D01*
Y184350D01*
X124840D01*
Y186728D01*
X122031D01*
Y184223D01*
X121292Y183917D01*
X120705Y184505D01*
X120705Y184505D01*
X120005Y185205D01*
X120005Y185205D01*
X119773Y185359D01*
X119500Y185414D01*
X104800Y185414D01*
X104527Y185359D01*
X104295Y185205D01*
X103595Y184505D01*
X103441Y184273D01*
X103386Y184000D01*
Y173100D01*
X103441Y172827D01*
X103595Y172595D01*
X103827Y172441D01*
X108415Y170540D01*
X118567Y156090D01*
X118612Y156047D01*
X118647Y155995D01*
X118712Y155952D01*
X118769Y155897D01*
X118826Y155875D01*
X118878Y155841D01*
X118955Y155825D01*
X119028Y155797D01*
X119090Y155798D01*
X119151Y155786D01*
X120954D01*
Y152883D01*
X127986D01*
X128495Y152513D01*
X128542Y151934D01*
X128175Y151483D01*
X127914Y151251D01*
X120954D01*
Y148014D01*
X120954Y147883D01*
X120637Y147214D01*
X120200D01*
X119927Y147159D01*
X119695Y147005D01*
X115195Y142505D01*
X115041Y142273D01*
X114986Y142000D01*
X114986Y133600D01*
X115005Y133506D01*
X114686Y133213D01*
X114237Y133068D01*
X114017Y133223D01*
Y137388D01*
X114014D01*
Y137400D01*
X113959Y137673D01*
X113805Y137905D01*
X113105Y138605D01*
X112873Y138759D01*
X112600Y138814D01*
X109400Y138814D01*
X107597Y138814D01*
X107441Y145203D01*
X107411Y145334D01*
X107383Y145467D01*
X107381Y145470D01*
X107380Y145475D01*
X107302Y145585D01*
X107226Y145696D01*
X106299Y146600D01*
X106225Y147193D01*
X106606Y147883D01*
X106606D01*
X106820Y148213D01*
X106959Y148427D01*
X106980Y148528D01*
X107014Y148700D01*
Y150700D01*
X106959Y150973D01*
X106805Y151205D01*
X106227Y151783D01*
X106541Y152583D01*
X106905D01*
Y153817D01*
X99000D01*
Y153014D01*
X98353Y152214D01*
X93496D01*
X92805Y152905D01*
X92573Y153059D01*
X92300Y153114D01*
X77800D01*
X77527Y153059D01*
X77295Y152905D01*
X77295Y152905D01*
X76195Y151805D01*
X76041Y151573D01*
X75986Y151300D01*
Y147600D01*
X76041Y147327D01*
X76195Y147095D01*
X78595Y144695D01*
X78827Y144541D01*
X79100Y144486D01*
X90700D01*
X90973Y144541D01*
X91205Y144695D01*
X93496Y146986D01*
X97746D01*
X98077Y146186D01*
X97895Y146005D01*
X97741Y145773D01*
X97686Y145500D01*
Y136396D01*
X94204Y132914D01*
X92100D01*
X91827Y132859D01*
X91595Y132705D01*
X89295Y130405D01*
X89141Y130173D01*
X89086Y129900D01*
Y119000D01*
X89141Y118727D01*
X89295Y118495D01*
X92895Y114895D01*
X93127Y114741D01*
X93400Y114686D01*
X113800D01*
X114073Y114741D01*
X114305Y114895D01*
X115682Y116273D01*
X116110Y116390D01*
X116820Y115934D01*
Y115934D01*
X117472Y115577D01*
X117527Y115541D01*
X117800Y115486D01*
X133300D01*
X133573Y115541D01*
X133805Y115695D01*
X136905Y118795D01*
X137059Y119027D01*
X137114Y119300D01*
Y154646D01*
X137914Y154977D01*
X138795Y154095D01*
X139027Y153941D01*
X139300Y153886D01*
X145000D01*
X145273Y153941D01*
X145505Y154095D01*
X145659Y154327D01*
X145714Y154600D01*
X145714Y166700D01*
Y171400D01*
X145659Y171673D01*
X145505Y171905D01*
X136121Y181288D01*
X135843Y181972D01*
X135843Y181973D01*
Y183600D01*
X132283D01*
Y184350D01*
X131533D01*
Y186728D01*
D02*
G37*
G36*
X16411Y193321D02*
X15085D01*
X13805Y192978D01*
X12657Y192315D01*
X11720Y191378D01*
X11057Y190230D01*
X10714Y188950D01*
Y187625D01*
X11057Y186344D01*
X11720Y185196D01*
X12657Y184259D01*
X13805Y183597D01*
X15085Y183254D01*
X16411D01*
X17691Y183597D01*
X18839Y184259D01*
X19776Y185196D01*
X20439Y186344D01*
X20782Y187625D01*
Y188950D01*
X20439Y190230D01*
X19776Y191378D01*
X18839Y192315D01*
X17691Y192978D01*
X16411Y193321D01*
D02*
G37*
G36*
X258050Y184450D02*
Y183150D01*
X259350D01*
X259149Y183635D01*
X258536Y184249D01*
X258050Y184450D01*
D02*
G37*
G36*
X256550D02*
X256065Y184249D01*
X255451Y183635D01*
X255250Y183150D01*
X256550D01*
Y184450D01*
D02*
G37*
G36*
X188992Y184585D02*
X185433D01*
X181874D01*
Y182957D01*
X182627D01*
X183153Y182157D01*
X183150Y182150D01*
X187250D01*
X187247Y182157D01*
X187773Y182957D01*
X188992D01*
Y184585D01*
D02*
G37*
G36*
X194938Y184650D02*
X193310D01*
Y181841D01*
X194938D01*
Y184650D01*
D02*
G37*
G36*
X191810D02*
X190182D01*
Y181841D01*
X191810D01*
Y184650D01*
D02*
G37*
G36*
X149644Y183994D02*
X142898D01*
Y180595D01*
X149644D01*
Y183994D01*
D02*
G37*
G36*
X259350Y181650D02*
X258050D01*
Y180350D01*
X258536Y180551D01*
X259149Y181165D01*
X259350Y181650D01*
D02*
G37*
G36*
X256550D02*
X255250D01*
X255451Y181165D01*
X256065Y180551D01*
X256550Y180350D01*
Y181650D01*
D02*
G37*
G36*
X38444Y187537D02*
X34215D01*
Y179470D01*
X34753Y179541D01*
X35954Y180038D01*
X36986Y180829D01*
X37777Y181861D01*
X38274Y183062D01*
X38444Y184350D01*
Y187537D01*
D02*
G37*
G36*
X32715D02*
X28485D01*
Y184350D01*
X28655Y183062D01*
X29152Y181861D01*
X29943Y180829D01*
X30975Y180038D01*
X32176Y179541D01*
X32715Y179470D01*
Y187537D01*
D02*
G37*
G36*
X95488Y183382D02*
X89333D01*
Y179195D01*
X95488D01*
Y183382D01*
D02*
G37*
G36*
X87833D02*
X81677D01*
Y179195D01*
X87833D01*
Y183382D01*
D02*
G37*
G36*
X66600Y205514D02*
X55600D01*
X55327Y205459D01*
X55095Y205305D01*
X50295Y200505D01*
X50141Y200273D01*
X50086Y200000D01*
Y181000D01*
X50141Y180727D01*
X50295Y180495D01*
X54695Y176095D01*
X54927Y175941D01*
X55200Y175886D01*
X75300D01*
X75573Y175941D01*
X75805Y176095D01*
X79505Y179795D01*
X79659Y180027D01*
X79714Y180300D01*
Y193086D01*
X86600D01*
X86873Y193141D01*
X87105Y193295D01*
X89005Y195195D01*
X89159Y195427D01*
X89214Y195700D01*
Y199600D01*
X89159Y199873D01*
X89005Y200105D01*
X88288Y200822D01*
X88282Y200826D01*
X88278Y200831D01*
X88166Y200903D01*
X88056Y200976D01*
X88049Y200978D01*
X88043Y200982D01*
X87913Y201005D01*
X87783Y201031D01*
X87776Y201029D01*
X87769Y201031D01*
X71690Y200719D01*
X67105Y205305D01*
X66873Y205459D01*
X66600Y205514D01*
D02*
G37*
G36*
X178800Y176450D02*
X176650D01*
Y174650D01*
X178800D01*
Y176450D01*
D02*
G37*
G36*
X259758Y177259D02*
X258130D01*
Y174450D01*
X259758D01*
Y177259D01*
D02*
G37*
G36*
X256630D02*
X255002D01*
Y174450D01*
X256630D01*
Y177259D01*
D02*
G37*
G36*
X95488Y177695D02*
X89333D01*
Y173508D01*
X95488D01*
Y177695D01*
D02*
G37*
G36*
X87833D02*
X81677D01*
Y173508D01*
X87833D01*
Y177695D01*
D02*
G37*
G36*
X176150Y173050D02*
Y171750D01*
X177450D01*
X177249Y172236D01*
X176636Y172849D01*
X176150Y173050D01*
D02*
G37*
G36*
X50000Y174369D02*
X46813D01*
Y170140D01*
X54881D01*
X54810Y170679D01*
X54312Y171880D01*
X53521Y172911D01*
X52490Y173702D01*
X51289Y174200D01*
X50000Y174369D01*
D02*
G37*
G36*
X179198Y170941D02*
X178181Y169924D01*
X177694Y170250D01*
X176150D01*
Y168950D01*
X176168Y168957D01*
X176794Y168537D01*
X176926Y168405D01*
X178711Y166621D01*
X181115Y169025D01*
X179198Y170941D01*
D02*
G37*
G36*
X88355Y168919D02*
Y167619D01*
X89655D01*
X89454Y168105D01*
X88840Y168718D01*
X88355Y168919D01*
D02*
G37*
G36*
X86855D02*
X86369Y168718D01*
X85755Y168105D01*
X85554Y167619D01*
X86855D01*
Y168919D01*
D02*
G37*
G36*
X73093Y168684D02*
Y167384D01*
X74393D01*
X74192Y167869D01*
X73578Y168483D01*
X73093Y168684D01*
D02*
G37*
G36*
X71592D02*
X71107Y168483D01*
X70494Y167869D01*
X70292Y167384D01*
X71592D01*
Y168684D01*
D02*
G37*
G36*
X205450Y167850D02*
Y166550D01*
X206750D01*
X206549Y167035D01*
X205936Y167649D01*
X205450Y167850D01*
D02*
G37*
G36*
X203950D02*
X203465Y167649D01*
X202851Y167035D01*
X202650Y166550D01*
X203950D01*
Y167850D01*
D02*
G37*
G36*
X89655Y166119D02*
X88355D01*
Y164819D01*
X88840Y165020D01*
X89454Y165633D01*
X89655Y166119D01*
D02*
G37*
G36*
X86855D02*
X85554D01*
X85755Y165633D01*
X86369Y165020D01*
X86855Y164819D01*
Y166119D01*
D02*
G37*
G36*
X74393Y165884D02*
X73093D01*
Y164584D01*
X73578Y164785D01*
X74192Y165398D01*
X74393Y165884D01*
D02*
G37*
G36*
X71592D02*
X70292D01*
X70494Y165398D01*
X71107Y164785D01*
X71592Y164584D01*
Y165884D01*
D02*
G37*
G36*
X54881Y168640D02*
X46813D01*
Y164410D01*
X50000D01*
X51289Y164580D01*
X52490Y165077D01*
X53521Y165869D01*
X54312Y166900D01*
X54810Y168101D01*
X54881Y168640D01*
D02*
G37*
G36*
X206750Y165050D02*
X205450D01*
Y163750D01*
X205936Y163951D01*
X206549Y164565D01*
X206750Y165050D01*
D02*
G37*
G36*
X203950D02*
X202650D01*
X202851Y164565D01*
X203465Y163951D01*
X203950Y163750D01*
Y165050D01*
D02*
G37*
G36*
X45313Y174369D02*
X42126D01*
X40837Y174200D01*
X39636Y173702D01*
X38605Y172911D01*
X37813Y171880D01*
X37686Y171571D01*
X31459D01*
Y163644D01*
X43913D01*
Y164410D01*
X45313D01*
Y169390D01*
Y174369D01*
D02*
G37*
G36*
X29959Y171571D02*
X17504D01*
Y163644D01*
X29959D01*
Y171571D01*
D02*
G37*
G36*
X182175Y167964D02*
X179772Y165560D01*
X181688Y163643D01*
X184092Y166047D01*
X182175Y167964D01*
D02*
G37*
G36*
X149644Y163697D02*
X147031D01*
Y160297D01*
X149644D01*
Y163697D01*
D02*
G37*
G36*
X93159Y160458D02*
X90350D01*
Y158830D01*
X93159D01*
Y160458D01*
D02*
G37*
G36*
X88850D02*
X86041D01*
Y158830D01*
X88850D01*
Y160458D01*
D02*
G37*
G36*
X85061D02*
X82252D01*
Y158830D01*
X85061D01*
Y160458D01*
D02*
G37*
G36*
X80752D02*
X77943D01*
Y158830D01*
X80752D01*
Y160458D01*
D02*
G37*
G36*
X106606Y161251D02*
X99300D01*
Y157883D01*
X106606D01*
Y161251D01*
D02*
G37*
G36*
X93159Y157330D02*
X90350D01*
Y155702D01*
X93159D01*
Y157330D01*
D02*
G37*
G36*
X88850D02*
X86041D01*
Y155702D01*
X88850D01*
Y157330D01*
D02*
G37*
G36*
X85061D02*
X82252D01*
Y155702D01*
X85061D01*
Y157330D01*
D02*
G37*
G36*
X80752D02*
X77943D01*
Y155702D01*
X80752D01*
Y157330D01*
D02*
G37*
G36*
X149644Y158797D02*
X147031D01*
Y155398D01*
X149644D01*
Y158797D01*
D02*
G37*
G36*
X106905Y156551D02*
X103703D01*
Y155317D01*
X106905D01*
Y156551D01*
D02*
G37*
G36*
X102203D02*
X99000D01*
Y155317D01*
X102203D01*
Y156551D01*
D02*
G37*
G36*
X65650Y155850D02*
Y154550D01*
X66950D01*
X66749Y155035D01*
X66136Y155649D01*
X65650Y155850D01*
D02*
G37*
G36*
X64150D02*
X63665Y155649D01*
X63051Y155035D01*
X62850Y154550D01*
X64150D01*
Y155850D01*
D02*
G37*
G36*
X43913Y162144D02*
X31459D01*
Y154217D01*
X43913D01*
Y162144D01*
D02*
G37*
G36*
X29959D02*
X17504D01*
Y154217D01*
X29959D01*
Y162144D01*
D02*
G37*
G36*
X178487Y157981D02*
X176083Y155577D01*
X178000Y153660D01*
X180403Y156064D01*
X178487Y157981D01*
D02*
G37*
G36*
X221850Y154050D02*
Y152750D01*
X223150D01*
X222949Y153235D01*
X222336Y153849D01*
X221850Y154050D01*
D02*
G37*
G36*
X220350D02*
X219865Y153849D01*
X219251Y153235D01*
X219050Y152750D01*
X220350D01*
Y154050D01*
D02*
G37*
G36*
X205450Y153550D02*
Y152250D01*
X206750D01*
X206549Y152735D01*
X205936Y153349D01*
X205450Y153550D01*
D02*
G37*
G36*
X203950D02*
X203465Y153349D01*
X202851Y152735D01*
X202650Y152250D01*
X203950D01*
Y153550D01*
D02*
G37*
G36*
X66950Y153050D02*
X65650D01*
Y151750D01*
X66136Y151951D01*
X66749Y152565D01*
X66950Y153050D01*
D02*
G37*
G36*
X64150D02*
X62850D01*
X63051Y152565D01*
X63665Y151951D01*
X64150Y151750D01*
Y153050D01*
D02*
G37*
G36*
X181464Y155003D02*
X179060Y152600D01*
X180977Y150683D01*
X183381Y153087D01*
X181464Y155003D01*
D02*
G37*
G36*
X151170Y153459D02*
X149542D01*
Y150650D01*
X151170D01*
Y153459D01*
D02*
G37*
G36*
X175022Y154516D02*
X172618Y152112D01*
X174535Y150196D01*
X176939Y152600D01*
X175022Y154516D01*
D02*
G37*
G36*
X223150Y151250D02*
X221850D01*
Y149950D01*
X222336Y150151D01*
X222949Y150765D01*
X223150Y151250D01*
D02*
G37*
G36*
X220350D02*
X219050D01*
X219251Y150765D01*
X219865Y150151D01*
X220350Y149950D01*
Y151250D01*
D02*
G37*
G36*
X206750Y150750D02*
X205450D01*
Y149450D01*
X205936Y149651D01*
X206549Y150265D01*
X206750Y150750D01*
D02*
G37*
G36*
X203950D02*
X202650D01*
X202851Y150265D01*
X203465Y149651D01*
X203950Y149450D01*
Y150750D01*
D02*
G37*
G36*
X178000Y151539D02*
X175596Y149135D01*
X177512Y147218D01*
X179916Y149622D01*
X178000Y151539D01*
D02*
G37*
G36*
X53731Y148668D02*
X51931D01*
Y146518D01*
X53731D01*
Y148668D01*
D02*
G37*
G36*
X50431D02*
X48631D01*
Y146518D01*
X50431D01*
Y148668D01*
D02*
G37*
G36*
X151170Y149150D02*
X149542D01*
Y146341D01*
X151170D01*
Y149150D01*
D02*
G37*
G36*
X169950Y147350D02*
X168150D01*
Y145200D01*
X169950D01*
Y147350D01*
D02*
G37*
G36*
X258899Y155104D02*
X253699D01*
Y150604D01*
X254163D01*
Y146961D01*
X254019Y146614D01*
Y145786D01*
X254336Y145021D01*
X254921Y144436D01*
X255686Y144119D01*
X256514D01*
X257279Y144436D01*
X257864Y145021D01*
X258181Y145786D01*
Y146614D01*
X258037Y146961D01*
Y150604D01*
X258899D01*
Y155104D01*
D02*
G37*
G36*
X193090Y145759D02*
X191462D01*
Y142950D01*
X193090D01*
Y145759D01*
D02*
G37*
G36*
X53731Y145018D02*
X51931D01*
Y142868D01*
X53731D01*
Y145018D01*
D02*
G37*
G36*
X50431D02*
X48631D01*
Y142868D01*
X50431D01*
Y145018D01*
D02*
G37*
G36*
X169950Y143700D02*
X168150D01*
Y141550D01*
X169950D01*
Y143700D01*
D02*
G37*
G36*
X196218Y145759D02*
X194590D01*
Y142200D01*
Y138641D01*
X196218D01*
Y140985D01*
X197018Y141144D01*
X197051Y141065D01*
X197664Y140451D01*
X198150Y140250D01*
Y142300D01*
Y144350D01*
X197664Y144149D01*
X197051Y143535D01*
X197018Y143456D01*
X196218Y143615D01*
Y145759D01*
D02*
G37*
G36*
X90350Y140750D02*
Y139450D01*
X91650D01*
X91449Y139936D01*
X90835Y140549D01*
X90350Y140750D01*
D02*
G37*
G36*
X88850D02*
X88364Y140549D01*
X87751Y139936D01*
X87550Y139450D01*
X88850D01*
Y140750D01*
D02*
G37*
G36*
X193090Y141450D02*
X191462D01*
Y138641D01*
X193090D01*
Y141450D01*
D02*
G37*
G36*
X16615Y144925D02*
X15346Y144814D01*
X14149Y144378D01*
X13106Y143648D01*
X12287Y142672D01*
X11749Y141518D01*
X11528Y140263D01*
X11639Y138995D01*
X12074Y137798D01*
X12805Y136755D01*
X13780Y135936D01*
X14935Y135398D01*
X16189Y135177D01*
X17458Y135288D01*
X18655Y135723D01*
X19698Y136454D01*
X20516Y137429D01*
X20564Y137531D01*
X48931D01*
Y136868D01*
X53431D01*
Y138063D01*
X55739D01*
X56086Y137919D01*
X56914D01*
X57679Y138236D01*
X58264Y138821D01*
X58581Y139586D01*
Y140414D01*
X58264Y141179D01*
X57679Y141764D01*
X56914Y142081D01*
X56086D01*
X55739Y141937D01*
X53431D01*
Y142068D01*
X48931D01*
Y141405D01*
X21056D01*
X20729Y142304D01*
X19999Y143347D01*
X19023Y144165D01*
X17869Y144704D01*
X16615Y144925D01*
D02*
G37*
G36*
X247750Y138950D02*
Y137650D01*
X249050D01*
X248849Y138136D01*
X248236Y138749D01*
X247750Y138950D01*
D02*
G37*
G36*
X246250D02*
X245764Y138749D01*
X245151Y138136D01*
X244950Y137650D01*
X246250D01*
Y138950D01*
D02*
G37*
G36*
X242558Y140259D02*
X240930D01*
Y137450D01*
X242558D01*
Y140259D01*
D02*
G37*
G36*
X239430D02*
X237802D01*
Y137450D01*
X239430D01*
Y140259D01*
D02*
G37*
G36*
X174000Y138850D02*
X171850D01*
Y137050D01*
X174000D01*
Y138850D01*
D02*
G37*
G36*
X170350D02*
X168200D01*
Y137050D01*
X170350D01*
Y138850D01*
D02*
G37*
G36*
X91650Y137950D02*
X90350D01*
Y136650D01*
X90835Y136851D01*
X91449Y137464D01*
X91650Y137950D01*
D02*
G37*
G36*
X88850D02*
X87550D01*
X87751Y137464D01*
X88364Y136851D01*
X88850Y136650D01*
Y137950D01*
D02*
G37*
G36*
X249050Y136150D02*
X247750D01*
Y134850D01*
X248236Y135051D01*
X248849Y135664D01*
X249050Y136150D01*
D02*
G37*
G36*
X246250D02*
X244950D01*
X245151Y135664D01*
X245764Y135051D01*
X246250Y134850D01*
Y136150D01*
D02*
G37*
G36*
X200350Y135450D02*
Y134150D01*
X201650D01*
X201449Y134635D01*
X200835Y135249D01*
X200350Y135450D01*
D02*
G37*
G36*
X198850D02*
X198364Y135249D01*
X197751Y134635D01*
X197550Y134150D01*
X198850D01*
Y135450D01*
D02*
G37*
G36*
X242558Y135950D02*
X240930D01*
Y133141D01*
X242558D01*
Y135950D01*
D02*
G37*
G36*
X239430D02*
X237802D01*
Y133141D01*
X239430D01*
Y135950D01*
D02*
G37*
G36*
X74414Y137181D02*
X73586D01*
X73239Y137037D01*
X71615D01*
X70874Y136890D01*
X70245Y136470D01*
X63246Y129471D01*
X61136D01*
Y124271D01*
X65636D01*
Y126381D01*
X72417Y133163D01*
X73239D01*
X73586Y133019D01*
X74414D01*
X75179Y133336D01*
X75764Y133921D01*
X76081Y134686D01*
Y135514D01*
X75764Y136279D01*
X75179Y136864D01*
X74414Y137181D01*
D02*
G37*
G36*
X196450Y134800D02*
X194650D01*
Y132650D01*
X196450D01*
Y134800D01*
D02*
G37*
G36*
X189250D02*
X187450D01*
Y132650D01*
X189250D01*
Y134800D01*
D02*
G37*
G36*
X193150D02*
X191350D01*
Y132650D01*
X193150D01*
Y134800D01*
D02*
G37*
G36*
X185950D02*
X184150D01*
Y132650D01*
X185950D01*
Y134800D01*
D02*
G37*
G36*
X174000Y135550D02*
X171100D01*
X168200D01*
Y134138D01*
X168200Y133544D01*
X168200Y132950D01*
Y131538D01*
X171100D01*
X174000D01*
Y132950D01*
X174000Y133544D01*
X174000Y134138D01*
Y135550D01*
D02*
G37*
G36*
X198850Y132650D02*
X197550D01*
X197751Y132165D01*
X198364Y131551D01*
X198850Y131350D01*
Y132650D01*
D02*
G37*
G36*
X147150Y130150D02*
Y128850D01*
X148450D01*
X148249Y129335D01*
X147635Y129949D01*
X147150Y130150D01*
D02*
G37*
G36*
X145650D02*
X145165Y129949D01*
X144551Y129335D01*
X144350Y128850D01*
X145650D01*
Y130150D01*
D02*
G37*
G36*
X58461Y130429D02*
X56045D01*
Y128604D01*
X58461D01*
Y130429D01*
D02*
G37*
G36*
X54545D02*
X52130D01*
Y128604D01*
X54545D01*
Y130429D01*
D02*
G37*
G36*
X174000Y130038D02*
X171850D01*
Y128238D01*
X174000D01*
Y130038D01*
D02*
G37*
G36*
X170350D02*
X168200D01*
Y128238D01*
X170350D01*
Y130038D01*
D02*
G37*
G36*
X148450Y127350D02*
X147150D01*
Y126050D01*
X147635Y126251D01*
X148249Y126865D01*
X148450Y127350D01*
D02*
G37*
G36*
X145650D02*
X144350D01*
X144551Y126865D01*
X145165Y126251D01*
X145650Y126050D01*
Y127350D01*
D02*
G37*
G36*
X58461Y127104D02*
X56045D01*
Y125279D01*
X58461D01*
Y127104D01*
D02*
G37*
G36*
X54545D02*
X52130D01*
Y125279D01*
X54545D01*
Y127104D01*
D02*
G37*
G36*
X84027Y128373D02*
X79348D01*
Y123950D01*
X84027D01*
Y128373D01*
D02*
G37*
G36*
X77848D02*
X73168D01*
Y123950D01*
X77848D01*
Y128373D01*
D02*
G37*
G36*
X171850Y123850D02*
Y122550D01*
X173150D01*
X172949Y123036D01*
X172336Y123649D01*
X171850Y123850D01*
D02*
G37*
G36*
X170350D02*
X169864Y123649D01*
X169251Y123036D01*
X169050Y122550D01*
X170350D01*
Y123850D01*
D02*
G37*
G36*
X65636Y123171D02*
X61136D01*
Y122311D01*
X58161D01*
Y122649D01*
X52430D01*
Y118099D01*
X58161D01*
Y118437D01*
X61136D01*
Y117971D01*
X65636D01*
Y123171D01*
D02*
G37*
G36*
X27905Y128800D02*
X26637Y128689D01*
X25440Y128253D01*
X24397Y127523D01*
X23578Y126547D01*
X23040Y125393D01*
X22819Y124138D01*
X22930Y122870D01*
X23365Y121673D01*
X24096Y120630D01*
X25071Y119811D01*
X26226Y119273D01*
X27480Y119052D01*
X28749Y119163D01*
X29945Y119598D01*
X30989Y120329D01*
X31807Y121304D01*
X32214Y122177D01*
X44989D01*
Y121839D01*
X50720D01*
Y126389D01*
X44989D01*
Y126051D01*
X32066D01*
X32020Y126178D01*
X31290Y127222D01*
X30314Y128040D01*
X29160Y128579D01*
X27905Y128800D01*
D02*
G37*
G36*
X173150Y121050D02*
X171850D01*
Y119750D01*
X172336Y119951D01*
X172949Y120564D01*
X173150Y121050D01*
D02*
G37*
G36*
X170350D02*
X169050D01*
X169251Y120564D01*
X169864Y119951D01*
X170350Y119750D01*
Y121050D01*
D02*
G37*
G36*
X84027Y122450D02*
X79348D01*
Y118027D01*
X84027D01*
Y122450D01*
D02*
G37*
G36*
X77848D02*
X73168D01*
Y118027D01*
X77848D01*
Y122450D01*
D02*
G37*
G36*
X253431Y114903D02*
X248931D01*
Y114240D01*
X247132D01*
Y114903D01*
X242632D01*
Y113866D01*
X236417D01*
X235676Y113719D01*
X235518Y113613D01*
X232765D01*
Y110245D01*
X235518D01*
X235676Y110139D01*
X236417Y109992D01*
X242632D01*
Y109703D01*
X247132D01*
Y110366D01*
X248931D01*
Y109703D01*
X253431D01*
Y110366D01*
X257735D01*
X258083Y110222D01*
X258911D01*
X259676Y110539D01*
X260261Y111124D01*
X260578Y111889D01*
Y112717D01*
X260261Y113482D01*
X259676Y114067D01*
X258911Y114384D01*
X258083D01*
X257735Y114240D01*
X253431D01*
Y114903D01*
D02*
G37*
G36*
X161183Y122655D02*
X157617D01*
Y120640D01*
X157610Y120630D01*
X157463Y119888D01*
Y112902D01*
X150789Y106228D01*
X149637Y106537D01*
X148363D01*
X147133Y106207D01*
X146030Y105571D01*
X145129Y104670D01*
X144493Y103567D01*
X144163Y102337D01*
Y101063D01*
X144493Y99833D01*
X145129Y98730D01*
X146030Y97829D01*
X147133Y97193D01*
X148363Y96863D01*
X149637D01*
X150867Y97193D01*
X151970Y97829D01*
X152871Y98730D01*
X153507Y99833D01*
X153550Y99992D01*
X172244D01*
X172985Y100139D01*
X173143Y100245D01*
X175897D01*
Y103613D01*
X173143D01*
X172985Y103719D01*
X172244Y103866D01*
X154951D01*
X154645Y104605D01*
X160705Y110665D01*
X160978Y110634D01*
X161505Y110390D01*
Y110225D01*
X166842D01*
Y110227D01*
X171322D01*
X171483Y110120D01*
X172224Y109972D01*
X172966Y110120D01*
X173153Y110245D01*
X175897D01*
Y113613D01*
X173143D01*
X172985Y113719D01*
X172244Y113866D01*
X171503Y113719D01*
X171345Y113613D01*
X168591D01*
Y113592D01*
X166842D01*
Y113594D01*
X161505Y113594D01*
X161337Y114324D01*
Y119888D01*
X161190Y120630D01*
X161183Y120640D01*
Y122655D01*
D02*
G37*
G36*
X266650Y108350D02*
Y107050D01*
X267950D01*
X267749Y107536D01*
X267136Y108149D01*
X266650Y108350D01*
D02*
G37*
G36*
X265150D02*
X264665Y108149D01*
X264051Y107536D01*
X263850Y107050D01*
X265150D01*
Y108350D01*
D02*
G37*
G36*
X253731Y108903D02*
X251931D01*
Y106753D01*
X253731D01*
Y108903D01*
D02*
G37*
G36*
X250431D02*
X248631D01*
Y106753D01*
X250431D01*
Y108903D01*
D02*
G37*
G36*
X247432D02*
X245632D01*
Y106753D01*
X247432D01*
Y108903D01*
D02*
G37*
G36*
X244132D02*
X242332D01*
Y106753D01*
X244132D01*
Y108903D01*
D02*
G37*
G36*
X240070Y108613D02*
X232765D01*
Y105245D01*
X240070D01*
Y108613D01*
D02*
G37*
G36*
X166842Y109263D02*
X161505D01*
Y105894D01*
X166426D01*
X166581Y105739D01*
X167127Y105375D01*
X167771Y105247D01*
X167771Y105247D01*
X168591D01*
Y105245D01*
X175897D01*
Y108613D01*
X168591D01*
X167959Y109017D01*
X167786Y109133D01*
X167142Y109261D01*
X166842D01*
Y109263D01*
D02*
G37*
G36*
X267950Y105550D02*
X266650D01*
Y104250D01*
X267136Y104451D01*
X267749Y105064D01*
X267950Y105550D01*
D02*
G37*
G36*
X265150D02*
X263850D01*
X264051Y105064D01*
X264665Y104451D01*
X265150Y104250D01*
Y105550D01*
D02*
G37*
G36*
X253731Y105253D02*
X251931D01*
Y103103D01*
X253731D01*
Y105253D01*
D02*
G37*
G36*
X250431D02*
X248631D01*
Y103103D01*
X250431D01*
Y105253D01*
D02*
G37*
G36*
X247432D02*
X245632D01*
Y103103D01*
X247432D01*
Y105253D01*
D02*
G37*
G36*
X244132D02*
X242332D01*
Y103103D01*
X244132D01*
Y105253D01*
D02*
G37*
G36*
X240070Y103613D02*
X232765D01*
Y100245D01*
X240070D01*
Y103613D01*
D02*
G37*
G36*
X182350Y101150D02*
Y99850D01*
X183650D01*
X183449Y100336D01*
X182835Y100949D01*
X182350Y101150D01*
D02*
G37*
G36*
X180850D02*
X180365Y100949D01*
X179751Y100336D01*
X179550Y99850D01*
X180850D01*
Y101150D01*
D02*
G37*
G36*
X247482Y99199D02*
X242282D01*
Y98376D01*
X240070D01*
Y98613D01*
X232765D01*
Y95245D01*
X240070D01*
Y95521D01*
X242282D01*
Y94699D01*
X247482D01*
Y99199D01*
D02*
G37*
G36*
X218717Y98913D02*
X215514D01*
Y97679D01*
X218717D01*
Y98913D01*
D02*
G37*
G36*
X176197D02*
X172994D01*
Y97679D01*
X176197D01*
Y98913D01*
D02*
G37*
G36*
X171494D02*
X168291D01*
Y97679D01*
X171494D01*
Y98913D01*
D02*
G37*
G36*
X183650Y98350D02*
X182350D01*
Y97050D01*
X182835Y97251D01*
X183449Y97865D01*
X183650Y98350D01*
D02*
G37*
G36*
X180850D02*
X179550D01*
X179751Y97865D01*
X180365Y97251D01*
X180850Y97050D01*
Y98350D01*
D02*
G37*
G36*
X218717Y96179D02*
X215514D01*
Y94945D01*
X218717D01*
Y96179D01*
D02*
G37*
G36*
X176197D02*
X172994D01*
Y94945D01*
X176197D01*
Y96179D01*
D02*
G37*
G36*
X171494D02*
X168291D01*
Y94945D01*
X171494D01*
Y96179D01*
D02*
G37*
G36*
X266650Y95050D02*
Y93750D01*
X267950D01*
X267749Y94235D01*
X267136Y94849D01*
X266650Y95050D01*
D02*
G37*
G36*
X265150D02*
X264665Y94849D01*
X264051Y94235D01*
X263850Y93750D01*
X265150D01*
Y95050D01*
D02*
G37*
G36*
X267950Y92250D02*
X266650D01*
Y90950D01*
X267136Y91151D01*
X267749Y91764D01*
X267950Y92250D01*
D02*
G37*
G36*
X265150D02*
X263850D01*
X264051Y91764D01*
X264665Y91151D01*
X265150Y90950D01*
Y92250D01*
D02*
G37*
G36*
X238150Y90550D02*
Y89250D01*
X239450D01*
X239249Y89736D01*
X238635Y90349D01*
X238150Y90550D01*
D02*
G37*
G36*
X236650D02*
X236164Y90349D01*
X235551Y89736D01*
X235350Y89250D01*
X236650D01*
Y90550D01*
D02*
G37*
G36*
X135731Y92718D02*
X134431D01*
X133175Y92381D01*
X132139Y91783D01*
X135081Y88841D01*
X138022Y91783D01*
X136986Y92381D01*
X135731Y92718D01*
D02*
G37*
G36*
X239450Y87750D02*
X238150D01*
Y86450D01*
X238635Y86651D01*
X239249Y87265D01*
X239450Y87750D01*
D02*
G37*
G36*
X236650D02*
X235350D01*
X235551Y87265D01*
X236164Y86651D01*
X236650Y86450D01*
Y87750D01*
D02*
G37*
G36*
X131078Y90722D02*
X130480Y89686D01*
X130144Y88431D01*
Y87131D01*
X130480Y85875D01*
X131078Y84839D01*
X134020Y87781D01*
X131078Y90722D01*
D02*
G37*
G36*
X139083D02*
X136141Y87781D01*
X139083Y84839D01*
X139681Y85875D01*
X140018Y87131D01*
Y88431D01*
X139681Y89686D01*
X139083Y90722D01*
D02*
G37*
G36*
X135081Y86720D02*
X132139Y83778D01*
X133175Y83180D01*
X134431Y82844D01*
X135731D01*
X136986Y83180D01*
X138022Y83778D01*
X135081Y86720D01*
D02*
G37*
G36*
X120050Y71650D02*
Y70350D01*
X121350D01*
X121149Y70836D01*
X120536Y71449D01*
X120050Y71650D01*
D02*
G37*
G36*
X118550D02*
X118064Y71449D01*
X117451Y70836D01*
X117250Y70350D01*
X118550D01*
Y71650D01*
D02*
G37*
G36*
X121350Y68850D02*
X120050D01*
Y67550D01*
X120536Y67751D01*
X121149Y68365D01*
X121350Y68850D01*
D02*
G37*
G36*
X118550D02*
X117250D01*
X117451Y68365D01*
X118064Y67751D01*
X118550Y67550D01*
Y68850D01*
D02*
G37*
G36*
X161724Y73436D02*
X147332D01*
Y60879D01*
X144095D01*
X142935Y60727D01*
X141854Y60279D01*
X140926Y59567D01*
X140213Y58639D01*
X139766Y57558D01*
X139613Y56398D01*
X139766Y55238D01*
X140213Y54157D01*
X140926Y53229D01*
X141854Y52516D01*
X142935Y52069D01*
X144095Y51916D01*
X151181D01*
X152341Y52069D01*
X153422Y52516D01*
X154350Y53229D01*
X155062Y54157D01*
X155293Y54713D01*
X161724D01*
Y73436D01*
D02*
G37*
G36*
X171616Y53011D02*
Y44943D01*
X175846D01*
Y48130D01*
X175676Y49419D01*
X175179Y50620D01*
X174387Y51651D01*
X173356Y52442D01*
X172155Y52940D01*
X171616Y53011D01*
D02*
G37*
G36*
X170116D02*
X169577Y52940D01*
X168376Y52442D01*
X167345Y51651D01*
X166554Y50620D01*
X166056Y49419D01*
X165886Y48130D01*
Y44943D01*
X170116D01*
Y53011D01*
D02*
G37*
G36*
X239750Y36150D02*
Y34850D01*
X241050D01*
X240849Y35335D01*
X240235Y35949D01*
X239750Y36150D01*
D02*
G37*
G36*
X238250D02*
X237765Y35949D01*
X237151Y35335D01*
X236950Y34850D01*
X238250D01*
Y36150D01*
D02*
G37*
G36*
X155905Y36574D02*
X152718D01*
Y32344D01*
X160786D01*
X160715Y32883D01*
X160218Y34084D01*
X159427Y35116D01*
X158395Y35907D01*
X157194Y36404D01*
X155905Y36574D01*
D02*
G37*
G36*
X151218D02*
X148031D01*
X146743Y36404D01*
X145542Y35907D01*
X144510Y35116D01*
X143719Y34084D01*
X143222Y32883D01*
X143151Y32344D01*
X151218D01*
Y36574D01*
D02*
G37*
G36*
X241050Y33350D02*
X239750D01*
Y32050D01*
X240235Y32251D01*
X240849Y32864D01*
X241050Y33350D01*
D02*
G37*
G36*
X238250D02*
X236950D01*
X237151Y32864D01*
X237765Y32251D01*
X238250Y32050D01*
Y33350D01*
D02*
G37*
G36*
X268779Y33356D02*
X265970D01*
Y31728D01*
X268779D01*
Y33356D01*
D02*
G37*
G36*
X264471D02*
X261661D01*
Y31728D01*
X264471D01*
Y33356D01*
D02*
G37*
G36*
X260118D02*
X257309D01*
Y31728D01*
X260118D01*
Y33356D01*
D02*
G37*
G36*
X255809D02*
X253000D01*
Y31728D01*
X255809D01*
Y33356D01*
D02*
G37*
G36*
X251457D02*
X248648D01*
Y31728D01*
X251457D01*
Y33356D01*
D02*
G37*
G36*
X247148D02*
X244339D01*
Y31728D01*
X247148D01*
Y33356D01*
D02*
G37*
G36*
X135252Y42043D02*
X127325D01*
Y29589D01*
X135252D01*
Y42043D01*
D02*
G37*
G36*
X125825D02*
X117898D01*
Y29589D01*
X125825D01*
Y42043D01*
D02*
G37*
G36*
X186039D02*
X178112D01*
Y29589D01*
X186039D01*
Y42043D01*
D02*
G37*
G36*
X175846Y43443D02*
X170866D01*
X165886D01*
Y40256D01*
X166056Y38967D01*
X166554Y37766D01*
X167345Y36735D01*
X168376Y35943D01*
X168685Y35816D01*
Y29589D01*
X176612D01*
Y42043D01*
X175846D01*
Y43443D01*
D02*
G37*
G36*
X160786Y30845D02*
X152718D01*
Y26615D01*
X155905D01*
X157194Y26785D01*
X158395Y27282D01*
X159427Y28073D01*
X160218Y29105D01*
X160715Y30306D01*
X160786Y30845D01*
D02*
G37*
G36*
X151218D02*
X143151D01*
X143222Y30306D01*
X143719Y29105D01*
X144510Y28073D01*
X145542Y27282D01*
X146743Y26785D01*
X148031Y26615D01*
X151218D01*
Y30845D01*
D02*
G37*
G36*
X265350Y27650D02*
Y26350D01*
X266650D01*
X266449Y26836D01*
X265835Y27449D01*
X265350Y27650D01*
D02*
G37*
G36*
X263850D02*
X263365Y27449D01*
X262751Y26836D01*
X262550Y26350D01*
X263850D01*
Y27650D01*
D02*
G37*
G36*
X266650Y24850D02*
X265350D01*
Y23550D01*
X265835Y23751D01*
X266449Y24364D01*
X266650Y24850D01*
D02*
G37*
G36*
X263850D02*
X262550D01*
X262751Y24364D01*
X263365Y23751D01*
X263850Y23550D01*
Y24850D01*
D02*
G37*
G36*
X240318Y23159D02*
X238690D01*
Y20350D01*
X240318D01*
Y23159D01*
D02*
G37*
G36*
X237190D02*
X235562D01*
Y20350D01*
X237190D01*
Y23159D01*
D02*
G37*
G36*
X265450Y18050D02*
Y16750D01*
X266750D01*
X266549Y17235D01*
X265935Y17849D01*
X265450Y18050D01*
D02*
G37*
G36*
X263950D02*
X263464Y17849D01*
X262851Y17235D01*
X262650Y16750D01*
X263950D01*
Y18050D01*
D02*
G37*
G36*
X240318Y18850D02*
X238690D01*
Y16041D01*
X240318D01*
Y18850D01*
D02*
G37*
G36*
X237190D02*
X235562D01*
Y16041D01*
X237190D01*
Y18850D01*
D02*
G37*
G36*
X186039Y28089D02*
X178112D01*
Y15634D01*
X186039D01*
Y28089D01*
D02*
G37*
G36*
X176612D02*
X168685D01*
Y15634D01*
X176612D01*
Y28089D01*
D02*
G37*
G36*
X135252Y28089D02*
X127325D01*
Y15634D01*
X135252D01*
Y28089D01*
D02*
G37*
G36*
X125825D02*
X117898D01*
Y15634D01*
X125825D01*
Y28089D01*
D02*
G37*
G36*
X201165Y23047D02*
X200485Y22757D01*
X200365Y22757D01*
X191032D01*
Y15058D01*
X200700D01*
Y15125D01*
X201165Y15732D01*
X201500Y15732D01*
X202203D01*
Y19390D01*
Y23047D01*
X201380D01*
X201165Y23047D01*
D02*
G37*
G36*
X266750Y15250D02*
X265450D01*
Y13950D01*
X265935Y14151D01*
X266549Y14764D01*
X266750Y15250D01*
D02*
G37*
G36*
X263950D02*
X262650D01*
X262851Y14764D01*
X263464Y14151D01*
X263950Y13950D01*
Y15250D01*
D02*
G37*
G36*
X230500Y32537D02*
X229759Y32390D01*
X229748Y32383D01*
X227733D01*
Y28817D01*
X228563D01*
Y22859D01*
X228382D01*
Y16341D01*
X228523D01*
Y13250D01*
X228259Y12614D01*
X228259Y12443D01*
X227923Y12430D01*
X227131Y12413D01*
X227126D01*
Y12413D01*
X218591D01*
Y3926D01*
X227472D01*
Y11613D01*
X227472Y11756D01*
X228259Y11786D01*
X228313Y11654D01*
X228576Y11021D01*
X229161Y10436D01*
X229926Y10119D01*
X230754D01*
X231519Y10436D01*
X232104Y11021D01*
X232421Y11786D01*
Y12614D01*
X232397Y12672D01*
Y16341D01*
X232538D01*
Y22859D01*
X232437D01*
Y28817D01*
X233267D01*
Y32383D01*
X231252D01*
X231241Y32390D01*
X230500Y32537D01*
D02*
G37*
G36*
X152631Y18912D02*
X151306D01*
X150025Y18569D01*
X148878Y17906D01*
X147940Y16969D01*
X147278Y15821D01*
X146935Y14541D01*
Y13215D01*
X147278Y11935D01*
X147940Y10787D01*
X148878Y9850D01*
X150025Y9187D01*
X151306Y8844D01*
X152631D01*
X153911Y9187D01*
X155059Y9850D01*
X155997Y10787D01*
X156659Y11935D01*
X157002Y13215D01*
Y14541D01*
X156659Y15821D01*
X155997Y16969D01*
X155059Y17906D01*
X153911Y18569D01*
X152631Y18912D01*
D02*
G37*
G36*
X197550Y12413D02*
X188670D01*
Y3926D01*
X197550D01*
Y12413D01*
D02*
G37*
%LPD*%
G36*
X119500Y184700D02*
X120200Y184000D01*
X123200Y181000D01*
X135400Y181000D01*
X145000Y171400D01*
Y166700D01*
X145000Y154600D01*
X139300D01*
X137900Y156000D01*
Y163500D01*
X126800Y174600D01*
X121400D01*
X136400Y159600D01*
Y119300D01*
X133300Y116200D01*
X117800D01*
X117000Y117000D01*
Y131300D01*
X126125D01*
X126368Y130500D01*
X126028Y130272D01*
X125546Y129551D01*
X125525Y129450D01*
X129675D01*
X129655Y129551D01*
X129173Y130272D01*
X128832Y130500D01*
X129075Y131300D01*
X129200D01*
X129500Y131600D01*
X129500Y155701D01*
X129500Y156299D01*
X129498Y156500D01*
X128783Y156500D01*
X119151Y156500D01*
X108880Y171120D01*
X104100Y173100D01*
Y184000D01*
X104800Y184700D01*
X119500Y184700D01*
D02*
G37*
G36*
X93200Y151500D02*
X105500Y151500D01*
X106300Y150700D01*
Y148700D01*
X105300Y147700D01*
X93200D01*
X90700Y145200D01*
X79100D01*
X76700Y147600D01*
Y151300D01*
X77800Y152400D01*
X92300D01*
X93200Y151500D01*
D02*
G37*
G36*
X128200Y145400D02*
X128200Y134600D01*
X126200Y132600D01*
X116700D01*
X115700Y133600D01*
X115700Y142000D01*
X120200Y146500D01*
X127100D01*
X128200Y145400D01*
D02*
G37*
G36*
X105585Y146300D02*
X106727Y145185D01*
X106900Y138100D01*
X109400Y138100D01*
X112600Y138100D01*
X113300Y137400D01*
Y132700D01*
X115800Y130200D01*
X115800Y117400D01*
X113800Y115400D01*
X93400D01*
X89800Y119000D01*
Y129900D01*
X92100Y132200D01*
X94500D01*
X98400Y136100D01*
Y145500D01*
X99200Y146300D01*
X105585Y146300D01*
D02*
G37*
%LPC*%
G36*
X128559Y161551D02*
X125356D01*
Y160317D01*
X128559D01*
Y161551D01*
D02*
G37*
G36*
X123856D02*
X120653D01*
Y160317D01*
X123856D01*
Y161551D01*
D02*
G37*
G36*
X128559Y158817D02*
X125356D01*
Y157583D01*
X128559D01*
Y158817D01*
D02*
G37*
G36*
X123856D02*
X120653D01*
Y157583D01*
X123856D01*
Y158817D01*
D02*
G37*
G36*
X129675Y127950D02*
X125525D01*
X125546Y127849D01*
X126028Y127128D01*
X126144Y127050D01*
Y126250D01*
X126028Y126172D01*
X125546Y125451D01*
X125525Y125350D01*
X129675D01*
X129655Y125451D01*
X129173Y126172D01*
X129057Y126250D01*
Y127050D01*
X129173Y127128D01*
X129655Y127849D01*
X129675Y127950D01*
D02*
G37*
G36*
Y123850D02*
X125525D01*
X125546Y123749D01*
X126028Y123028D01*
Y122273D01*
X125546Y121551D01*
X125525Y121450D01*
X129675D01*
X129655Y121551D01*
X129173Y122273D01*
Y123028D01*
X129655Y123749D01*
X129675Y123850D01*
D02*
G37*
G36*
Y119950D02*
X128350D01*
Y118625D01*
X128451Y118646D01*
X129173Y119128D01*
X129655Y119849D01*
X129675Y119950D01*
D02*
G37*
G36*
X126850D02*
X125525D01*
X125546Y119849D01*
X126028Y119128D01*
X126749Y118646D01*
X126850Y118625D01*
Y119950D01*
D02*
G37*
%LPD*%
G36*
X71400Y200000D02*
X87783Y200317D01*
X88500Y199600D01*
Y195700D01*
X86600Y193800D01*
X79000D01*
Y180300D01*
X75300Y176600D01*
X55200D01*
X50800Y181000D01*
Y200000D01*
X55600Y204800D01*
X66600D01*
X71400Y200000D01*
D02*
G37*
%LPC*%
G36*
X73283Y80232D02*
X70415D01*
Y77364D01*
X73283D01*
Y80232D01*
D02*
G37*
G36*
X54466D02*
X51598D01*
Y77364D01*
X54466D01*
Y80232D01*
D02*
G37*
G36*
X68915D02*
X63191D01*
Y76614D01*
X61691D01*
Y80232D01*
X55967D01*
Y76614D01*
X55216D01*
Y75864D01*
X51598D01*
Y72996D01*
Y70140D01*
X55216D01*
Y68640D01*
X51598D01*
Y65772D01*
Y62915D01*
X55216D01*
Y62165D01*
X55967D01*
Y58547D01*
X61691D01*
Y62165D01*
X63191D01*
Y58547D01*
X68915D01*
Y62165D01*
X69665D01*
Y62915D01*
X73283D01*
Y65772D01*
Y68640D01*
X69665D01*
Y70140D01*
X73283D01*
Y72996D01*
Y75864D01*
X69665D01*
Y76614D01*
X68915D01*
Y80232D01*
D02*
G37*
G36*
X73283Y61415D02*
X70415D01*
Y58547D01*
X73283D01*
Y61415D01*
D02*
G37*
G36*
X54466D02*
X51598D01*
Y58547D01*
X54466D01*
Y61415D01*
D02*
G37*
G36*
X32163Y44799D02*
X30142D01*
Y40612D01*
X32163D01*
Y44799D01*
D02*
G37*
G36*
Y39112D02*
X30142D01*
Y34925D01*
X32163D01*
Y39112D01*
D02*
G37*
G36*
X25122Y36213D02*
Y34889D01*
X26447D01*
X26427Y34990D01*
X25945Y35711D01*
X25223Y36193D01*
X25122Y36213D01*
D02*
G37*
G36*
X23622D02*
X23521Y36193D01*
X22800Y35711D01*
X22318Y34990D01*
X22298Y34889D01*
X23622D01*
Y36213D01*
D02*
G37*
G36*
X26447Y33389D02*
X25122D01*
Y32064D01*
X25223Y32084D01*
X25945Y32566D01*
X26427Y33288D01*
X26447Y33389D01*
D02*
G37*
G36*
X23622D02*
X22298D01*
X22318Y33288D01*
X22800Y32566D01*
X23521Y32084D01*
X23622Y32064D01*
Y33389D01*
D02*
G37*
G36*
X32693Y32553D02*
X31065D01*
Y29744D01*
X32693D01*
Y32553D01*
D02*
G37*
G36*
X29565D02*
X27937D01*
Y29744D01*
X29565D01*
Y32553D01*
D02*
G37*
G36*
X25079Y30799D02*
Y29474D01*
X26403D01*
X26383Y29575D01*
X25901Y30297D01*
X25180Y30779D01*
X25079Y30799D01*
D02*
G37*
G36*
X23579D02*
X23478Y30779D01*
X22756Y30297D01*
X22274Y29575D01*
X22254Y29474D01*
X23579D01*
Y30799D01*
D02*
G37*
G36*
X26403Y27974D02*
X25079D01*
Y26649D01*
X25180Y26669D01*
X25901Y27152D01*
X26383Y27873D01*
X26403Y27974D01*
D02*
G37*
G36*
X23579D02*
X22254D01*
X22274Y27873D01*
X22756Y27152D01*
X23478Y26669D01*
X23579Y26649D01*
Y27974D01*
D02*
G37*
G36*
X25079Y25082D02*
Y23757D01*
X26403D01*
X26383Y23858D01*
X25901Y24580D01*
X25180Y25062D01*
X25079Y25082D01*
D02*
G37*
G36*
X23579D02*
X23478Y25062D01*
X22756Y24580D01*
X22274Y23858D01*
X22254Y23757D01*
X23579D01*
Y25082D01*
D02*
G37*
G36*
X32693Y28245D02*
X30315D01*
X27937D01*
Y25873D01*
X27937Y25435D01*
X27937Y24635D01*
Y22264D01*
X30315D01*
X32693D01*
Y24635D01*
X32693Y25073D01*
X32693Y25873D01*
Y28245D01*
D02*
G37*
G36*
X26403Y22257D02*
X25079D01*
Y20933D01*
X25180Y20953D01*
X25901Y21435D01*
X26383Y22156D01*
X26403Y22257D01*
D02*
G37*
G36*
X23579D02*
X22254D01*
X22274Y22156D01*
X22756Y21435D01*
X23478Y20953D01*
X23579Y20933D01*
Y22257D01*
D02*
G37*
G36*
X25061Y19284D02*
Y17959D01*
X26386D01*
X26365Y18060D01*
X25883Y18782D01*
X25162Y19264D01*
X25061Y19284D01*
D02*
G37*
G36*
X23561D02*
X23460Y19264D01*
X22738Y18782D01*
X22256Y18060D01*
X22236Y17959D01*
X23561D01*
Y19284D01*
D02*
G37*
G36*
X32693Y20764D02*
X30315D01*
X27937D01*
Y17955D01*
Y15178D01*
X30315D01*
X32693D01*
Y17955D01*
Y20764D01*
D02*
G37*
G36*
X26386Y16459D02*
X25061D01*
Y15135D01*
X25162Y15155D01*
X25883Y15637D01*
X26365Y16359D01*
X26386Y16459D01*
D02*
G37*
G36*
X23561D02*
X22236D01*
X22256Y16359D01*
X22738Y15637D01*
X23460Y15155D01*
X23561Y15135D01*
Y16459D01*
D02*
G37*
G36*
X32693Y13678D02*
X31065D01*
Y10869D01*
X32693D01*
Y13678D01*
D02*
G37*
G36*
X29565D02*
X27937D01*
Y10869D01*
X29565D01*
Y13678D01*
D02*
G37*
G36*
X331163Y101459D02*
X330768Y101353D01*
X330091Y100962D01*
X329538Y100409D01*
X329147Y99732D01*
X329041Y99337D01*
X331163D01*
Y101459D01*
D02*
G37*
G36*
X346464Y101455D02*
X345709D01*
X344979Y101260D01*
X344325Y100882D01*
X343791Y100348D01*
X343414Y99694D01*
X343218Y98964D01*
Y98209D01*
X343414Y97479D01*
X343791Y96825D01*
X344325Y96291D01*
X344979Y95914D01*
X345709Y95718D01*
X346464D01*
X347194Y95914D01*
X347848Y96291D01*
X348382Y96825D01*
X348760Y97479D01*
X348955Y98209D01*
Y98964D01*
X348760Y99694D01*
X348382Y100348D01*
X347848Y100882D01*
X347194Y101260D01*
X346464Y101455D01*
D02*
G37*
G36*
X331163Y97837D02*
X329041D01*
X329147Y97441D01*
X329538Y96764D01*
X330091Y96211D01*
X330768Y95820D01*
X331163Y95714D01*
Y97837D01*
D02*
G37*
G36*
X346464Y87282D02*
X345709D01*
X344979Y87086D01*
X344325Y86709D01*
X343791Y86175D01*
X343414Y85521D01*
X343218Y84791D01*
Y84036D01*
X343414Y83306D01*
X343791Y82652D01*
X344325Y82118D01*
X344979Y81740D01*
X345709Y81545D01*
X346464D01*
X347194Y81740D01*
X347848Y82118D01*
X348382Y82652D01*
X348760Y83306D01*
X348955Y84036D01*
Y84791D01*
X348760Y85521D01*
X348382Y86175D01*
X347848Y86709D01*
X347194Y87086D01*
X346464Y87282D01*
D02*
G37*
G36*
X332663Y101459D02*
Y98587D01*
Y95714D01*
X333059Y95820D01*
X333736Y96211D01*
X333919Y96394D01*
X336941D01*
X337608Y95727D01*
Y71759D01*
X333682D01*
Y65241D01*
X334078D01*
Y61050D01*
X333150D01*
Y56550D01*
X333150D01*
X333072Y55782D01*
X331200D01*
X331200Y55782D01*
X330556Y55654D01*
X330010Y55290D01*
X330010Y55290D01*
X317531Y42810D01*
X314919D01*
X313747Y43593D01*
X313682Y43620D01*
X313623Y43659D01*
X313555Y43673D01*
X313490Y43700D01*
X313419D01*
X313350Y43714D01*
X312750D01*
X312084Y43801D01*
X310116D01*
X309450Y43714D01*
X309000D01*
X308727Y43659D01*
X308495Y43505D01*
X307958Y42967D01*
X307789Y42838D01*
X307660Y42669D01*
X307095Y42105D01*
X306941Y41873D01*
X306886Y41600D01*
X306882Y41597D01*
X306082Y41995D01*
Y43703D01*
X307047Y44668D01*
X314989D01*
X315071Y44586D01*
X315836Y44269D01*
X316664D01*
X317429Y44586D01*
X318014Y45171D01*
X318331Y45936D01*
Y46764D01*
X318014Y47529D01*
X317429Y48114D01*
X316664Y48431D01*
X315836D01*
X315071Y48114D01*
X314989Y48032D01*
X306350D01*
X306350Y48032D01*
X305706Y47904D01*
X305160Y47540D01*
X305160Y47540D01*
X303210Y45590D01*
X302846Y45044D01*
X302718Y44400D01*
Y18000D01*
X302846Y17356D01*
X303210Y16810D01*
X304322Y15699D01*
X304867Y15335D01*
X305511Y15207D01*
X305511Y15207D01*
X307295D01*
X307789Y14562D01*
X307948Y14440D01*
Y13432D01*
X307789Y13310D01*
X307266Y12629D01*
X306938Y11835D01*
X306825Y10983D01*
X306938Y10132D01*
X307266Y9338D01*
X307789Y8657D01*
X308471Y8134D01*
X309264Y7805D01*
X310116Y7693D01*
X312084D01*
X312936Y7805D01*
X313729Y8134D01*
X314411Y8657D01*
X314934Y9338D01*
X315263Y10132D01*
X315375Y10983D01*
X315263Y11835D01*
X314934Y12629D01*
X314411Y13310D01*
X314252Y13432D01*
Y14440D01*
X314411Y14562D01*
X314934Y15244D01*
X315263Y16037D01*
X315375Y16889D01*
X315263Y17741D01*
X314934Y18534D01*
X314411Y19216D01*
X314252Y19338D01*
Y20346D01*
X314411Y20468D01*
X314934Y21149D01*
X315263Y21943D01*
X315375Y22794D01*
X315263Y23646D01*
X314934Y24440D01*
X314411Y25121D01*
X314364Y25157D01*
X314345Y25182D01*
X314314Y26204D01*
X315127Y27018D01*
X317800D01*
X318444Y27146D01*
X318990Y27510D01*
X319123Y27643D01*
X319282Y27550D01*
X321250D01*
Y29518D01*
X321157Y29677D01*
X328097Y36618D01*
X333600D01*
Y36050D01*
X338800D01*
Y40550D01*
X333600D01*
Y39982D01*
X327400D01*
X326756Y39854D01*
X326210Y39490D01*
X317103Y30382D01*
X315152D01*
X314387Y31126D01*
X314421Y32161D01*
X314428Y32166D01*
X314482Y32208D01*
X315021Y32910D01*
X315071Y33030D01*
X316523D01*
X317361Y33197D01*
X318073Y33672D01*
X331455Y47054D01*
X332194Y46748D01*
Y44785D01*
X337924D01*
Y45377D01*
X339635D01*
Y41045D01*
X339635D01*
X339900Y40550D01*
Y36050D01*
X345100D01*
Y40550D01*
X345365Y41045D01*
X345365D01*
Y45377D01*
X351521D01*
X352165Y45506D01*
X352711Y45870D01*
X353590Y46749D01*
X353954Y47295D01*
X354082Y47938D01*
Y67621D01*
X353954Y68265D01*
X353590Y68811D01*
X352711Y69690D01*
X352165Y70054D01*
X351521Y70182D01*
X345318D01*
Y71759D01*
X341992D01*
Y96636D01*
X341825Y97474D01*
X341350Y98186D01*
X339399Y100137D01*
X338688Y100612D01*
X337849Y100779D01*
X333919D01*
X333736Y100962D01*
X333059Y101353D01*
X332663Y101459D01*
D02*
G37*
G36*
X335250Y28850D02*
Y27550D01*
X336550D01*
X336349Y28036D01*
X335736Y28649D01*
X335250Y28850D01*
D02*
G37*
G36*
X333750D02*
X333264Y28649D01*
X332651Y28036D01*
X332450Y27550D01*
X333750D01*
Y28850D01*
D02*
G37*
G36*
X328950D02*
Y27550D01*
X330250D01*
X330049Y28036D01*
X329435Y28649D01*
X328950Y28850D01*
D02*
G37*
G36*
X327450D02*
X326964Y28649D01*
X326351Y28036D01*
X326150Y27550D01*
X327450D01*
Y28850D01*
D02*
G37*
G36*
X322750D02*
Y27550D01*
X324050D01*
X323849Y28036D01*
X323236Y28649D01*
X322750Y28850D01*
D02*
G37*
G36*
X330250Y26050D02*
X328950D01*
Y24750D01*
X329435Y24951D01*
X330049Y25565D01*
X330250Y26050D01*
D02*
G37*
G36*
X327450D02*
X326150D01*
X326351Y25565D01*
X326964Y24951D01*
X327450Y24750D01*
Y26050D01*
D02*
G37*
G36*
X324050D02*
X322750D01*
Y24750D01*
X323236Y24951D01*
X323849Y25565D01*
X324050Y26050D01*
D02*
G37*
G36*
X321250D02*
X319950D01*
X320151Y25565D01*
X320764Y24951D01*
X321250Y24750D01*
Y26050D01*
D02*
G37*
G36*
X336550D02*
X332450D01*
X332651Y25565D01*
X332818Y25398D01*
Y21957D01*
X321602Y10741D01*
X321366D01*
X320565Y10409D01*
X319951Y9795D01*
X319750Y9310D01*
X321800D01*
Y8560D01*
X322550D01*
Y6510D01*
X323036Y6711D01*
X323649Y7324D01*
X323981Y8126D01*
Y8362D01*
X335690Y20070D01*
X336054Y20616D01*
X336182Y21260D01*
Y25398D01*
X336349Y25565D01*
X336550Y26050D01*
D02*
G37*
G36*
X321050Y7810D02*
X319750D01*
X319951Y7324D01*
X320565Y6711D01*
X321050Y6510D01*
Y7810D01*
D02*
G37*
%LPD*%
G36*
X315535Y41540D02*
X315800Y40900D01*
X313000Y38100D01*
X308900Y38100D01*
X307600Y39400D01*
Y41600D01*
X309000Y43000D01*
X313350D01*
X315535Y41540D01*
D02*
G37*
G36*
X315957Y35151D02*
X313000Y32195D01*
X308900Y32195D01*
X307600Y33494D01*
Y35695D01*
X309000Y37095D01*
X313690D01*
X315957Y35151D01*
D02*
G37*
G36*
X313350Y31189D02*
X313300D01*
X315828Y28728D01*
X313389Y26289D01*
X308900Y26289D01*
X307600Y27589D01*
Y29789D01*
X309000Y31189D01*
X313300Y31189D01*
X313300Y31189D01*
X313350Y31189D01*
D02*
G37*
D16*
X202954Y138047D02*
X203000Y138000D01*
X202954Y138047D02*
Y143209D01*
X47900Y106805D02*
X47913Y106791D01*
X192557Y158957D02*
X197048D01*
X177400Y143800D02*
X192557Y158957D01*
X177400Y136300D02*
Y143800D01*
Y130788D02*
Y136300D01*
X197034Y149100D02*
X197048Y149114D01*
X192000Y149100D02*
X197034D01*
X52900Y106805D02*
X52913Y106791D01*
X203150Y131142D02*
X206000Y133993D01*
Y138367D01*
X203150Y128487D02*
Y131142D01*
X204922Y139445D02*
X206000Y138367D01*
X204922Y139445D02*
Y143209D01*
X208268Y128487D02*
Y138504D01*
X206891Y139881D02*
X208268Y138504D01*
X206891Y139881D02*
Y143209D01*
X210828Y176673D02*
Y186128D01*
X201076Y101700D02*
X209300D01*
X200676Y102100D02*
X201076Y101700D01*
X194069Y102100D02*
X200676D01*
X193898Y101929D02*
X194069Y102100D01*
X218200Y186900D02*
X220600Y189300D01*
X218200Y185266D02*
Y186900D01*
X214765Y181831D02*
X218200Y185266D01*
X214765Y176673D02*
Y181831D01*
X210828Y134272D02*
X213386Y131714D01*
X210828Y134272D02*
Y143209D01*
X213386Y128487D02*
Y131714D01*
X183400Y84500D02*
X217900D01*
X143700Y76800D02*
X175700D01*
X183400Y84500D01*
X108200Y41300D02*
X143700Y76800D01*
X108200Y34200D02*
Y41300D01*
X216733Y137877D02*
Y143209D01*
X227800Y119900D02*
Y126810D01*
X216733Y137877D02*
X227800Y126810D01*
X227784Y94384D02*
Y119884D01*
X217900Y84500D02*
X227784Y94384D01*
Y119884D02*
X227800Y119900D01*
X220670Y139730D02*
Y143209D01*
X237100Y123300D02*
X276500D01*
X220670Y139730D02*
X237100Y123300D01*
X276500D02*
X288900Y110900D01*
Y19800D02*
Y110900D01*
X285883Y16783D02*
X288900Y19800D01*
X279000Y16783D02*
X285883D01*
X224607Y138607D02*
Y143209D01*
X232640Y132000D02*
X232670Y132030D01*
Y136670D01*
X224607Y138607D02*
X226514Y136700D01*
X232700D01*
X209400Y26700D02*
Y30900D01*
X212831Y136769D02*
Y143174D01*
X218504Y128487D02*
Y131096D01*
X212831Y136769D02*
X218504Y131096D01*
X212796Y143209D02*
X212831Y143174D01*
X214765Y137441D02*
Y143209D01*
Y137441D02*
X224480Y127725D01*
Y123180D02*
Y127725D01*
X224400Y123100D02*
X224480Y123180D01*
X200852Y97100D02*
X204700D01*
X200700Y96948D02*
X200852Y97100D01*
X193916Y96948D02*
X200700D01*
X193898Y96929D02*
X193916Y96948D01*
X216500Y185971D02*
Y189200D01*
X212796Y176673D02*
Y182267D01*
X216500Y185971D01*
X230513Y153051D02*
X249802D01*
X249999Y152854D01*
X230600Y121900D02*
Y126414D01*
X233900Y118600D02*
X276700D01*
X230600Y121900D02*
X233900Y118600D01*
X218702Y138312D02*
Y143209D01*
Y138312D02*
X230600Y126414D01*
X284395Y28594D02*
X286400Y30600D01*
X279000Y28594D02*
X284395D01*
X286400Y30600D02*
Y108900D01*
X276700Y118600D02*
X286400Y108900D01*
X102479Y27114D02*
X103065Y27700D01*
X102479Y19980D02*
Y27114D01*
X103065Y27700D02*
X108000D01*
X108200Y27900D01*
X209400Y40152D02*
Y44352D01*
X58829Y76614D02*
X62441D01*
Y73002D02*
Y76614D01*
X69665Y73002D02*
Y76614D01*
X62441Y69390D02*
X66053D01*
X69665D02*
Y73002D01*
X62441Y76614D02*
X66053D01*
X62441Y69390D02*
Y73002D01*
X58829Y69390D02*
X62441D01*
X55216Y76614D02*
X58829D01*
X55216Y69390D02*
X58829D01*
X55216Y73002D02*
Y76614D01*
X69665Y65777D02*
Y69390D01*
Y62165D02*
Y65777D01*
X62441Y62165D02*
Y65777D01*
X66053Y62165D02*
X69665D01*
X62441D02*
X66053D01*
X58829D02*
X62441D01*
Y65777D02*
Y69390D01*
X55216Y65777D02*
Y69390D01*
Y62165D02*
X58829D01*
X72350Y27450D02*
X74300Y29400D01*
X72350Y23400D02*
Y27450D01*
X74300Y29400D02*
X102514D01*
X65710Y23060D02*
X66050Y23400D01*
X59320Y23060D02*
X65710D01*
X102514Y29400D02*
X103100Y29986D01*
Y40600D01*
X142400Y79900D01*
X173300D01*
X203150Y115850D02*
Y122187D01*
X209200Y107586D02*
Y109800D01*
X203150Y115850D02*
X209200Y109800D01*
Y107586D02*
X209786Y107000D01*
X221000Y102515D02*
Y112100D01*
X214764Y101929D02*
X220414D01*
X221000Y102515D01*
X217200Y115900D02*
X221000Y112100D01*
X223900Y94700D02*
Y112900D01*
X216300Y87100D02*
X223900Y94700D01*
X218504Y118296D02*
X223900Y112900D01*
X236417Y96929D02*
X236437Y96949D01*
X244882D01*
X213972Y115900D02*
X217200D01*
X213386Y116486D02*
Y122187D01*
Y116486D02*
X213972Y115900D01*
X208268Y114432D02*
Y122187D01*
Y114432D02*
X210771Y111929D01*
X214764D01*
X209786Y107000D02*
X214693D01*
X214764Y106929D01*
X218504Y118296D02*
Y122187D01*
X180500Y87100D02*
X216300D01*
X173300Y79900D02*
X180500Y87100D01*
D53*
X151969Y13878D02*
D03*
X15748Y188287D02*
D03*
D66*
X51181Y139468D02*
D03*
X167400Y150750D02*
D03*
X203150Y128487D02*
D03*
X208268D02*
D03*
X211000Y186300D02*
D03*
X200676Y102106D02*
D03*
X213386Y128487D02*
D03*
X108200Y34200D02*
D03*
X251181Y112303D02*
D03*
X244882D02*
D03*
X186700Y125600D02*
D03*
X193900D02*
D03*
X200676Y108406D02*
D03*
X200700Y90654D02*
D03*
X78100Y15450D02*
D03*
X42913Y24114D02*
D03*
X218504Y128487D02*
D03*
X200700Y96954D02*
D03*
X203150Y122187D02*
D03*
X167400Y144450D02*
D03*
X78100Y21750D02*
D03*
X108200Y27900D02*
D03*
X241400Y253200D02*
D03*
X233465Y258367D02*
D03*
X211000Y192600D02*
D03*
X244882Y106003D02*
D03*
X251181D02*
D03*
X193900Y131900D02*
D03*
X186700D02*
D03*
X51181Y145768D02*
D03*
X233465Y252067D02*
D03*
X241400Y259500D02*
D03*
X42913Y30414D02*
D03*
X218504Y122187D02*
D03*
X208268D02*
D03*
X213386D02*
D03*
X63386Y120571D02*
D03*
Y126871D02*
D03*
D67*
X120079Y123327D02*
D03*
X111811D02*
D03*
D68*
X112205Y178445D02*
D03*
X88583D02*
D03*
D69*
X230500Y30600D02*
D03*
X261500Y255800D02*
D03*
X272524D02*
D03*
X212205Y256004D02*
D03*
X201181D02*
D03*
X219476Y30600D02*
D03*
D70*
X230460Y19600D02*
D03*
X249900Y173700D02*
D03*
X232700Y136700D02*
D03*
X200040Y185400D02*
D03*
X186360Y142200D02*
D03*
X159400Y149900D02*
D03*
X37795Y28995D02*
D03*
Y21514D02*
D03*
Y14427D02*
D03*
X192560Y185400D02*
D03*
X343240Y68500D02*
D03*
X335760D02*
D03*
X257380Y173700D02*
D03*
X240180Y136700D02*
D03*
X193840Y142200D02*
D03*
X237940Y19600D02*
D03*
X151920Y149900D02*
D03*
X30315Y28995D02*
D03*
Y14427D02*
D03*
Y21514D02*
D03*
D71*
X124606Y159567D02*
D03*
X193898Y101929D02*
D03*
X236417Y111929D02*
D03*
X193898D02*
D03*
Y96929D02*
D03*
X214764D02*
D03*
X102953Y154567D02*
D03*
X172244Y96929D02*
D03*
X214764Y111929D02*
D03*
Y101929D02*
D03*
Y106929D02*
D03*
X172244Y101929D02*
D03*
X102953Y149567D02*
D03*
X193898Y106929D02*
D03*
X172244D02*
D03*
Y111929D02*
D03*
X236417Y106929D02*
D03*
Y101929D02*
D03*
Y96929D02*
D03*
X102953Y159567D02*
D03*
X124606Y154567D02*
D03*
Y149567D02*
D03*
Y144567D02*
D03*
X102953D02*
D03*
D72*
X125591Y176870D02*
D03*
X132283D02*
D03*
X265220Y41587D02*
D03*
X256559D02*
D03*
X247898D02*
D03*
X185433Y192815D02*
D03*
X177319D02*
D03*
X168000Y173040D02*
D03*
X185433Y185335D02*
D03*
X177319D02*
D03*
X132283Y184350D02*
D03*
X125591D02*
D03*
X256559Y34106D02*
D03*
X247898D02*
D03*
X265220D02*
D03*
X168000Y165560D02*
D03*
X89600Y158080D02*
D03*
X81502D02*
D03*
X89600Y150600D02*
D03*
X81502D02*
D03*
D73*
X141339Y159547D02*
D03*
X159449D02*
D03*
X150394D02*
D03*
D74*
X154527Y64075D02*
D03*
D75*
X47854Y124114D02*
D03*
X342500Y50800D02*
D03*
X335059Y47060D02*
D03*
X342500Y43320D02*
D03*
X247638Y252067D02*
D03*
X227343Y259350D02*
D03*
X55295Y127854D02*
D03*
X59320Y30540D02*
D03*
X227343Y251870D02*
D03*
X255079Y255807D02*
D03*
X247638Y259547D02*
D03*
X51880Y26800D02*
D03*
X219902Y255610D02*
D03*
X55295Y120374D02*
D03*
X59320Y23060D02*
D03*
D76*
X230513Y164862D02*
D03*
Y162894D02*
D03*
Y153051D02*
D03*
Y170768D02*
D03*
X197048Y155020D02*
D03*
X230513Y166831D02*
D03*
Y160925D02*
D03*
Y158957D02*
D03*
Y156988D02*
D03*
Y155020D02*
D03*
Y151083D02*
D03*
Y149114D02*
D03*
X197048D02*
D03*
Y151083D02*
D03*
Y153051D02*
D03*
Y158957D02*
D03*
Y164862D02*
D03*
Y166831D02*
D03*
Y168799D02*
D03*
Y170768D02*
D03*
Y160925D02*
D03*
Y162894D02*
D03*
X230513Y168799D02*
D03*
X197048Y156988D02*
D03*
D77*
X224607Y143209D02*
D03*
X202954Y176673D02*
D03*
X214765D02*
D03*
X212796D02*
D03*
X206891D02*
D03*
X208859D02*
D03*
X210828D02*
D03*
X216733D02*
D03*
X218702D02*
D03*
X220670D02*
D03*
X222639D02*
D03*
X224607D02*
D03*
X220670Y143209D02*
D03*
X218702D02*
D03*
X216733D02*
D03*
X214765D02*
D03*
X212796D02*
D03*
X210828D02*
D03*
X208859D02*
D03*
X206891D02*
D03*
X204922D02*
D03*
X202954D02*
D03*
X204922Y176673D02*
D03*
X222639Y143209D02*
D03*
D78*
X171875Y158724D02*
D03*
X188300Y162900D02*
D03*
X182176Y169025D02*
D03*
X178000Y152600D02*
D03*
D79*
X47913Y106791D02*
D03*
X52913D02*
D03*
X37913Y39862D02*
D03*
X32913Y106791D02*
D03*
Y39862D02*
D03*
X42913D02*
D03*
X47913D02*
D03*
X52913D02*
D03*
X57913D02*
D03*
X62913D02*
D03*
X67913D02*
D03*
X72913D02*
D03*
X77913D02*
D03*
X82913D02*
D03*
X87913D02*
D03*
X92913D02*
D03*
X97913D02*
D03*
Y106791D02*
D03*
X92913D02*
D03*
X87913D02*
D03*
X82913D02*
D03*
X77913D02*
D03*
X72913D02*
D03*
X67913D02*
D03*
X62913D02*
D03*
X57913D02*
D03*
X42913D02*
D03*
X37913D02*
D03*
D80*
X177400Y136300D02*
D03*
Y130788D02*
D03*
X264250Y246400D02*
D03*
X250000Y164700D02*
D03*
Y159600D02*
D03*
X182200Y177200D02*
D03*
X251182Y96949D02*
D03*
X249999Y152854D02*
D03*
X247638Y246555D02*
D03*
X342050Y58800D02*
D03*
X336200Y38300D02*
D03*
X256300Y159600D02*
D03*
X256299Y152854D02*
D03*
X256300Y164700D02*
D03*
X335750Y58800D02*
D03*
X342500Y38300D02*
D03*
X175900Y177200D02*
D03*
X171100Y136300D02*
D03*
Y130788D02*
D03*
X241338Y246555D02*
D03*
X257950Y246400D02*
D03*
X66050Y23400D02*
D03*
X72350D02*
D03*
X117717Y135138D02*
D03*
X111417D02*
D03*
X244882Y96949D02*
D03*
D81*
X248500Y209700D02*
D03*
Y219700D02*
D03*
Y189700D02*
D03*
Y199700D02*
D03*
Y229700D02*
D03*
D82*
X209400Y30900D02*
D03*
X213140D02*
D03*
Y40152D02*
D03*
X205660Y30900D02*
D03*
Y40152D02*
D03*
X209400D02*
D03*
D83*
X159400Y130912D02*
D03*
Y119888D02*
D03*
X83900Y197476D02*
D03*
Y208500D02*
D03*
D84*
X126575Y28839D02*
D03*
X177362D02*
D03*
D85*
X147638Y217441D02*
D03*
D86*
Y196929D02*
D03*
X112992Y217441D02*
D03*
Y196929D02*
D03*
D87*
X95802Y123200D02*
D03*
X78598D02*
D03*
D88*
X210630Y19390D02*
D03*
X208071D02*
D03*
X202953D02*
D03*
X205512D02*
D03*
X213189D02*
D03*
D89*
X90668Y19980D02*
D03*
X102479D02*
D03*
X108384D02*
D03*
D90*
X150394Y184744D02*
D03*
D91*
X101850Y50827D02*
D03*
Y55827D02*
D03*
Y60827D02*
D03*
Y65827D02*
D03*
Y70827D02*
D03*
Y75827D02*
D03*
Y80827D02*
D03*
Y85827D02*
D03*
Y90827D02*
D03*
Y95827D02*
D03*
D92*
X69665Y76614D02*
D03*
X62441D02*
D03*
X69665Y69390D02*
D03*
X55216Y76614D02*
D03*
X62441Y69390D02*
D03*
Y62165D02*
D03*
X69665D02*
D03*
X55216Y69390D02*
D03*
Y62165D02*
D03*
D93*
X30709Y162894D02*
D03*
Y213681D02*
D03*
D94*
X65945Y185728D02*
D03*
D95*
X164173Y107579D02*
D03*
Y111909D02*
D03*
D96*
X98087Y217815D02*
D03*
X83914D02*
D03*
D97*
X113896Y17028D02*
D03*
X85156D02*
D03*
X113896Y9154D02*
D03*
X85156D02*
D03*
D98*
X223031Y8169D02*
D03*
X193110D02*
D03*
D99*
X220276Y18907D02*
D03*
X195866D02*
D03*
D100*
X16984Y139468D02*
X51181D01*
X51713Y140000D01*
X56500D01*
X16402Y140051D02*
X16984Y139468D01*
X230340Y12200D02*
Y12298D01*
X230460Y12418D02*
Y19600D01*
X230340Y12298D02*
X230460Y12418D01*
Y19600D02*
X230500Y19640D01*
Y30600D01*
X27881Y124114D02*
X47854D01*
X27693Y123926D02*
X27881Y124114D01*
X251181Y112303D02*
X258497D01*
X244882D02*
X251181D01*
X258497D02*
X258500Y112300D01*
X244508Y111929D02*
X244882Y112303D01*
X236417Y111929D02*
X244508D01*
X253213Y250000D02*
X282000D01*
X251146Y252067D02*
X253213Y250000D01*
X247638Y252067D02*
X251146D01*
X247088Y252617D02*
X247638Y252067D01*
X241950Y252617D02*
X247088D01*
X241400Y253167D02*
Y253200D01*
Y253167D02*
X241950Y252617D01*
X233465Y258717D02*
X235931Y261183D01*
Y261431D01*
X233465Y258367D02*
Y258717D01*
X90290Y21760D02*
X90668Y21382D01*
X78100Y21760D02*
X90290D01*
X90668Y19980D02*
Y21382D01*
X59320Y30540D02*
X66060D01*
X172224Y111909D02*
X172244Y111929D01*
X159400Y112100D02*
Y119888D01*
X149000Y101700D02*
X159400Y112100D01*
X149000Y101700D02*
X149229Y101929D01*
X172244D01*
X55295Y120374D02*
X63189D01*
X63386Y126871D02*
X71615Y135100D01*
X63189Y120374D02*
X63386Y120571D01*
X71615Y135100D02*
X74000D01*
X256100Y146200D02*
Y152655D01*
X256299Y152854D01*
D101*
X177248Y163103D02*
X183451Y156900D01*
X187618D01*
X171875Y158724D02*
X176254Y163103D01*
X177248D01*
X187618Y156900D02*
X191644Y160925D01*
X167400Y150750D02*
Y154249D01*
X171875Y158724D01*
X191644Y160925D02*
X197048D01*
X264250Y231350D02*
Y246400D01*
X218702Y180535D02*
X235700Y197534D01*
X257250Y224350D02*
X264250Y231350D01*
X235700Y197534D02*
Y220000D01*
X218702Y176673D02*
Y180535D01*
X240050Y224350D02*
X257250D01*
X235700Y220000D02*
X240050Y224350D01*
X249838Y164862D02*
X250000Y164700D01*
X230513Y164862D02*
X249838D01*
X242700Y209700D02*
X248500D01*
X224607Y176673D02*
Y180307D01*
X240800Y196500D01*
Y207800D02*
X242700Y209700D01*
X240800Y196500D02*
Y207800D01*
X240000Y219700D02*
X248500D01*
X238800Y218500D02*
X240000Y219700D01*
X222639Y176673D02*
Y181254D01*
X238800Y197415D02*
Y218500D01*
X222639Y181254D02*
X238800Y197415D01*
X250400Y173700D02*
Y179100D01*
X237400Y173700D02*
X249900D01*
X234468Y170768D02*
X237400Y173700D01*
X200776Y108400D02*
X204800D01*
X209152Y90648D02*
X209200Y90600D01*
X200676Y108500D02*
X200776Y108400D01*
X200700Y90648D02*
X209152D01*
X60100Y16000D02*
X60988Y15112D01*
X78100D01*
X50000Y16000D02*
X60100D01*
X246700Y159600D02*
X250000D01*
X243458Y162842D02*
X246700Y159600D01*
X230564Y162842D02*
X243458D01*
X248950Y158900D02*
X249550Y158300D01*
X249900D01*
X182200Y177200D02*
X185700D01*
X188300Y174600D01*
Y162900D02*
Y174600D01*
X197042Y162900D02*
X197048Y162894D01*
X188300Y162900D02*
X197042D01*
X227000Y179650D02*
X242900Y195550D01*
X226269Y166831D02*
X230513D01*
X225400Y167700D02*
X226269Y166831D01*
X244800Y199700D02*
X248500D01*
X242900Y195550D02*
Y197800D01*
X244800Y199700D01*
X227000Y173350D02*
Y179650D01*
X225400Y167700D02*
Y171750D01*
X227000Y173350D01*
X201200Y81400D02*
X244300D01*
X251182Y88282D01*
X206891Y176673D02*
Y181691D01*
X207000Y181800D01*
X251182Y88282D02*
Y96949D01*
X232190Y228057D02*
X247638Y243505D01*
Y246555D01*
X216733Y181254D02*
X232190Y196711D01*
Y228057D01*
X216733Y176673D02*
Y181254D01*
X219476Y28265D02*
Y30600D01*
X213376Y22165D02*
X219476Y28265D01*
X213376Y19577D02*
Y22165D01*
X213189Y19390D02*
X213376Y19577D01*
D102*
X47900Y106805D02*
Y115200D01*
X52900Y106805D02*
Y115200D01*
X342000Y58750D02*
X342050Y58800D01*
X342000Y56600D02*
Y58750D01*
X339500Y54100D02*
X342000Y56600D01*
X331200Y54100D02*
X339500D01*
X318228Y41128D02*
X331200Y54100D01*
X311717Y41128D02*
X318228D01*
X311100Y40511D02*
X311717Y41128D01*
X334500Y21260D02*
Y26800D01*
X321800Y8560D02*
X334500Y21260D01*
X327400Y38300D02*
X336200D01*
X317800Y28700D02*
X327400Y38300D01*
X311100Y28700D02*
X317800D01*
X306350Y46350D02*
X316250D01*
X304400Y18000D02*
Y44400D01*
X306350Y46350D01*
X305511Y16889D02*
X311100D01*
X304400Y18000D02*
X305511Y16889D01*
X335750Y58800D02*
X335760Y58810D01*
Y68500D01*
X343240D02*
X351521D01*
X352400Y47938D02*
Y67621D01*
X351521Y68500D02*
X352400Y67621D01*
X335059Y47060D02*
X351521D01*
X352400Y47938D01*
X342500Y38300D02*
X342800Y38600D01*
X342500Y43320D02*
X342800Y43020D01*
Y38600D02*
Y43020D01*
X164173Y107579D02*
X167142D01*
Y107558D02*
Y107579D01*
Y107558D02*
X167771Y106929D01*
X172244D01*
X164173Y111909D02*
X172224D01*
D103*
X210828Y186128D02*
X211000Y186300D01*
D104*
X248500Y189700D02*
X266100D01*
D105*
X230513Y170768D02*
X234468D01*
X192420Y155020D02*
X197048D01*
X186300Y148900D02*
X192420Y155020D01*
X186300Y142460D02*
Y148900D01*
X181600Y142200D02*
X186360D01*
X256736Y168799D02*
X257380Y169444D01*
X230513Y168799D02*
X256736D01*
X257380Y169444D02*
Y173700D01*
D106*
X347800Y52264D02*
Y61636D01*
X346051Y63384D02*
X347800Y61636D01*
X341661Y63384D02*
X346051D01*
X346336Y50800D02*
X347800Y52264D01*
X342500Y50800D02*
X346336D01*
X339800Y65245D02*
Y96636D01*
X337849Y98587D02*
X339800Y96636D01*
Y65245D02*
X341661Y63384D01*
X331913Y98587D02*
X337849D01*
X332100Y50800D02*
X342500D01*
X316523Y35223D02*
X332100Y50800D01*
X314274Y35223D02*
X316523D01*
X314083Y35031D02*
X314274Y35223D01*
X311100Y34606D02*
X311526Y35031D01*
X314083D01*
D107*
X268100Y164700D02*
X268598Y164202D01*
X256300Y164700D02*
X268100D01*
X268598Y164202D02*
X269701D01*
X269871Y164032D01*
X269242Y160330D02*
X269870D01*
X267893Y160293D02*
X269205D01*
X269242Y160330D01*
X269870D02*
X270041Y160500D01*
X256300Y159600D02*
X267200D01*
X267893Y160293D01*
X213140Y40152D02*
Y47400D01*
Y30900D02*
Y40152D01*
X205744Y76453D02*
X211069Y71128D01*
Y49472D02*
X213140Y47400D01*
X211069Y49472D02*
Y71128D01*
X210630Y19390D02*
Y23830D01*
X213140Y26340D01*
Y30900D01*
X201238Y76453D02*
X205744D01*
X205660Y30900D02*
Y40152D01*
X205717Y40152D02*
Y47143D01*
X208596Y50022D01*
X205773Y72927D02*
X208596Y70104D01*
Y50022D02*
Y70104D01*
X205660Y26182D02*
Y30900D01*
X208071Y19390D02*
Y23771D01*
X205660Y26182D02*
X208071Y23771D01*
X201000Y73000D02*
X201073Y72927D01*
X205773D01*
D108*
X227343Y259350D02*
X232481D01*
X233465Y258367D01*
X32913Y86287D02*
X38416Y80784D01*
X32913Y86287D02*
Y106791D01*
X81004Y50827D02*
X101850D01*
X69665Y62165D02*
X81004Y50827D01*
X257950Y241150D02*
Y246400D01*
Y241150D02*
X258000Y241100D01*
D109*
X26000Y358500D02*
X26067Y358433D01*
X26000Y338500D02*
X34600Y329900D01*
X26067Y358433D02*
X58988D01*
X159449Y320965D02*
X177165Y338681D01*
X34600Y329900D02*
X71773D01*
X58988Y358433D02*
X59055Y358366D01*
X177165Y338681D02*
Y358366D01*
X71773Y329900D02*
X80709Y320965D01*
D110*
X27693Y123926D02*
D03*
X16402Y140051D02*
D03*
X135081Y87781D02*
D03*
X20472Y246555D02*
D03*
Y293012D02*
D03*
X149000Y101700D02*
D03*
X40157Y246555D02*
D03*
Y293012D02*
D03*
X59055Y358366D02*
D03*
X177165D02*
D03*
X100394Y242224D02*
D03*
X139764D02*
D03*
X80709Y320965D02*
D03*
X159449D02*
D03*
D111*
X147638Y56398D02*
D03*
D112*
X279000Y16783D02*
D03*
Y40405D02*
D03*
Y22689D02*
D03*
Y28594D02*
D03*
X311100Y16889D02*
D03*
Y40511D02*
D03*
Y34606D02*
D03*
Y28700D02*
D03*
Y22794D02*
D03*
Y10983D02*
D03*
X279000Y34500D02*
D03*
Y10878D02*
D03*
D113*
X346087Y98587D02*
D03*
X331913D02*
D03*
X346087Y84413D02*
D03*
D114*
X253000Y309500D02*
D03*
X283000Y329500D02*
D03*
X253000Y339500D02*
D03*
Y269500D02*
D03*
X283000D02*
D03*
X200500Y310000D02*
D03*
X230500Y330000D02*
D03*
X200500Y340000D02*
D03*
X230500Y270000D02*
D03*
X200500D02*
D03*
D115*
X261000Y356500D02*
D03*
X281000D02*
D03*
X228500D02*
D03*
X208500D02*
D03*
X26000Y358500D02*
D03*
Y338500D02*
D03*
D116*
X170866Y44193D02*
D03*
X33465Y188287D02*
D03*
D117*
X151969Y31594D02*
D03*
X46063Y169390D02*
D03*
D118*
X66053Y76614D02*
D03*
X69665Y73002D02*
D03*
X62441D02*
D03*
X58829Y76614D02*
D03*
X55216Y73002D02*
D03*
X69665Y65777D02*
D03*
X66053Y69390D02*
D03*
Y62165D02*
D03*
X62441Y65777D02*
D03*
X58829Y69390D02*
D03*
Y62165D02*
D03*
X55216Y65777D02*
D03*
D119*
X58268Y192618D02*
D03*
D120*
X56500Y140000D02*
D03*
X230340Y12200D02*
D03*
X127600Y124600D02*
D03*
Y128700D02*
D03*
Y120700D02*
D03*
X47900Y115200D02*
D03*
X203000Y138000D02*
D03*
X192000Y149100D02*
D03*
X52900Y115200D02*
D03*
X209300Y101700D02*
D03*
X220600Y189300D02*
D03*
X266100Y189700D02*
D03*
X250400Y179100D02*
D03*
X232640Y132000D02*
D03*
X265439Y47659D02*
D03*
X258497Y112303D02*
D03*
X256639Y47459D02*
D03*
X247739Y47259D02*
D03*
X204800Y108400D02*
D03*
X209200Y90600D02*
D03*
X209400Y26700D02*
D03*
X181600Y142200D02*
D03*
X169000Y184100D02*
D03*
Y180500D02*
D03*
X165700D02*
D03*
Y176500D02*
D03*
X169000D02*
D03*
X192100Y118700D02*
D03*
X185700D02*
D03*
X50000Y16000D02*
D03*
X43300Y15000D02*
D03*
Y19400D02*
D03*
X224400Y123100D02*
D03*
X201200Y81400D02*
D03*
X207000Y181800D02*
D03*
X204700Y97100D02*
D03*
X216500Y189200D02*
D03*
X334500Y26800D02*
D03*
X328200D02*
D03*
X322000D02*
D03*
X321800Y8560D02*
D03*
X316250Y46350D02*
D03*
X198900Y142300D02*
D03*
X119300Y69600D02*
D03*
X282000Y250000D02*
D03*
X241800Y264300D02*
D03*
X235931Y261431D02*
D03*
X269871Y164032D02*
D03*
X270041Y160500D02*
D03*
X201238Y76453D02*
D03*
X201000Y73000D02*
D03*
X89600Y138700D02*
D03*
X64900Y153800D02*
D03*
X72342Y166634D02*
D03*
X87605Y166869D02*
D03*
X96600Y192700D02*
D03*
X125000Y194100D02*
D03*
X132500Y194200D02*
D03*
X175400Y171000D02*
D03*
X171100Y121800D02*
D03*
X146400Y128100D02*
D03*
X181600Y99100D02*
D03*
X264700Y16000D02*
D03*
X264600Y25600D02*
D03*
X239000Y34100D02*
D03*
X237400Y88500D02*
D03*
X265900Y93000D02*
D03*
Y106300D02*
D03*
X208700Y97100D02*
D03*
X199600Y133400D02*
D03*
X204700Y165800D02*
D03*
X221100Y152000D02*
D03*
X204700Y151500D02*
D03*
X257300Y182400D02*
D03*
X247000Y136900D02*
D03*
X279600Y204600D02*
D03*
X279000Y229000D02*
D03*
X177200Y181400D02*
D03*
X185200D02*
D03*
X211369Y197900D02*
D03*
X191600Y204000D02*
D03*
X216600Y223300D02*
D03*
Y231000D02*
D03*
X182400Y204000D02*
D03*
X200500Y231000D02*
D03*
X256700Y233700D02*
D03*
X256800Y231000D02*
D03*
X209400Y44352D02*
D03*
X66060Y30540D02*
D03*
X24372Y34139D02*
D03*
X24329Y28724D02*
D03*
Y23007D02*
D03*
X24311Y17210D02*
D03*
X258000Y241100D02*
D03*
X90000Y146900D02*
D03*
X83900D02*
D03*
X86800D02*
D03*
X64900Y202400D02*
D03*
X60600D02*
D03*
X56500D02*
D03*
X60400Y178000D02*
D03*
X80500Y146900D02*
D03*
X67800Y178000D02*
D03*
X63900D02*
D03*
X74000Y135100D02*
D03*
X256100Y146200D02*
D03*
M02*
