G04*
G04 #@! TF.GenerationSoftware,Altium Limited,Altium Designer,26.3.0 (6)*
G04*
G04 Layer_Color=16711935*
%FSLAX25Y25*%
%MOIN*%
G70*
G04*
G04 #@! TF.SameCoordinates,93A21E67-8BBF-49F2-ADDE-66DC4D57E892*
G04*
G04*
G04 #@! TF.FilePolarity,Negative*
G04*
G01*
G75*
%ADD19R,0.03494X0.04194*%
%ADD23R,0.03150X0.05512*%
%ADD25R,0.05512X0.03150*%
%ADD33R,0.04194X0.03494*%
%ADD53C,0.08268*%
%ADD54O,0.14567X0.07480*%
%ADD55O,0.07087X0.05118*%
%ADD56C,0.04331*%
%ADD57C,0.10236*%
%ADD58C,0.12205*%
%ADD59C,0.08661*%
%ADD60O,0.08268X0.16142*%
%ADD61O,0.16142X0.08268*%
%ADD62C,0.01575*%
%ADD63O,0.07480X0.14567*%
%ADD64C,0.00394*%
%ADD65C,0.02756*%
%ADD172R,0.05039X0.02677*%
%ADD173R,0.03937X0.06693*%
%ADD174R,0.04724X0.02756*%
%ADD175R,0.06693X0.03937*%
G36*
X279000Y40011D02*
X278971Y39982D01*
X276500D01*
X276500Y42200D01*
X278600Y44300D01*
X279400D01*
X281600Y42100D01*
Y39975D01*
X279000Y40011D01*
D02*
G37*
G36*
X311100Y10983D02*
X311129Y11012D01*
X314631D01*
Y9331D01*
X311700Y6400D01*
X310400D01*
X307578Y9222D01*
Y11033D01*
X311100Y10983D01*
D02*
G37*
D19*
X305800Y50950D02*
D03*
Y57250D02*
D03*
X314500Y80250D02*
D03*
X362500Y49850D02*
D03*
X356500D02*
D03*
X351400Y43600D02*
D03*
X308500Y80100D02*
D03*
X351400Y49900D02*
D03*
X356500Y56150D02*
D03*
X362500Y68150D02*
D03*
Y61850D02*
D03*
Y56150D02*
D03*
X356500Y68150D02*
D03*
Y61850D02*
D03*
X362500Y73850D02*
D03*
Y80150D02*
D03*
X356500D02*
D03*
Y73850D02*
D03*
X351000Y80150D02*
D03*
Y73850D02*
D03*
X314500Y73950D02*
D03*
X308500Y73800D02*
D03*
D23*
X310260Y53700D02*
D03*
X317740D02*
D03*
X322760Y85000D02*
D03*
Y91500D02*
D03*
X330240D02*
D03*
Y85000D02*
D03*
X332560Y8500D02*
D03*
X340040D02*
D03*
D25*
X321800Y22800D02*
D03*
X328300Y37840D02*
D03*
X368800Y14360D02*
D03*
X334800Y37840D02*
D03*
X321800D02*
D03*
X368800Y21840D02*
D03*
X334800Y30360D02*
D03*
X328300D02*
D03*
X321800Y15320D02*
D03*
Y30360D02*
D03*
D33*
X315650Y68500D02*
D03*
X309350D02*
D03*
X328350Y22800D02*
D03*
Y16600D02*
D03*
X362050Y43900D02*
D03*
X358050Y26600D02*
D03*
X309350Y62600D02*
D03*
X334650Y16600D02*
D03*
Y22800D02*
D03*
X345350Y8800D02*
D03*
X351650D02*
D03*
X351750Y26600D02*
D03*
X368350Y43900D02*
D03*
X315650Y62600D02*
D03*
D53*
X27693Y123926D02*
D03*
X16402Y140051D02*
D03*
X135081Y87781D02*
D03*
X20472Y246555D02*
D03*
Y293012D02*
D03*
X149000Y101700D02*
D03*
X40157Y246555D02*
D03*
Y293012D02*
D03*
X59055Y358366D02*
D03*
X177165D02*
D03*
X100394Y242224D02*
D03*
X139764D02*
D03*
X80709Y320965D02*
D03*
X159449D02*
D03*
D54*
X147638Y56398D02*
D03*
D55*
X279000Y16783D02*
D03*
Y40405D02*
D03*
Y22689D02*
D03*
Y28594D02*
D03*
X311100Y16889D02*
D03*
Y40511D02*
D03*
Y34606D02*
D03*
Y28700D02*
D03*
Y22794D02*
D03*
Y10983D02*
D03*
X279000Y34500D02*
D03*
Y10878D02*
D03*
D56*
X346087Y98587D02*
D03*
X331913D02*
D03*
X346087Y84413D02*
D03*
D57*
X253000Y309500D02*
D03*
X283000Y329500D02*
D03*
X253000Y339500D02*
D03*
Y269500D02*
D03*
X283000D02*
D03*
X200500Y310000D02*
D03*
X230500Y330000D02*
D03*
X200500Y340000D02*
D03*
X230500Y270000D02*
D03*
X200500D02*
D03*
D58*
X261000Y356500D02*
D03*
X281000D02*
D03*
X228500D02*
D03*
X208500D02*
D03*
X26000Y358500D02*
D03*
Y338500D02*
D03*
D59*
X151969Y13878D02*
D03*
X15748Y188287D02*
D03*
D60*
X170866Y44193D02*
D03*
X33465Y188287D02*
D03*
D61*
X151969Y31594D02*
D03*
X46063Y169390D02*
D03*
D62*
X66053Y76614D02*
D03*
X69665Y73002D02*
D03*
X62441D02*
D03*
X58829Y76614D02*
D03*
X55216Y73002D02*
D03*
X69665Y65777D02*
D03*
X66053Y69390D02*
D03*
Y62165D02*
D03*
X62441Y65777D02*
D03*
X58829Y69390D02*
D03*
Y62165D02*
D03*
X55216Y65777D02*
D03*
D63*
X58268Y192618D02*
D03*
D64*
X93621Y13091D02*
D03*
X105431D02*
D03*
D65*
X230340Y12200D02*
D03*
X127600Y128700D02*
D03*
Y120700D02*
D03*
X47900Y115200D02*
D03*
X203000Y138000D02*
D03*
X192000Y149100D02*
D03*
X52900Y115200D02*
D03*
X209300Y101700D02*
D03*
X220600Y189300D02*
D03*
X266100Y189700D02*
D03*
X250400Y179100D02*
D03*
X232640Y132000D02*
D03*
X265439Y47659D02*
D03*
X258497Y112303D02*
D03*
X256639Y47459D02*
D03*
X247739Y47259D02*
D03*
X204800Y108400D02*
D03*
X209200Y90600D02*
D03*
X209400Y26700D02*
D03*
X181600Y142200D02*
D03*
X169000Y184100D02*
D03*
Y180500D02*
D03*
X165700D02*
D03*
Y176500D02*
D03*
X169000D02*
D03*
X192100Y118700D02*
D03*
X185700D02*
D03*
X50000Y16000D02*
D03*
X43300Y15000D02*
D03*
Y19400D02*
D03*
X224400Y123100D02*
D03*
X201200Y81400D02*
D03*
X207000Y181800D02*
D03*
X204700Y97100D02*
D03*
X216500Y189200D02*
D03*
X334500Y26800D02*
D03*
X328200D02*
D03*
X322000D02*
D03*
X321800Y8560D02*
D03*
X316250Y46350D02*
D03*
X198900Y142300D02*
D03*
X119300Y69600D02*
D03*
X282000Y250000D02*
D03*
X241800Y264300D02*
D03*
X235931Y261431D02*
D03*
X269871Y164032D02*
D03*
X270041Y160500D02*
D03*
X201238Y76453D02*
D03*
X201000Y73000D02*
D03*
X89600Y138700D02*
D03*
X64900Y153800D02*
D03*
X72342Y166634D02*
D03*
X87605Y166869D02*
D03*
X96600Y192700D02*
D03*
X125000Y194100D02*
D03*
X132500Y194200D02*
D03*
X175400Y171000D02*
D03*
X171100Y121800D02*
D03*
X146400Y128100D02*
D03*
X181600Y99100D02*
D03*
X264700Y16000D02*
D03*
X264600Y25600D02*
D03*
X239000Y34100D02*
D03*
X237400Y88500D02*
D03*
X265900Y93000D02*
D03*
Y106300D02*
D03*
X208700Y97100D02*
D03*
X199600Y133400D02*
D03*
X204700Y165800D02*
D03*
X221100Y152000D02*
D03*
X204700Y151500D02*
D03*
X257300Y182400D02*
D03*
X247000Y136900D02*
D03*
X279600Y204600D02*
D03*
X279000Y229000D02*
D03*
X177200Y181400D02*
D03*
X185200D02*
D03*
X211369Y197900D02*
D03*
X191600Y204000D02*
D03*
X216600Y223300D02*
D03*
Y231000D02*
D03*
X182400Y204000D02*
D03*
X200500Y231000D02*
D03*
X256700Y233700D02*
D03*
X256800Y231000D02*
D03*
X209400Y44352D02*
D03*
X66060Y30540D02*
D03*
X24372Y34139D02*
D03*
X24329Y28724D02*
D03*
Y23007D02*
D03*
X24311Y17210D02*
D03*
X258000Y241100D02*
D03*
X90000Y146900D02*
D03*
X83900D02*
D03*
X86800D02*
D03*
X64900Y202400D02*
D03*
X60600D02*
D03*
X56500D02*
D03*
X60400Y178000D02*
D03*
X80500Y146900D02*
D03*
X67800Y178000D02*
D03*
X63900D02*
D03*
X74000Y135100D02*
D03*
X256100Y146200D02*
D03*
D172*
X322643Y53811D02*
D03*
Y78811D02*
D03*
X343588Y48811D02*
D03*
X322643D02*
D03*
X343588Y63811D02*
D03*
X322643Y58811D02*
D03*
Y63811D02*
D03*
Y68811D02*
D03*
Y73811D02*
D03*
X343588Y53811D02*
D03*
Y58811D02*
D03*
Y68811D02*
D03*
Y73811D02*
D03*
Y78811D02*
D03*
D173*
X354009Y33800D02*
D03*
X342591D02*
D03*
D174*
X361818Y14360D02*
D03*
X351582Y18100D02*
D03*
X361818Y21840D02*
D03*
X351582Y14360D02*
D03*
Y21840D02*
D03*
D175*
X370000Y50591D02*
D03*
Y62009D02*
D03*
Y80209D02*
D03*
Y68791D02*
D03*
M02*
