G04*
G04 #@! TF.GenerationSoftware,Altium Limited,Altium Designer,26.3.0 (6)*
G04*
G04 Layer_Color=8421504*
%FSLAX25Y25*%
%MOIN*%
G70*
G04*
G04 #@! TF.SameCoordinates,93A21E67-8BBF-49F2-ADDE-66DC4D57E892*
G04*
G04*
G04 #@! TF.FilePolarity,Positive*
G04*
G01*
G75*
%ADD19R,0.03494X0.04194*%
%ADD20R,0.05512X0.13780*%
%ADD21R,0.12205X0.08268*%
%ADD22R,0.04528X0.02559*%
%ADD23R,0.03150X0.05512*%
%ADD24R,0.06299X0.02362*%
%ADD25R,0.05512X0.03150*%
%ADD26R,0.05118X0.06693*%
%ADD27R,0.13386X0.17717*%
%ADD28R,0.04724X0.03543*%
%ADD29R,0.05118X0.01575*%
%ADD30R,0.01575X0.05118*%
G04:AMPARAMS|DCode=31|XSize=66.93mil|YSize=53.15mil|CornerRadius=0mil|HoleSize=0mil|Usage=FLASHONLY|Rotation=225.000|XOffset=0mil|YOffset=0mil|HoleType=Round|Shape=Rectangle|*
%AMROTATEDRECTD31*
4,1,4,0.00487,0.04245,0.04245,0.00487,-0.00487,-0.04245,-0.04245,-0.00487,0.00487,0.04245,0.0*
%
%ADD31ROTATEDRECTD31*%

%ADD32R,0.03937X0.08268*%
%ADD33R,0.04194X0.03494*%
%ADD34R,0.08268X0.04724*%
%ADD35R,0.02756X0.05748*%
%ADD36R,0.02559X0.04528*%
%ADD37R,0.15748X0.24803*%
%ADD38R,0.06693X0.05118*%
%ADD39R,0.06496X0.05118*%
%ADD40R,0.09252X0.08740*%
%ADD41R,0.01968X0.05709*%
%ADD42R,0.03150X0.06299*%
%ADD43R,0.13386X0.06693*%
%ADD44R,0.08268X0.03937*%
%ADD45R,0.05630X0.05630*%
%ADD46R,0.24803X0.15748*%
%ADD47R,0.17717X0.13386*%
%ADD48R,0.04331X0.02362*%
%ADD49R,0.06693X0.06693*%
%ADD50R,0.04331X0.03543*%
%ADD51R,0.07874X0.07480*%
%ADD52R,0.08661X0.06693*%
D19*
X51181Y139468D02*
D03*
X167400Y150750D02*
D03*
X203150Y128487D02*
D03*
X208268D02*
D03*
X211000Y186300D02*
D03*
X200676Y102106D02*
D03*
X213386Y128487D02*
D03*
X108200Y34200D02*
D03*
X251181Y112303D02*
D03*
X244882D02*
D03*
X186700Y125600D02*
D03*
X193900D02*
D03*
X200676Y108406D02*
D03*
X200700Y90654D02*
D03*
X78100Y15450D02*
D03*
X42913Y24114D02*
D03*
X218504Y128487D02*
D03*
X200700Y96954D02*
D03*
X203150Y122187D02*
D03*
X167400Y144450D02*
D03*
X78100Y21750D02*
D03*
X108200Y27900D02*
D03*
X241400Y253200D02*
D03*
X233465Y258367D02*
D03*
X211000Y192600D02*
D03*
X244882Y106003D02*
D03*
X251181D02*
D03*
X193900Y131900D02*
D03*
X186700D02*
D03*
X51181Y145768D02*
D03*
X233465Y252067D02*
D03*
X241400Y259500D02*
D03*
X42913Y30414D02*
D03*
X218504Y122187D02*
D03*
X208268D02*
D03*
X213386D02*
D03*
X63386Y120571D02*
D03*
Y126871D02*
D03*
D20*
X120079Y123327D02*
D03*
X111811D02*
D03*
D21*
X112205Y178445D02*
D03*
X88583D02*
D03*
D22*
X230500Y30600D02*
D03*
X261500Y255800D02*
D03*
X272524D02*
D03*
X212205Y256004D02*
D03*
X201181D02*
D03*
X219476Y30600D02*
D03*
D23*
X230460Y19600D02*
D03*
X249900Y173700D02*
D03*
X232700Y136700D02*
D03*
X200040Y185400D02*
D03*
X186360Y142200D02*
D03*
X159400Y149900D02*
D03*
X37795Y28995D02*
D03*
Y21514D02*
D03*
Y14427D02*
D03*
X192560Y185400D02*
D03*
X343240Y68500D02*
D03*
X335760D02*
D03*
X257380Y173700D02*
D03*
X240180Y136700D02*
D03*
X193840Y142200D02*
D03*
X237940Y19600D02*
D03*
X151920Y149900D02*
D03*
X30315Y28995D02*
D03*
Y14427D02*
D03*
Y21514D02*
D03*
D24*
X124606Y159567D02*
D03*
X193898Y101929D02*
D03*
X236417Y111929D02*
D03*
X193898D02*
D03*
Y96929D02*
D03*
X214764D02*
D03*
X102953Y154567D02*
D03*
X172244Y96929D02*
D03*
X214764Y111929D02*
D03*
Y101929D02*
D03*
Y106929D02*
D03*
X172244Y101929D02*
D03*
X102953Y149567D02*
D03*
X193898Y106929D02*
D03*
X172244D02*
D03*
Y111929D02*
D03*
X236417Y106929D02*
D03*
Y101929D02*
D03*
Y96929D02*
D03*
X102953Y159567D02*
D03*
X124606Y154567D02*
D03*
Y149567D02*
D03*
Y144567D02*
D03*
X102953D02*
D03*
D25*
X125591Y176870D02*
D03*
X132283D02*
D03*
X265220Y41587D02*
D03*
X256559D02*
D03*
X247898D02*
D03*
X185433Y192815D02*
D03*
X177319D02*
D03*
X168000Y173040D02*
D03*
X185433Y185335D02*
D03*
X177319D02*
D03*
X132283Y184350D02*
D03*
X125591D02*
D03*
X256559Y34106D02*
D03*
X247898D02*
D03*
X265220D02*
D03*
X168000Y165560D02*
D03*
X89600Y158080D02*
D03*
X81502D02*
D03*
X89600Y150600D02*
D03*
X81502D02*
D03*
D26*
X141339Y159547D02*
D03*
X159449D02*
D03*
X150394D02*
D03*
D27*
X154527Y64075D02*
D03*
D28*
X47854Y124114D02*
D03*
X342500Y50800D02*
D03*
X335059Y47060D02*
D03*
X342500Y43320D02*
D03*
X247638Y252067D02*
D03*
X227343Y259350D02*
D03*
X55295Y127854D02*
D03*
X59320Y30540D02*
D03*
X227343Y251870D02*
D03*
X255079Y255807D02*
D03*
X247638Y259547D02*
D03*
X51880Y26800D02*
D03*
X219902Y255610D02*
D03*
X55295Y120374D02*
D03*
X59320Y23060D02*
D03*
D29*
X230513Y164862D02*
D03*
Y162894D02*
D03*
Y153051D02*
D03*
Y170768D02*
D03*
X197048Y155020D02*
D03*
X230513Y166831D02*
D03*
Y160925D02*
D03*
Y158957D02*
D03*
Y156988D02*
D03*
Y155020D02*
D03*
Y151083D02*
D03*
Y149114D02*
D03*
X197048D02*
D03*
Y151083D02*
D03*
Y153051D02*
D03*
Y158957D02*
D03*
Y164862D02*
D03*
Y166831D02*
D03*
Y168799D02*
D03*
Y170768D02*
D03*
Y160925D02*
D03*
Y162894D02*
D03*
X230513Y168799D02*
D03*
X197048Y156988D02*
D03*
D30*
X224607Y143209D02*
D03*
X202954Y176673D02*
D03*
X214765D02*
D03*
X212796D02*
D03*
X206891D02*
D03*
X208859D02*
D03*
X210828D02*
D03*
X216733D02*
D03*
X218702D02*
D03*
X220670D02*
D03*
X222639D02*
D03*
X224607D02*
D03*
X220670Y143209D02*
D03*
X218702D02*
D03*
X216733D02*
D03*
X214765D02*
D03*
X212796D02*
D03*
X210828D02*
D03*
X208859D02*
D03*
X206891D02*
D03*
X204922D02*
D03*
X202954D02*
D03*
X204922Y176673D02*
D03*
X222639Y143209D02*
D03*
D31*
X171875Y158724D02*
D03*
X188300Y162900D02*
D03*
X182176Y169025D02*
D03*
X178000Y152600D02*
D03*
D32*
X47913Y106791D02*
D03*
X52913D02*
D03*
X37913Y39862D02*
D03*
X32913Y106791D02*
D03*
Y39862D02*
D03*
X42913D02*
D03*
X47913D02*
D03*
X52913D02*
D03*
X57913D02*
D03*
X62913D02*
D03*
X67913D02*
D03*
X72913D02*
D03*
X77913D02*
D03*
X82913D02*
D03*
X87913D02*
D03*
X92913D02*
D03*
X97913D02*
D03*
Y106791D02*
D03*
X92913D02*
D03*
X87913D02*
D03*
X82913D02*
D03*
X77913D02*
D03*
X72913D02*
D03*
X67913D02*
D03*
X62913D02*
D03*
X57913D02*
D03*
X42913D02*
D03*
X37913D02*
D03*
D33*
X177400Y136300D02*
D03*
Y130788D02*
D03*
X264250Y246400D02*
D03*
X250000Y164700D02*
D03*
Y159600D02*
D03*
X182200Y177200D02*
D03*
X251182Y96949D02*
D03*
X249999Y152854D02*
D03*
X247638Y246555D02*
D03*
X342050Y58800D02*
D03*
X336200Y38300D02*
D03*
X256300Y159600D02*
D03*
X256299Y152854D02*
D03*
X256300Y164700D02*
D03*
X335750Y58800D02*
D03*
X342500Y38300D02*
D03*
X175900Y177200D02*
D03*
X171100Y136300D02*
D03*
Y130788D02*
D03*
X241338Y246555D02*
D03*
X257950Y246400D02*
D03*
X66050Y23400D02*
D03*
X72350D02*
D03*
X117717Y135138D02*
D03*
X111417D02*
D03*
X244882Y96949D02*
D03*
D34*
X248500Y209700D02*
D03*
Y219700D02*
D03*
Y189700D02*
D03*
Y199700D02*
D03*
Y229700D02*
D03*
D35*
X209400Y30900D02*
D03*
X213140D02*
D03*
Y40152D02*
D03*
X205660Y30900D02*
D03*
Y40152D02*
D03*
X209400D02*
D03*
D36*
X159400Y130912D02*
D03*
Y119888D02*
D03*
X83900Y197476D02*
D03*
Y208500D02*
D03*
D37*
X126575Y28839D02*
D03*
X177362D02*
D03*
D38*
X147638Y217441D02*
D03*
D39*
Y196929D02*
D03*
X112992Y217441D02*
D03*
Y196929D02*
D03*
D40*
X95802Y123200D02*
D03*
X78598D02*
D03*
D41*
X210630Y19390D02*
D03*
X208071D02*
D03*
X202953D02*
D03*
X205512D02*
D03*
X213189D02*
D03*
D42*
X90668Y19980D02*
D03*
X102479D02*
D03*
X108384D02*
D03*
D43*
X150394Y184744D02*
D03*
D44*
X101850Y50827D02*
D03*
Y55827D02*
D03*
Y60827D02*
D03*
Y65827D02*
D03*
Y70827D02*
D03*
Y75827D02*
D03*
Y80827D02*
D03*
Y85827D02*
D03*
Y90827D02*
D03*
Y95827D02*
D03*
D45*
X69665Y76614D02*
D03*
X62441D02*
D03*
X69665Y69390D02*
D03*
X55216Y76614D02*
D03*
X62441Y69390D02*
D03*
Y62165D02*
D03*
X69665D02*
D03*
X55216Y69390D02*
D03*
Y62165D02*
D03*
D46*
X30709Y162894D02*
D03*
Y213681D02*
D03*
D47*
X65945Y185728D02*
D03*
D48*
X164173Y107579D02*
D03*
Y111909D02*
D03*
D49*
X98087Y217815D02*
D03*
X83914D02*
D03*
D50*
X113896Y17028D02*
D03*
X85156D02*
D03*
X113896Y9154D02*
D03*
X85156D02*
D03*
D51*
X223031Y8169D02*
D03*
X193110D02*
D03*
D52*
X220276Y18907D02*
D03*
X195866D02*
D03*
M02*
