G04*
G04 #@! TF.GenerationSoftware,Altium Limited,Altium Designer,26.3.0 (6)*
G04*
G04 Layer_Color=128*
%FSLAX25Y25*%
%MOIN*%
G70*
G04*
G04 #@! TF.SameCoordinates,93A21E67-8BBF-49F2-ADDE-66DC4D57E892*
G04*
G04*
G04 #@! TF.FilePolarity,Positive*
G04*
G01*
G75*
%ADD177C,0.00500*%
D177*
X26118Y123926D02*
X29267D01*
X27693Y122351D02*
Y125501D01*
X14827Y140051D02*
X17977D01*
X16402Y138476D02*
Y141625D01*
X145276Y56398D02*
X150000D01*
X147638Y54035D02*
Y58760D01*
X277287Y16783D02*
X280713D01*
X279000Y15071D02*
Y18496D01*
X277287Y40405D02*
X280713D01*
X279000Y38693D02*
Y42118D01*
X277287Y22689D02*
X280713D01*
X279000Y20976D02*
Y24402D01*
X277287Y28594D02*
X280713D01*
X279000Y26882D02*
Y30307D01*
X345102Y98587D02*
X347071D01*
X346087Y97602D02*
Y99571D01*
X330929Y98587D02*
X332898D01*
X331913Y97602D02*
Y99571D01*
X345102Y84413D02*
X347071D01*
X346087Y83429D02*
Y85398D01*
X309387Y16889D02*
X312813D01*
X311100Y15176D02*
Y18602D01*
X309387Y40511D02*
X312813D01*
X311100Y38798D02*
Y42224D01*
X309387Y34606D02*
X312813D01*
X311100Y32893D02*
Y36318D01*
X309387Y28700D02*
X312813D01*
X311100Y26987D02*
Y30413D01*
X309387Y22794D02*
X312813D01*
X311100Y21082D02*
Y24507D01*
X309387Y10983D02*
X312813D01*
X311100Y9271D02*
Y12696D01*
X250441Y309500D02*
X255559D01*
X253000Y306941D02*
Y312059D01*
X280441Y329500D02*
X285559D01*
X283000Y326941D02*
Y332059D01*
X250441Y339500D02*
X255559D01*
X253000Y336941D02*
Y342059D01*
X250441Y269500D02*
X255559D01*
X253000Y266941D02*
Y272059D01*
X280441Y269500D02*
X285559D01*
X283000Y266941D02*
Y272059D01*
X197941Y310000D02*
X203059D01*
X200500Y307441D02*
Y312559D01*
X227941Y330000D02*
X233059D01*
X230500Y327441D02*
Y332559D01*
X197941Y340000D02*
X203059D01*
X200500Y337441D02*
Y342559D01*
X227941Y270000D02*
X233059D01*
X230500Y267441D02*
Y272559D01*
X197941Y270000D02*
X203059D01*
X200500Y267441D02*
Y272559D01*
X257555Y356500D02*
X264445D01*
X261000Y353055D02*
Y359945D01*
X277555Y356500D02*
X284445D01*
X281000Y353055D02*
Y359945D01*
X147835Y13878D02*
X156102D01*
X151969Y9744D02*
Y18012D01*
X168504Y44193D02*
X173228D01*
X170866Y41831D02*
Y46555D01*
X150000Y31594D02*
X153937D01*
X151969Y29626D02*
Y33563D01*
X277287Y34500D02*
X280713D01*
X279000Y32787D02*
Y36213D01*
X133112Y87781D02*
X137049D01*
X135081Y85812D02*
Y89749D01*
X65659Y76614D02*
X66447D01*
X66053Y76221D02*
Y77008D01*
X69272Y73002D02*
X70059D01*
X69665Y72608D02*
Y73396D01*
X62047Y73002D02*
X62835D01*
X62441Y72608D02*
Y73396D01*
X43701Y169390D02*
X48425D01*
X46063Y167027D02*
Y171752D01*
X31496Y188287D02*
X35433D01*
X33465Y186319D02*
Y190256D01*
X18504Y246555D02*
X22441D01*
X20472Y244587D02*
Y248524D01*
X18504Y293012D02*
X22441D01*
X20472Y291043D02*
Y294980D01*
X58435Y76614D02*
X59222D01*
X58829Y76221D02*
Y77008D01*
X54823Y73002D02*
X55610D01*
X55216Y72608D02*
Y73396D01*
X69272Y65777D02*
X70059D01*
X69665Y65384D02*
Y66171D01*
X65659Y69390D02*
X66447D01*
X66053Y68996D02*
Y69784D01*
X65659Y62165D02*
X66447D01*
X66053Y61772D02*
Y62559D01*
X62047Y65777D02*
X62835D01*
X62441Y65384D02*
Y66171D01*
X58435Y69390D02*
X59222D01*
X58829Y68996D02*
Y69784D01*
X58435Y62165D02*
X59222D01*
X58829Y61772D02*
Y62559D01*
X54823Y65777D02*
X55610D01*
X55216Y65384D02*
Y66171D01*
X147031Y101700D02*
X150969D01*
X149000Y99731D02*
Y103668D01*
X55905Y192618D02*
X60630D01*
X58268Y190256D02*
Y194980D01*
X38189Y246555D02*
X42126D01*
X40157Y244587D02*
Y248524D01*
X38189Y293012D02*
X42126D01*
X40157Y291043D02*
Y294980D01*
X225055Y356500D02*
X231945D01*
X228500Y353055D02*
Y359945D01*
X205055Y356500D02*
X211945D01*
X208500Y353055D02*
Y359945D01*
X56890Y358366D02*
X61221D01*
X59055Y356201D02*
Y360531D01*
X175000Y358366D02*
X179331D01*
X177165Y356201D02*
Y360531D01*
X22555Y358500D02*
X29445D01*
X26000Y355055D02*
Y361945D01*
X22555Y338500D02*
X29445D01*
X26000Y335055D02*
Y341945D01*
X277287Y10878D02*
X280713D01*
X279000Y9165D02*
Y12591D01*
X11614Y188287D02*
X19882D01*
X15748Y184153D02*
Y192421D01*
X91849Y13091D02*
X95392D01*
X93621Y11319D02*
Y14862D01*
X103660Y13091D02*
X107203D01*
X105431Y11319D02*
Y14862D01*
X98425Y242224D02*
X102362D01*
X100394Y240256D02*
Y244193D01*
X137795Y242224D02*
X141732D01*
X139764Y240256D02*
Y244193D01*
X78740Y320965D02*
X82677D01*
X80709Y318996D02*
Y322933D01*
X157480Y320965D02*
X161417D01*
X159449Y318996D02*
Y322933D01*
X55811Y140000D02*
X57189D01*
X56500Y139311D02*
Y140689D01*
X229651Y12200D02*
X231029D01*
X230340Y11511D02*
Y12889D01*
X126911Y124600D02*
X128289D01*
X127600Y123911D02*
Y125289D01*
X126911Y128700D02*
X128289D01*
X127600Y128011D02*
Y129389D01*
X126911Y120700D02*
X128289D01*
X127600Y120011D02*
Y121389D01*
X47400Y115200D02*
X48400D01*
X47900Y114700D02*
Y115700D01*
X202500Y138000D02*
X203500D01*
X203000Y137500D02*
Y138500D01*
X191500Y149100D02*
X192500D01*
X192000Y148600D02*
Y149600D01*
X52400Y115200D02*
X53400D01*
X52900Y114700D02*
Y115700D01*
X208611Y101700D02*
X209989D01*
X209300Y101011D02*
Y102389D01*
X219911Y189300D02*
X221289D01*
X220600Y188611D02*
Y189989D01*
X265411Y189700D02*
X266789D01*
X266100Y189011D02*
Y190389D01*
X249711Y179100D02*
X251089D01*
X250400Y178411D02*
Y179789D01*
X231951Y132000D02*
X233329D01*
X232640Y131311D02*
Y132689D01*
X264750Y47659D02*
X266128D01*
X265439Y46970D02*
Y48348D01*
X257997Y112303D02*
X258997D01*
X258497Y111803D02*
Y112803D01*
X255950Y47459D02*
X257328D01*
X256639Y46770D02*
Y48148D01*
X247050Y47259D02*
X248428D01*
X247739Y46570D02*
Y47948D01*
X204111Y108400D02*
X205489D01*
X204800Y107711D02*
Y109089D01*
X208511Y90600D02*
X209889D01*
X209200Y89911D02*
Y91289D01*
X208900Y26700D02*
X209900D01*
X209400Y26200D02*
Y27200D01*
X181100Y142200D02*
X182100D01*
X181600Y141700D02*
Y142700D01*
X168500Y184100D02*
X169500D01*
X169000Y183600D02*
Y184600D01*
X168500Y180500D02*
X169500D01*
X169000Y180000D02*
Y181000D01*
X165200Y180500D02*
X166200D01*
X165700Y180000D02*
Y181000D01*
X165200Y176500D02*
X166200D01*
X165700Y176000D02*
Y177000D01*
X168500Y176500D02*
X169500D01*
X169000Y176000D02*
Y177000D01*
X191411Y118700D02*
X192789D01*
X192100Y118011D02*
Y119389D01*
X185011Y118700D02*
X186389D01*
X185700Y118011D02*
Y119389D01*
X49500Y16000D02*
X50500D01*
X50000Y15500D02*
Y16500D01*
X42800Y15000D02*
X43800D01*
X43300Y14500D02*
Y15500D01*
X42800Y19400D02*
X43800D01*
X43300Y18900D02*
Y19900D01*
X223900Y123100D02*
X224900D01*
X224400Y122600D02*
Y123600D01*
X200700Y81400D02*
X201700D01*
X201200Y80900D02*
Y81900D01*
X206500Y181800D02*
X207500D01*
X207000Y181300D02*
Y182300D01*
X204011Y97100D02*
X205389D01*
X204700Y96411D02*
Y97789D01*
X215811Y189200D02*
X217189D01*
X216500Y188511D02*
Y189889D01*
X334000Y26800D02*
X335000D01*
X334500Y26300D02*
Y27300D01*
X327700Y26800D02*
X328700D01*
X328200Y26300D02*
Y27300D01*
X321500Y26800D02*
X322500D01*
X322000Y26300D02*
Y27300D01*
X321300Y8560D02*
X322300D01*
X321800Y8060D02*
Y9060D01*
X315750Y46350D02*
X316750D01*
X316250Y45850D02*
Y46850D01*
X198400Y142300D02*
X199400D01*
X198900Y141800D02*
Y142800D01*
X118800Y69600D02*
X119800D01*
X119300Y69100D02*
Y70100D01*
X281500Y250000D02*
X282500D01*
X282000Y249500D02*
Y250500D01*
X241300Y264300D02*
X242300D01*
X241800Y263800D02*
Y264800D01*
X235431Y261431D02*
X236431D01*
X235931Y260931D02*
Y261931D01*
X269371Y164032D02*
X270371D01*
X269871Y163532D02*
Y164532D01*
X269541Y160500D02*
X270541D01*
X270041Y160000D02*
Y161000D01*
X200738Y76453D02*
X201738D01*
X201238Y75953D02*
Y76953D01*
X200500Y73000D02*
X201500D01*
X201000Y72500D02*
Y73500D01*
X89100Y138700D02*
X90100D01*
X89600Y138200D02*
Y139200D01*
X64400Y153800D02*
X65400D01*
X64900Y153300D02*
Y154300D01*
X71842Y166634D02*
X72843D01*
X72342Y166134D02*
Y167134D01*
X87105Y166869D02*
X88105D01*
X87605Y166369D02*
Y167369D01*
X96100Y192700D02*
X97100D01*
X96600Y192200D02*
Y193200D01*
X124500Y194100D02*
X125500D01*
X125000Y193600D02*
Y194600D01*
X132000Y194200D02*
X133000D01*
X132500Y193700D02*
Y194700D01*
X174900Y171000D02*
X175900D01*
X175400Y170500D02*
Y171500D01*
X170600Y121800D02*
X171600D01*
X171100Y121300D02*
Y122300D01*
X145900Y128100D02*
X146900D01*
X146400Y127600D02*
Y128600D01*
X181100Y99100D02*
X182100D01*
X181600Y98600D02*
Y99600D01*
X264200Y16000D02*
X265200D01*
X264700Y15500D02*
Y16500D01*
X264100Y25600D02*
X265100D01*
X264600Y25100D02*
Y26100D01*
X238500Y34100D02*
X239500D01*
X239000Y33600D02*
Y34600D01*
X236900Y88500D02*
X237900D01*
X237400Y88000D02*
Y89000D01*
X265400Y93000D02*
X266400D01*
X265900Y92500D02*
Y93500D01*
X265400Y106300D02*
X266400D01*
X265900Y105800D02*
Y106800D01*
X208200Y97100D02*
X209200D01*
X208700Y96600D02*
Y97600D01*
X199100Y133400D02*
X200100D01*
X199600Y132900D02*
Y133900D01*
X204200Y165800D02*
X205200D01*
X204700Y165300D02*
Y166300D01*
X220600Y152000D02*
X221600D01*
X221100Y151500D02*
Y152500D01*
X204200Y151500D02*
X205200D01*
X204700Y151000D02*
Y152000D01*
X256800Y182400D02*
X257800D01*
X257300Y181900D02*
Y182900D01*
X246500Y136900D02*
X247500D01*
X247000Y136400D02*
Y137400D01*
X279100Y204600D02*
X280100D01*
X279600Y204100D02*
Y205100D01*
X278500Y229000D02*
X279500D01*
X279000Y228500D02*
Y229500D01*
X176700Y181400D02*
X177700D01*
X177200Y180900D02*
Y181900D01*
X184700Y181400D02*
X185700D01*
X185200Y180900D02*
Y181900D01*
X210869Y197900D02*
X211869D01*
X211369Y197400D02*
Y198400D01*
X191100Y204000D02*
X192100D01*
X191600Y203500D02*
Y204500D01*
X216100Y223300D02*
X217100D01*
X216600Y222800D02*
Y223800D01*
X216100Y231000D02*
X217100D01*
X216600Y230500D02*
Y231500D01*
X181900Y204000D02*
X182900D01*
X182400Y203500D02*
Y204500D01*
X200000Y231000D02*
X201000D01*
X200500Y230500D02*
Y231500D01*
X256200Y233700D02*
X257200D01*
X256700Y233200D02*
Y234200D01*
X256300Y231000D02*
X257300D01*
X256800Y230500D02*
Y231500D01*
X208900Y44352D02*
X209900D01*
X209400Y43852D02*
Y44852D01*
X65560Y30540D02*
X66560D01*
X66060Y30040D02*
Y31040D01*
X23872Y34139D02*
X24872D01*
X24372Y33639D02*
Y34639D01*
X23829Y28724D02*
X24829D01*
X24329Y28224D02*
Y29224D01*
X23829Y23007D02*
X24829D01*
X24329Y22507D02*
Y23507D01*
X23811Y17210D02*
X24811D01*
X24311Y16710D02*
Y17709D01*
X257500Y241100D02*
X258500D01*
X258000Y240600D02*
Y241600D01*
X89311Y146900D02*
X90689D01*
X90000Y146211D02*
Y147589D01*
X83211Y146900D02*
X84589D01*
X83900Y146211D02*
Y147589D01*
X86111Y146900D02*
X87489D01*
X86800Y146211D02*
Y147589D01*
X64211Y202400D02*
X65589D01*
X64900Y201711D02*
Y203089D01*
X59911Y202400D02*
X61289D01*
X60600Y201711D02*
Y203089D01*
X55811Y202400D02*
X57189D01*
X56500Y201711D02*
Y203089D01*
X59711Y178000D02*
X61089D01*
X60400Y177311D02*
Y178689D01*
X79811Y146900D02*
X81189D01*
X80500Y146211D02*
Y147589D01*
X67111Y178000D02*
X68489D01*
X67800Y177311D02*
Y178689D01*
X63211Y178000D02*
X64589D01*
X63900Y177311D02*
Y178689D01*
X73311Y135100D02*
X74689D01*
X74000Y134411D02*
Y135789D01*
X255411Y146200D02*
X256789D01*
X256100Y145511D02*
Y146889D01*
M02*
