G04*
G04 #@! TF.GenerationSoftware,Altium Limited,Altium Designer,26.3.0 (6)*
G04*
G04 Layer_Color=128*
%FSLAX25Y25*%
%MOIN*%
G70*
G04*
G04 #@! TF.SameCoordinates,93A21E67-8BBF-49F2-ADDE-66DC4D57E892*
G04*
G04*
G04 #@! TF.FilePolarity,Positive*
G04*
G01*
G75*
%ADD19R,0.03494X0.04194*%
%ADD23R,0.03150X0.05512*%
%ADD25R,0.05512X0.03150*%
%ADD33R,0.04194X0.03494*%
%ADD172R,0.05039X0.02677*%
%ADD173R,0.03937X0.06693*%
%ADD174R,0.04724X0.02756*%
%ADD175R,0.06693X0.03937*%
D19*
X305800Y50950D02*
D03*
Y57250D02*
D03*
X314500Y80250D02*
D03*
X362500Y49850D02*
D03*
X356500D02*
D03*
X351400Y43600D02*
D03*
X308500Y80100D02*
D03*
X351400Y49900D02*
D03*
X356500Y56150D02*
D03*
X362500Y68150D02*
D03*
Y61850D02*
D03*
Y56150D02*
D03*
X356500Y68150D02*
D03*
Y61850D02*
D03*
X362500Y73850D02*
D03*
Y80150D02*
D03*
X356500D02*
D03*
Y73850D02*
D03*
X351000Y80150D02*
D03*
Y73850D02*
D03*
X314500Y73950D02*
D03*
X308500Y73800D02*
D03*
D23*
X310260Y53700D02*
D03*
X317740D02*
D03*
X322760Y85000D02*
D03*
Y91500D02*
D03*
X330240D02*
D03*
Y85000D02*
D03*
X332560Y8500D02*
D03*
X340040D02*
D03*
D25*
X321800Y22800D02*
D03*
X328300Y37840D02*
D03*
X368800Y14360D02*
D03*
X334800Y37840D02*
D03*
X321800D02*
D03*
X368800Y21840D02*
D03*
X334800Y30360D02*
D03*
X328300D02*
D03*
X321800Y15320D02*
D03*
Y30360D02*
D03*
D33*
X315650Y68500D02*
D03*
X309350D02*
D03*
X328350Y22800D02*
D03*
Y16600D02*
D03*
X362050Y43900D02*
D03*
X358050Y26600D02*
D03*
X309350Y62600D02*
D03*
X334650Y16600D02*
D03*
Y22800D02*
D03*
X345350Y8800D02*
D03*
X351650D02*
D03*
X351750Y26600D02*
D03*
X368350Y43900D02*
D03*
X315650Y62600D02*
D03*
D172*
X322643Y53811D02*
D03*
Y78811D02*
D03*
X343588Y48811D02*
D03*
X322643D02*
D03*
X343588Y63811D02*
D03*
X322643Y58811D02*
D03*
Y63811D02*
D03*
Y68811D02*
D03*
Y73811D02*
D03*
X343588Y53811D02*
D03*
Y58811D02*
D03*
Y68811D02*
D03*
Y73811D02*
D03*
Y78811D02*
D03*
D173*
X354009Y33800D02*
D03*
X342591D02*
D03*
D174*
X361818Y14360D02*
D03*
X351582Y18100D02*
D03*
X361818Y21840D02*
D03*
X351582Y14360D02*
D03*
Y21840D02*
D03*
D175*
X370000Y50591D02*
D03*
Y62009D02*
D03*
Y80209D02*
D03*
Y68791D02*
D03*
M02*
