G04*
G04 #@! TF.GenerationSoftware,Altium Limited,Altium Designer,26.3.0 (6)*
G04*
G04 Layer_Physical_Order=2*
G04 Layer_Color=32768*
%FSLAX25Y25*%
%MOIN*%
G70*
G04*
G04 #@! TF.SameCoordinates,93A21E67-8BBF-49F2-ADDE-66DC4D57E892*
G04*
G04*
G04 #@! TF.FilePolarity,Negative*
G04*
G01*
G75*
%ADD121C,0.07300*%
%ADD122C,0.04000*%
%ADD123R,0.03500X0.04000*%
%ADD124R,0.07000X0.09400*%
%ADD125R,0.06800X0.10500*%
%ADD126R,0.02100X0.02200*%
%ADD127R,0.02100X0.02000*%
%ADD128R,0.01900X0.01900*%
%ADD129R,0.02200X0.01900*%
%ADD130R,0.29200X0.77000*%
%ADD131R,0.60600X0.74800*%
%ADD132R,2.43400X0.95800*%
%ADD133R,1.31800X1.57400*%
%ADD134C,0.09150*%
%ADD135O,0.11906X0.10724*%
%ADD136C,0.09425*%
%ADD137C,0.07969*%
G04:AMPARAMS|DCode=138|XSize=69.685mil|YSize=69.685mil|CornerRadius=0mil|HoleSize=0mil|Usage=FLASHONLY|Rotation=0.000|XOffset=0mil|YOffset=0mil|HoleType=Round|Shape=Relief|Width=15mil|Gap=10mil|Entries=4|*
%AMTHD138*
7,0,0,0.06969,0.04969,0.01500,45*
%
%ADD138THD138*%
%ADD139C,0.11118*%
%ADD140C,0.12890*%
%ADD141C,0.14268*%
%AMTHOVALD142*
21,1,0.07087,0.09724,0,0,270.0*
1,1,0.09724,0.00000,0.03543*
1,1,0.09724,0.00000,-0.03543*
21,0,0.07087,0.07724,0,0,270.0*
1,0,0.07724,0.00000,0.03543*
1,0,0.07724,0.00000,-0.03543*
4,0,4,-0.00530,0.03013,-0.03968,0.06451,-0.02908,0.07512,0.00530,0.04074,-0.00530,0.03013,0.0*
4,0,4,-0.00530,-0.04074,0.02908,-0.07512,0.03968,-0.06451,0.00530,-0.03013,-0.00530,-0.04074,0.0*
4,0,4,-0.00530,0.04074,0.02908,0.07512,0.03968,0.06451,0.00530,0.03013,-0.00530,0.04074,0.0*
4,0,4,-0.00530,-0.03013,-0.03968,-0.06451,-0.02908,-0.07512,0.00530,-0.04074,-0.00530,-0.03013,0.0*
%
%ADD142THOVALD142*%

%AMTHOVALD143*
21,1,0.07874,0.08937,0,0,180.0*
1,1,0.08937,0.03937,0.00000*
1,1,0.08937,-0.03937,0.00000*
21,0,0.07874,0.06937,0,0,180.0*
1,0,0.06937,0.03937,0.00000*
1,0,0.06937,-0.03937,0.00000*
4,0,4,0.03407,0.00530,0.06566,0.03690,0.07627,0.02629,0.04467,-0.00530,0.03407,0.00530,0.0*
4,0,4,-0.04467,0.00530,-0.07627,-0.02629,-0.06566,-0.03690,-0.03407,-0.00530,-0.04467,0.00530,0.0*
4,0,4,0.04467,0.00530,0.07627,-0.02629,0.06566,-0.03690,0.03407,-0.00530,0.04467,0.00530,0.0*
4,0,4,-0.03407,0.00530,-0.06566,0.03690,-0.07627,0.02629,-0.04467,-0.00530,-0.03407,0.00530,0.0*
%
%ADD143THOVALD143*%

G04:AMPARAMS|DCode=144|XSize=89.37mil|YSize=89.37mil|CornerRadius=0mil|HoleSize=0mil|Usage=FLASHONLY|Rotation=0.000|XOffset=0mil|YOffset=0mil|HoleType=Round|Shape=Relief|Width=15mil|Gap=10mil|Entries=4|*
%AMTHD144*
7,0,0,0.08937,0.06937,0.01500,45*
%
%ADD144THD144*%
G04:AMPARAMS|DCode=145|XSize=57.874mil|YSize=57.874mil|CornerRadius=0mil|HoleSize=0mil|Usage=FLASHONLY|Rotation=0.000|XOffset=0mil|YOffset=0mil|HoleType=Round|Shape=Relief|Width=15mil|Gap=10mil|Entries=4|*
%AMTHD145*
7,0,0,0.05787,0.03787,0.01500,45*
%
%ADD145THD145*%
%AMTHOVALD146*
21,1,0.07087,0.09724,0,0,180.0*
1,1,0.09724,0.03543,0.00000*
1,1,0.09724,-0.03543,0.00000*
21,0,0.07087,0.07724,0,0,180.0*
1,0,0.07724,0.03543,0.00000*
1,0,0.07724,-0.03543,0.00000*
4,0,4,0.03013,0.00530,0.06451,0.03968,0.07512,0.02908,0.04074,-0.00530,0.03013,0.00530,0.0*
4,0,4,-0.04074,0.00530,-0.07512,-0.02908,-0.06451,-0.03968,-0.03013,-0.00530,-0.04074,0.00530,0.0*
4,0,4,0.04074,0.00530,0.07512,-0.02908,0.06451,-0.03968,0.03013,-0.00530,0.04074,0.00530,0.0*
4,0,4,-0.03013,0.00530,-0.06451,0.03968,-0.07512,0.02908,-0.04074,-0.00530,-0.03013,0.00530,0.0*
%
%ADD146THOVALD146*%

%AMTHOVALD147*
21,1,0.07874,0.08937,0,0,90.0*
1,1,0.08937,0.00000,-0.03937*
1,1,0.08937,0.00000,0.03937*
21,0,0.07874,0.06937,0,0,90.0*
1,0,0.06937,0.00000,-0.03937*
1,0,0.06937,0.00000,0.03937*
4,0,4,0.00530,-0.03407,0.03690,-0.06566,0.02629,-0.07627,-0.00530,-0.04467,0.00530,-0.03407,0.0*
4,0,4,0.00530,0.04467,-0.02629,0.07627,-0.03690,0.06566,-0.00530,0.03407,0.00530,0.04467,0.0*
4,0,4,0.00530,-0.04467,-0.02629,-0.07627,-0.03690,-0.06566,-0.00530,-0.03407,0.00530,-0.04467,0.0*
4,0,4,0.00530,0.03407,0.03690,0.06566,0.02629,0.07627,-0.00530,0.04467,0.00530,0.03407,0.0*
%
%ADD147THOVALD147*%

%ADD148C,0.09937*%
%ADD149O,0.10724X0.11906*%
%ADD150C,0.10331*%
%ADD151C,0.09543*%
%ADD152C,0.07378*%
%ADD153C,0.07000*%
G04:AMPARAMS|DCode=154|XSize=60mil|YSize=60mil|CornerRadius=0mil|HoleSize=0mil|Usage=FLASHONLY|Rotation=0.000|XOffset=0mil|YOffset=0mil|HoleType=Round|Shape=Relief|Width=15mil|Gap=10mil|Entries=4|*
%AMTHD154*
7,0,0,0.06000,0.04000,0.01500,45*
%
%ADD154THD154*%
D121*
X297600Y379339D02*
X297600Y2000D01*
D122*
X0Y0D02*
X391100D01*
Y126132D01*
X297500D02*
X391100D01*
X297500D02*
X297500Y381000D01*
X0D02*
X297500D01*
X0Y0D02*
Y381000D01*
D123*
X209150Y97000D02*
D03*
D124*
X279000Y35800D02*
D03*
D125*
X311000Y36650D02*
D03*
D126*
X66050Y65800D02*
D03*
D127*
X58850D02*
D03*
X58950Y73000D02*
D03*
D128*
X62350Y69450D02*
D03*
D129*
X66000Y73050D02*
D03*
D130*
X15300Y73000D02*
D03*
D131*
X30800Y342900D02*
D03*
D132*
X176700Y334500D02*
D03*
D133*
X120200Y304300D02*
D03*
D134*
X27693Y123926D02*
D03*
X16402Y140051D02*
D03*
D135*
X147638Y56398D02*
D03*
D136*
X279000Y16783D02*
D03*
Y40405D02*
D03*
Y22689D02*
D03*
Y28594D02*
D03*
X311100Y16889D02*
D03*
Y40511D02*
D03*
Y34606D02*
D03*
Y28700D02*
D03*
Y22794D02*
D03*
Y10983D02*
D03*
X279000Y34500D02*
D03*
Y10878D02*
D03*
D137*
X346087Y98587D02*
D03*
Y84413D02*
D03*
D138*
X331913Y98587D02*
D03*
D139*
X253000Y309500D02*
D03*
X283000Y329500D02*
D03*
X253000Y339500D02*
D03*
Y269500D02*
D03*
X283000D02*
D03*
X200500Y310000D02*
D03*
X230500Y330000D02*
D03*
X200500Y340000D02*
D03*
X230500Y270000D02*
D03*
X200500D02*
D03*
D140*
X261000Y356500D02*
D03*
X281000D02*
D03*
X228500D02*
D03*
X208500D02*
D03*
X26000Y358500D02*
D03*
Y338500D02*
D03*
D141*
X151969Y13878D02*
D03*
X15748Y188287D02*
D03*
D142*
X170866Y44193D02*
D03*
D143*
X151969Y31594D02*
D03*
D144*
X135081Y87781D02*
D03*
X20472Y246555D02*
D03*
Y293012D02*
D03*
D145*
X66053Y76614D02*
D03*
X69665Y73002D02*
D03*
X62441D02*
D03*
X58829Y76614D02*
D03*
X55216Y73002D02*
D03*
X69665Y65777D02*
D03*
X66053Y69390D02*
D03*
Y62165D02*
D03*
X62441Y65777D02*
D03*
X58829Y69390D02*
D03*
Y62165D02*
D03*
X55216Y65777D02*
D03*
D146*
X46063Y169390D02*
D03*
D147*
X33465Y188287D02*
D03*
D148*
X149000Y101700D02*
D03*
X40157Y246555D02*
D03*
Y293012D02*
D03*
X100394Y242224D02*
D03*
X139764D02*
D03*
X80709Y320965D02*
D03*
X159449D02*
D03*
D149*
X58268Y192618D02*
D03*
D150*
X59055Y358366D02*
D03*
X177165D02*
D03*
D151*
X93621Y13091D02*
D03*
X105431D02*
D03*
D152*
X56500Y140000D02*
D03*
X230340Y12200D02*
D03*
X127600Y124600D02*
D03*
Y128700D02*
D03*
Y120700D02*
D03*
X209300Y101700D02*
D03*
X220600Y189300D02*
D03*
X266100Y189700D02*
D03*
X250400Y179100D02*
D03*
X232640Y132000D02*
D03*
X265439Y47659D02*
D03*
X256639Y47459D02*
D03*
X247739Y47259D02*
D03*
X204800Y108400D02*
D03*
X209200Y90600D02*
D03*
X192100Y118700D02*
D03*
X185700D02*
D03*
X204700Y97100D02*
D03*
X216500Y189200D02*
D03*
X90000Y146900D02*
D03*
X83900D02*
D03*
X86800D02*
D03*
X64900Y202400D02*
D03*
X60600D02*
D03*
X56500D02*
D03*
X60400Y178000D02*
D03*
X80500Y146900D02*
D03*
X67800Y178000D02*
D03*
X63900D02*
D03*
X74000Y135100D02*
D03*
X256100Y146200D02*
D03*
D153*
X47900Y115200D02*
D03*
X203000Y138000D02*
D03*
X192000Y149100D02*
D03*
X52900Y115200D02*
D03*
X258497Y112303D02*
D03*
X209400Y26700D02*
D03*
X181600Y142200D02*
D03*
X169000Y184100D02*
D03*
Y180500D02*
D03*
X165700D02*
D03*
Y176500D02*
D03*
X169000D02*
D03*
X50000Y16000D02*
D03*
X43300Y15000D02*
D03*
Y19400D02*
D03*
X224400Y123100D02*
D03*
X201200Y81400D02*
D03*
X207000Y181800D02*
D03*
X316250Y46350D02*
D03*
X241800Y264300D02*
D03*
X269871Y164032D02*
D03*
X270041Y160500D02*
D03*
X201238Y76453D02*
D03*
X201000Y73000D02*
D03*
X208700Y97100D02*
D03*
X258000Y241100D02*
D03*
D154*
X334500Y26800D02*
D03*
X328200D02*
D03*
X322000D02*
D03*
X321800Y8560D02*
D03*
X198900Y142300D02*
D03*
X119300Y69600D02*
D03*
X282000Y250000D02*
D03*
X235931Y261431D02*
D03*
X89600Y138700D02*
D03*
X64900Y153800D02*
D03*
X72342Y166634D02*
D03*
X87605Y166869D02*
D03*
X96600Y192700D02*
D03*
X125000Y194100D02*
D03*
X132500Y194200D02*
D03*
X175400Y171000D02*
D03*
X171100Y121800D02*
D03*
X146400Y128100D02*
D03*
X181600Y99100D02*
D03*
X264700Y16000D02*
D03*
X264600Y25600D02*
D03*
X239000Y34100D02*
D03*
X237400Y88500D02*
D03*
X265900Y93000D02*
D03*
Y106300D02*
D03*
X199600Y133400D02*
D03*
X204700Y165800D02*
D03*
X221100Y152000D02*
D03*
X204700Y151500D02*
D03*
X257300Y182400D02*
D03*
X247000Y136900D02*
D03*
X279600Y204600D02*
D03*
X279000Y229000D02*
D03*
X177200Y181400D02*
D03*
X185200D02*
D03*
X211369Y197900D02*
D03*
X191600Y204000D02*
D03*
X216600Y223300D02*
D03*
Y231000D02*
D03*
X182400Y204000D02*
D03*
X200500Y231000D02*
D03*
X256700Y233700D02*
D03*
X256800Y231000D02*
D03*
X209400Y44352D02*
D03*
X66060Y30540D02*
D03*
X24372Y34139D02*
D03*
X24329Y28724D02*
D03*
Y23007D02*
D03*
X24311Y17210D02*
D03*
M02*
