G04*
G04 #@! TF.GenerationSoftware,Altium Limited,Altium Designer,26.3.0 (6)*
G04*
G04 Layer_Color=32896*
%FSLAX25Y25*%
%MOIN*%
G70*
G04*
G04 #@! TF.SameCoordinates,93A21E67-8BBF-49F2-ADDE-66DC4D57E892*
G04*
G04*
G04 #@! TF.FilePolarity,Positive*
G04*
G01*
G75*
%ADD10C,0.00787*%
%ADD12C,0.00984*%
%ADD13C,0.00394*%
%ADD16C,0.01000*%
%ADD17C,0.00591*%
G36*
X315181Y53700D02*
X312819Y56062D01*
Y51338D01*
X315181Y53700D01*
D02*
G37*
D10*
X330332Y81134D02*
G03*
X335900Y81134I2784J0D01*
G01*
X340202D01*
X326029D02*
X330332D01*
X326029Y46095D02*
Y81134D01*
Y46095D02*
X340202D01*
Y81134D01*
D12*
X302439Y47007D02*
X317005D01*
Y4487D02*
Y47007D01*
X302439Y4487D02*
X317005D01*
X302439D02*
Y47007D01*
D13*
X306988Y66531D02*
Y70468D01*
X318012D01*
Y66531D02*
Y70468D01*
X306988Y66531D02*
X318012D01*
X303832Y59612D02*
X307769D01*
Y48588D02*
Y59612D01*
X303832Y48588D02*
X307769D01*
X303832D02*
Y59612D01*
X315181Y51731D02*
Y55668D01*
X325938Y33116D02*
X330662D01*
X325938Y35084D02*
X330662D01*
X319438Y33116D02*
X324162D01*
X319438Y35084D02*
X324162D01*
X332438Y33116D02*
X337162D01*
X332438Y35084D02*
X337162D01*
X337012Y14631D02*
Y18568D01*
X325988Y14631D02*
X337012D01*
X325988D02*
Y18568D01*
X337012D01*
X319438Y20044D02*
X324162D01*
X319438Y18076D02*
X324162D01*
X337012Y20831D02*
Y24769D01*
X325988Y20831D02*
X337012D01*
X325988D02*
Y24769D01*
X337012D01*
X366438Y17116D02*
X371162D01*
X366438Y19084D02*
X371162D01*
X349431Y41238D02*
X353368D01*
X349431D02*
Y52262D01*
X353368D01*
Y41238D02*
Y52262D01*
X354532Y47488D02*
X358469D01*
X354532D02*
Y58512D01*
X358469D01*
Y47488D02*
Y58512D01*
X360531Y59488D02*
X364469D01*
X360531D02*
Y70512D01*
X364469D01*
Y59488D02*
Y70512D01*
X360531Y47488D02*
X364469D01*
X360531D02*
Y58512D01*
X364469D01*
Y47488D02*
Y58512D01*
X354532Y59488D02*
X358469D01*
X354532D02*
Y70512D01*
X358469D01*
Y59488D02*
Y70512D01*
X360531Y82512D02*
X364469D01*
Y71488D02*
Y82512D01*
X360531Y71488D02*
X364469D01*
X360531D02*
Y82512D01*
X354532Y71488D02*
X358469D01*
X354532D02*
Y82512D01*
X358469D01*
Y71488D02*
Y82512D01*
X349031Y71488D02*
X352969D01*
X349031D02*
Y82512D01*
X352969D01*
Y71488D02*
Y82512D01*
X354012Y6831D02*
Y10768D01*
X342988Y6831D02*
X354012D01*
X342988D02*
Y10768D01*
X354012D01*
X354338Y12588D02*
X359062D01*
Y23612D01*
X354338D02*
X359062D01*
X354338Y12588D02*
Y23612D01*
X359688Y41932D02*
Y45869D01*
X370712D01*
Y41932D02*
Y45869D01*
X359688Y41932D02*
X370712D01*
X366850Y57481D02*
X373150D01*
X366850Y55119D02*
X373150D01*
X366850Y75681D02*
X373150D01*
X366850Y73319D02*
X373150D01*
X345347Y36950D02*
X351253D01*
X345347Y30650D02*
X351253D01*
X360412Y24632D02*
Y28569D01*
X349388Y24632D02*
X360412D01*
X349388D02*
Y28569D01*
X360412D01*
X337284Y6138D02*
Y10862D01*
X335316Y6138D02*
Y10862D01*
X306988Y60632D02*
Y64569D01*
X318012D01*
Y60632D02*
Y64569D01*
X306988Y60632D02*
X318012D01*
X312531Y71588D02*
X316469D01*
X312531D02*
Y82612D01*
X316469D01*
Y71588D02*
Y82612D01*
X306532Y82462D02*
X310469D01*
Y71438D02*
Y82462D01*
X306532Y71438D02*
X310469D01*
X306532D02*
Y82462D01*
X325516Y82638D02*
Y87362D01*
X327484Y82638D02*
Y87362D01*
X325516Y89138D02*
Y93862D01*
X327484Y89138D02*
Y93862D01*
D16*
X388100Y122200D02*
G03*
X387100Y123200I-1000J0D01*
G01*
Y92600D02*
G03*
X388100Y93600I0J1000D01*
G01*
X371200Y123200D02*
G03*
X370200Y122200I0J-1000D01*
G01*
Y93600D02*
G03*
X371200Y92600I1000J0D01*
G01*
X388200Y24600D02*
G03*
X387200Y25600I-1000J0D01*
G01*
Y3400D02*
G03*
X388200Y4400I0J1000D01*
G01*
X374100Y25600D02*
G03*
X373100Y24600I0J-1000D01*
G01*
Y4400D02*
G03*
X374100Y3400I1000J0D01*
G01*
X319100Y114600D02*
G03*
X318100Y115600I-1000J0D01*
G01*
Y90100D02*
G03*
X319100Y91100I0J1000D01*
G01*
X303500Y115600D02*
G03*
X302500Y114600I0J-1000D01*
G01*
Y91100D02*
G03*
X303500Y90100I1000J0D01*
G01*
X320600Y84000D02*
G03*
X319600Y85000I-1000J0D01*
G01*
Y44300D02*
G03*
X320600Y45300I0J1000D01*
G01*
X303400Y85000D02*
G03*
X302400Y84000I0J-1000D01*
G01*
Y45300D02*
G03*
X303400Y44300I1000J0D01*
G01*
X338600Y39600D02*
G03*
X337600Y40600I-1000J0D01*
G01*
Y13200D02*
G03*
X338600Y14200I0J1000D01*
G01*
X319300Y40600D02*
G03*
X318300Y39600I0J-1000D01*
G01*
Y14200D02*
G03*
X319300Y13200I1000J0D01*
G01*
X371200Y92600D02*
X387100D01*
X371200Y123200D02*
X387100D01*
X388100Y93600D02*
Y122200D01*
X370200Y93600D02*
Y122200D01*
X374100Y3400D02*
X387200D01*
X374100Y25600D02*
X387200D01*
X388200Y4400D02*
Y24600D01*
X373100Y4400D02*
Y24600D01*
X303500Y90100D02*
X318100D01*
X303500Y115600D02*
X318100D01*
X319100Y91100D02*
Y114600D01*
X302500Y91100D02*
Y114600D01*
X303400Y44300D02*
X319600D01*
X303400Y85000D02*
X319600D01*
X320600Y45300D02*
Y84000D01*
X302400Y45300D02*
Y84000D01*
X319300Y13200D02*
X337600D01*
X319300Y40600D02*
X337600D01*
X338600Y14200D02*
Y39600D01*
X318300Y14200D02*
Y39600D01*
X356409Y86628D02*
Y108150D01*
Y86628D02*
X356498Y86539D01*
X347900D02*
X356418D01*
X347900Y84000D02*
Y86539D01*
X356498D02*
X365600D01*
X310750Y85000D02*
Y90100D01*
X310800D01*
X347900Y40400D02*
Y84000D01*
Y40400D02*
X355100D01*
Y46700D01*
X365600D01*
Y86539D01*
X325000Y1200D02*
Y13000D01*
Y1200D02*
X325100D01*
X325500D01*
X325700D01*
X325500D02*
X369900D01*
X373100Y4400D01*
X356409Y108150D02*
X356700D01*
X370200D01*
X317800Y117700D02*
Y121636D01*
X316488Y120324D01*
X315176Y121636D01*
Y117700D01*
X313864D02*
Y120324D01*
X312552Y121636D01*
X311240Y120324D01*
Y117700D01*
Y119668D01*
X313864D01*
X309928Y121636D02*
X308617D01*
X309273D01*
Y117700D01*
X309928D01*
X308617D01*
X306649D02*
Y121636D01*
X304025Y117700D01*
Y121636D01*
D17*
X331324Y44874D02*
Y42250D01*
X330799Y41726D01*
X329749D01*
X329225Y42250D01*
Y44874D01*
X328175Y42250D02*
X327650Y41726D01*
X326601D01*
X326076Y42250D01*
Y44350D01*
X326601Y44874D01*
X327650D01*
X328175Y44350D01*
Y43825D01*
X327650Y43300D01*
X326076D01*
X360024Y10674D02*
Y8050D01*
X359499Y7526D01*
X358450D01*
X357925Y8050D01*
Y10674D01*
X356875Y10149D02*
X356350Y10674D01*
X355301D01*
X354776Y10149D01*
Y9625D01*
X355301Y9100D01*
X354776Y8575D01*
Y8050D01*
X355301Y7526D01*
X356350D01*
X356875Y8050D01*
Y8575D01*
X356350Y9100D01*
X356875Y9625D01*
Y10149D01*
X356350Y9100D02*
X355301D01*
X364473Y32226D02*
Y35374D01*
X362899D01*
X362374Y34850D01*
Y33800D01*
X362899Y33275D01*
X364473D01*
X363424D02*
X362374Y32226D01*
X361325Y35374D02*
X359226D01*
X360275D01*
Y32226D01*
X358176D02*
X357127D01*
X357651D01*
Y35374D01*
X358176Y34850D01*
X317574Y113873D02*
X314426D01*
Y112299D01*
X314950Y111774D01*
X316000D01*
X316525Y112299D01*
Y113873D01*
Y112824D02*
X317574Y111774D01*
X314950Y110725D02*
X314426Y110200D01*
Y109151D01*
X314950Y108626D01*
X315475D01*
X316000Y109151D01*
Y109675D01*
Y109151D01*
X316525Y108626D01*
X317050D01*
X317574Y109151D01*
Y110200D01*
X317050Y110725D01*
X317574Y107576D02*
Y106527D01*
Y107051D01*
X314426D01*
X314950Y107576D01*
X307874Y101398D02*
X304726D01*
Y99824D01*
X305251Y99299D01*
X306300D01*
X306825Y99824D01*
Y101398D01*
Y100349D02*
X307874Y99299D01*
X305251Y98250D02*
X304726Y97725D01*
Y96675D01*
X305251Y96150D01*
X305775D01*
X306300Y96675D01*
Y97200D01*
Y96675D01*
X306825Y96150D01*
X307349D01*
X307874Y96675D01*
Y97725D01*
X307349Y98250D01*
X305251Y95101D02*
X304726Y94576D01*
Y93527D01*
X305251Y93002D01*
X307349D01*
X307874Y93527D01*
Y94576D01*
X307349Y95101D01*
X305251D01*
X317998Y96726D02*
Y99874D01*
X316424D01*
X315899Y99349D01*
Y98300D01*
X316424Y97775D01*
X317998D01*
X316949D02*
X315899Y96726D01*
X312751D02*
X314849D01*
X312751Y98825D01*
Y99349D01*
X313275Y99874D01*
X314325D01*
X314849Y99349D01*
X311701Y97250D02*
X311176Y96726D01*
X310127D01*
X309602Y97250D01*
Y99349D01*
X310127Y99874D01*
X311176D01*
X311701Y99349D01*
Y98825D01*
X311176Y98300D01*
X309602D01*
X317698Y101226D02*
Y104374D01*
X316124D01*
X315599Y103849D01*
Y102800D01*
X316124Y102275D01*
X317698D01*
X316649D02*
X315599Y101226D01*
X312451D02*
X314549D01*
X312451Y103325D01*
Y103849D01*
X312975Y104374D01*
X314025D01*
X314549Y103849D01*
X311401D02*
X310876Y104374D01*
X309827D01*
X309302Y103849D01*
Y103325D01*
X309827Y102800D01*
X309302Y102275D01*
Y101751D01*
X309827Y101226D01*
X310876D01*
X311401Y101751D01*
Y102275D01*
X310876Y102800D01*
X311401Y103325D01*
Y103849D01*
X310876Y102800D02*
X309827D01*
X387098Y10126D02*
Y13274D01*
X385524D01*
X384999Y12750D01*
Y11700D01*
X385524Y11175D01*
X387098D01*
X386049D02*
X384999Y10126D01*
X381851D02*
X383949D01*
X381851Y12225D01*
Y12750D01*
X382375Y13274D01*
X383425D01*
X383949Y12750D01*
X380801Y13274D02*
X378702D01*
Y12750D01*
X380801Y10650D01*
Y10126D01*
X387298Y5426D02*
Y8574D01*
X385724D01*
X385199Y8049D01*
Y7000D01*
X385724Y6475D01*
X387298D01*
X386249D02*
X385199Y5426D01*
X382050D02*
X384150D01*
X382050Y7525D01*
Y8049D01*
X382575Y8574D01*
X383625D01*
X384150Y8049D01*
X378902Y8574D02*
X379951Y8049D01*
X381001Y7000D01*
Y5951D01*
X380476Y5426D01*
X379427D01*
X378902Y5951D01*
Y6475D01*
X379427Y7000D01*
X381001D01*
X383326Y94002D02*
X386474D01*
Y95576D01*
X385949Y96101D01*
X384900D01*
X384375Y95576D01*
Y94002D01*
Y95051D02*
X383326Y96101D01*
Y99250D02*
Y97150D01*
X385425Y99250D01*
X385949D01*
X386474Y98725D01*
Y97675D01*
X385949Y97150D01*
X386474Y102398D02*
Y100299D01*
X384900D01*
X385425Y101349D01*
Y101873D01*
X384900Y102398D01*
X383851D01*
X383326Y101873D01*
Y100824D01*
X383851Y100299D01*
X373026Y113802D02*
X376174D01*
Y115376D01*
X375649Y115901D01*
X374600D01*
X374075Y115376D01*
Y113802D01*
Y114851D02*
X373026Y115901D01*
Y119050D02*
Y116951D01*
X375125Y119050D01*
X375649D01*
X376174Y118525D01*
Y117475D01*
X375649Y116951D01*
X373026Y121673D02*
X376174D01*
X374600Y120099D01*
Y122198D01*
X352698Y2726D02*
Y5874D01*
X351124D01*
X350599Y5350D01*
Y4300D01*
X351124Y3775D01*
X352698D01*
X351649D02*
X350599Y2726D01*
X347450D02*
X349550D01*
X347450Y4825D01*
Y5350D01*
X347975Y5874D01*
X349025D01*
X349550Y5350D01*
X346401D02*
X345876Y5874D01*
X344827D01*
X344302Y5350D01*
Y4825D01*
X344827Y4300D01*
X345351D01*
X344827D01*
X344302Y3775D01*
Y3250D01*
X344827Y2726D01*
X345876D01*
X346401Y3250D01*
X383726Y113702D02*
X386874D01*
Y115276D01*
X386350Y115801D01*
X385300D01*
X384775Y115276D01*
Y113702D01*
Y114751D02*
X383726Y115801D01*
Y118949D02*
Y116850D01*
X385825Y118949D01*
X386350D01*
X386874Y118425D01*
Y117375D01*
X386350Y116850D01*
X383726Y122098D02*
Y119999D01*
X385825Y122098D01*
X386350D01*
X386874Y121573D01*
Y120524D01*
X386350Y119999D01*
X368773Y37826D02*
Y40974D01*
X367199D01*
X366674Y40450D01*
Y39400D01*
X367199Y38875D01*
X368773D01*
X367724D02*
X366674Y37826D01*
X363526D02*
X365625D01*
X363526Y39925D01*
Y40450D01*
X364051Y40974D01*
X365100D01*
X365625Y40450D01*
X362476Y37826D02*
X361427D01*
X361951D01*
Y40974D01*
X362476Y40450D01*
X383626Y103902D02*
X386774D01*
Y105476D01*
X386249Y106001D01*
X385200D01*
X384675Y105476D01*
Y103902D01*
Y104951D02*
X383626Y106001D01*
Y109150D02*
Y107051D01*
X385725Y109150D01*
X386249D01*
X386774Y108625D01*
Y107575D01*
X386249Y107051D01*
Y110199D02*
X386774Y110724D01*
Y111773D01*
X386249Y112298D01*
X384151D01*
X383626Y111773D01*
Y110724D01*
X384151Y110199D01*
X386249D01*
X348236Y25326D02*
Y28474D01*
X346661D01*
X346137Y27950D01*
Y26900D01*
X346661Y26375D01*
X348236D01*
X347186D02*
X346137Y25326D01*
X345087D02*
X344038D01*
X344562D01*
Y28474D01*
X345087Y27950D01*
X342463Y25850D02*
X341938Y25326D01*
X340889D01*
X340364Y25850D01*
Y27950D01*
X340889Y28474D01*
X341938D01*
X342463Y27950D01*
Y27425D01*
X341938Y26900D01*
X340364D01*
X312025Y40274D02*
X313074D01*
X312549D01*
Y37650D01*
X313074Y37126D01*
X313599D01*
X314124Y37650D01*
X310975Y39750D02*
X310451Y40274D01*
X309401D01*
X308876Y39750D01*
Y39225D01*
X309401Y38700D01*
X308876Y38175D01*
Y37650D01*
X309401Y37126D01*
X310451D01*
X310975Y37650D01*
Y38175D01*
X310451Y38700D01*
X310975Y39225D01*
Y39750D01*
X310451Y38700D02*
X309401D01*
X317324Y95274D02*
Y92126D01*
X315750D01*
X315225Y92651D01*
Y94749D01*
X315750Y95274D01*
X317324D01*
X312076D02*
X313126Y94749D01*
X314175Y93700D01*
Y92651D01*
X313650Y92126D01*
X312601D01*
X312076Y92651D01*
Y93175D01*
X312601Y93700D01*
X314175D01*
X381750Y17401D02*
X382274Y16876D01*
Y15827D01*
X381750Y15302D01*
X379650D01*
X379126Y15827D01*
Y16876D01*
X379650Y17401D01*
X379126Y20025D02*
X382274D01*
X380700Y18451D01*
Y20549D01*
X382274Y23698D02*
Y21599D01*
X380700D01*
X381225Y22649D01*
Y23173D01*
X380700Y23698D01*
X379650D01*
X379126Y23173D01*
Y22124D01*
X379650Y21599D01*
X377250Y17801D02*
X377774Y17276D01*
Y16227D01*
X377250Y15702D01*
X375150D01*
X374626Y16227D01*
Y17276D01*
X375150Y17801D01*
X374626Y20425D02*
X377774D01*
X376200Y18850D01*
Y20949D01*
X374626Y23573D02*
X377774D01*
X376200Y21999D01*
Y24098D01*
X386350Y17301D02*
X386874Y16776D01*
Y15727D01*
X386350Y15202D01*
X384250D01*
X383726Y15727D01*
Y16776D01*
X384250Y17301D01*
X383726Y19925D02*
X386874D01*
X385300Y18350D01*
Y20449D01*
X386350Y21499D02*
X386874Y22024D01*
Y23073D01*
X386350Y23598D01*
X385825D01*
X385300Y23073D01*
Y22549D01*
Y23073D01*
X384775Y23598D01*
X384250D01*
X383726Y23073D01*
Y22024D01*
X384250Y21499D01*
X338899Y92750D02*
X339424Y93274D01*
X340473D01*
X340998Y92750D01*
Y90650D01*
X340473Y90126D01*
X339424D01*
X338899Y90650D01*
X336275Y90126D02*
Y93274D01*
X337849Y91700D01*
X335751D01*
X332602Y90126D02*
X334701D01*
X332602Y92225D01*
Y92750D01*
X333127Y93274D01*
X334176D01*
X334701Y92750D01*
X337574Y86349D02*
X338099Y86874D01*
X339149D01*
X339673Y86349D01*
Y84250D01*
X339149Y83726D01*
X338099D01*
X337574Y84250D01*
X334950Y83726D02*
Y86874D01*
X336525Y85300D01*
X334426D01*
X333376Y83726D02*
X332327D01*
X332851D01*
Y86874D01*
X333376Y86349D01*
X309950Y112099D02*
X309426Y112624D01*
Y113673D01*
X309950Y114198D01*
X312050D01*
X312574Y113673D01*
Y112624D01*
X312050Y112099D01*
X312574Y109475D02*
X309426D01*
X311000Y111049D01*
Y108950D01*
X309950Y107901D02*
X309426Y107376D01*
Y106327D01*
X309950Y105802D01*
X312050D01*
X312574Y106327D01*
Y107376D01*
X312050Y107901D01*
X309950D01*
X377250Y7301D02*
X377774Y6776D01*
Y5727D01*
X377250Y5202D01*
X375150D01*
X374626Y5727D01*
Y6776D01*
X375150Y7301D01*
X377250Y8350D02*
X377774Y8875D01*
Y9925D01*
X377250Y10449D01*
X376725D01*
X376200Y9925D01*
Y9400D01*
Y9925D01*
X375675Y10449D01*
X375150D01*
X374626Y9925D01*
Y8875D01*
X375150Y8350D01*
Y11499D02*
X374626Y12024D01*
Y13073D01*
X375150Y13598D01*
X377250D01*
X377774Y13073D01*
Y12024D01*
X377250Y11499D01*
X376725D01*
X376200Y12024D01*
Y13598D01*
X380250Y96101D02*
X380774Y95576D01*
Y94527D01*
X380250Y94002D01*
X378151D01*
X377626Y94527D01*
Y95576D01*
X378151Y96101D01*
X380250Y97150D02*
X380774Y97675D01*
Y98725D01*
X380250Y99250D01*
X379725D01*
X379200Y98725D01*
Y98200D01*
Y98725D01*
X378675Y99250D01*
X378151D01*
X377626Y98725D01*
Y97675D01*
X378151Y97150D01*
X380250Y100299D02*
X380774Y100824D01*
Y101873D01*
X380250Y102398D01*
X379725D01*
X379200Y101873D01*
X378675Y102398D01*
X378151D01*
X377626Y101873D01*
Y100824D01*
X378151Y100299D01*
X378675D01*
X379200Y100824D01*
X379725Y100299D01*
X380250D01*
X379200Y100824D02*
Y101873D01*
X338399Y4950D02*
X338924Y5474D01*
X339973D01*
X340498Y4950D01*
Y2850D01*
X339973Y2326D01*
X338924D01*
X338399Y2850D01*
X337350Y4950D02*
X336825Y5474D01*
X335775D01*
X335250Y4950D01*
Y4425D01*
X335775Y3900D01*
X336300D01*
X335775D01*
X335250Y3375D01*
Y2850D01*
X335775Y2326D01*
X336825D01*
X337350Y2850D01*
X334201Y5474D02*
X332102D01*
Y4950D01*
X334201Y2850D01*
Y2326D01*
X380649Y115701D02*
X381174Y115176D01*
Y114127D01*
X380649Y113602D01*
X378551D01*
X378026Y114127D01*
Y115176D01*
X378551Y115701D01*
X380649Y116751D02*
X381174Y117275D01*
Y118325D01*
X380649Y118850D01*
X380125D01*
X379600Y118325D01*
Y117800D01*
Y118325D01*
X379075Y118850D01*
X378551D01*
X378026Y118325D01*
Y117275D01*
X378551Y116751D01*
X381174Y121998D02*
X380649Y120949D01*
X379600Y119899D01*
X378551D01*
X378026Y120424D01*
Y121473D01*
X378551Y121998D01*
X379075D01*
X379600Y121473D01*
Y119899D01*
X369849Y26701D02*
X370374Y26176D01*
Y25127D01*
X369849Y24602D01*
X367751D01*
X367226Y25127D01*
Y26176D01*
X367751Y26701D01*
X369849Y27751D02*
X370374Y28275D01*
Y29325D01*
X369849Y29849D01*
X369325D01*
X368800Y29325D01*
Y28800D01*
Y29325D01*
X368275Y29849D01*
X367751D01*
X367226Y29325D01*
Y28275D01*
X367751Y27751D01*
X370374Y32998D02*
Y30899D01*
X368800D01*
X369325Y31949D01*
Y32473D01*
X368800Y32998D01*
X367751D01*
X367226Y32473D01*
Y31424D01*
X367751Y30899D01*
X374749Y96501D02*
X375274Y95976D01*
Y94927D01*
X374749Y94402D01*
X372651D01*
X372126Y94927D01*
Y95976D01*
X372651Y96501D01*
X374749Y97550D02*
X375274Y98075D01*
Y99125D01*
X374749Y99650D01*
X374225D01*
X373700Y99125D01*
Y98600D01*
Y99125D01*
X373175Y99650D01*
X372651D01*
X372126Y99125D01*
Y98075D01*
X372651Y97550D01*
X372126Y102273D02*
X375274D01*
X373700Y100699D01*
Y102798D01*
X380349Y106001D02*
X380874Y105476D01*
Y104427D01*
X380349Y103902D01*
X378251D01*
X377726Y104427D01*
Y105476D01*
X378251Y106001D01*
X380349Y107051D02*
X380874Y107575D01*
Y108625D01*
X380349Y109150D01*
X379825D01*
X379300Y108625D01*
Y108100D01*
Y108625D01*
X378775Y109150D01*
X378251D01*
X377726Y108625D01*
Y107575D01*
X378251Y107051D01*
X380349Y110199D02*
X380874Y110724D01*
Y111773D01*
X380349Y112298D01*
X379825D01*
X379300Y111773D01*
Y111249D01*
Y111773D01*
X378775Y112298D01*
X378251D01*
X377726Y111773D01*
Y110724D01*
X378251Y110199D01*
X378649Y72601D02*
X379174Y72076D01*
Y71027D01*
X378649Y70502D01*
X376551D01*
X376026Y71027D01*
Y72076D01*
X376551Y72601D01*
X378649Y73650D02*
X379174Y74175D01*
Y75225D01*
X378649Y75749D01*
X378125D01*
X377600Y75225D01*
Y74700D01*
Y75225D01*
X377075Y75749D01*
X376551D01*
X376026Y75225D01*
Y74175D01*
X376551Y73650D01*
X376026Y78898D02*
Y76799D01*
X378125Y78898D01*
X378649D01*
X379174Y78373D01*
Y77324D01*
X378649Y76799D01*
X377649Y55526D02*
X378174Y55001D01*
Y53951D01*
X377649Y53427D01*
X375551D01*
X375026Y53951D01*
Y55001D01*
X375551Y55526D01*
X377649Y56575D02*
X378174Y57100D01*
Y58149D01*
X377649Y58674D01*
X377125D01*
X376600Y58149D01*
Y57625D01*
Y58149D01*
X376075Y58674D01*
X375551D01*
X375026Y58149D01*
Y57100D01*
X375551Y56575D01*
X375026Y59724D02*
Y60773D01*
Y60249D01*
X378174D01*
X377649Y59724D01*
M02*
