M48
;Layer_Color=9474304
;FILE_FORMAT=2:5
INCH,LZ
;TYPE=PLATED
T01F00S00C0.00787
T02F00S00C0.01000
T03F00S00C0.01378
T04F00S00C0.01968
T05F00S00C0.03150
T06F00S00C0.03425
T07F00S00C0.03543
T08F00S00C0.03937
T10F00S00C0.04331
T12F00S00C0.05118
T13F00S00C0.06890
;TYPE=NON_PLATED
T14F00S00C0.08268
%
T01
X0058829Y0062165
X0066053
Y006939
X0062441Y0065777
Y0073002
X0066053Y0076614
X0069665Y0073002
Y0065777
X0058829Y006939
Y0076614
X0055216Y0073002
Y0065777
T02
X0024311Y001721
X0024329Y0023007
Y0028724
X0024372Y0034139
X00433Y00194
Y0015
X005Y0016
X006606Y003054
X02094Y00267
X0239Y00341
X02646Y00256
X02647Y0016
X03218Y000856
X0322Y00268
X03282
X03345
X031625Y004635
X02659Y0093
Y01063
X0258497Y0112303
X0247Y01369
X02244Y01231
X02211Y0152
X0270041Y01605
X0269871Y0164032
X02573Y01824
X02374Y00885
X02087Y00971
X02012Y00814
X0201238Y0076453
X0201Y0073
X02094Y0044352
X01816Y00991
X01711Y01218
X01816Y01422
X0192Y01491
X01989Y01423
X0203Y0138
X01996Y01334
X02047Y01515
Y01658
X0207Y01818
X0211369Y01979
X01852Y01814
X01772
X0169Y01805
X01657
Y01765
X0169
Y01841
X01754Y0171
X01325Y01942
X0125Y01941
X00966Y01927
X0087605Y0166869
X0072342Y0166634
X00649Y01538
X00896Y01387
X01464Y01281
X01193Y00696
X00529Y01152
X00479
X01824Y0204
X01916
X02005Y0231
X02166
Y02233
X02568Y0231
X02567Y02337
X0258Y02411
X0282Y025
X0279Y0229
X02796Y02046
X02418Y02643
X0235931Y0261431
T03
X023034Y00122
X0247739Y0047259
X0256639Y0047459
X0265439Y0047659
X02561Y01462
X023264Y0132
X02504Y01791
X02661Y01897
X02206Y01893
X02165Y01892
X02048Y01084
X02093Y01017
X02047Y00971
X02092Y00906
X01921Y01187
X01857
X01276Y01207
Y01246
Y01287
X009Y01469
X00868
X00839
X00805
X0074Y01351
X00565Y014
X00604Y0178
X00639
X00678
X00649Y02024
X00606
X00565
T04
X0331913Y0098587
X0346087
Y0084413
T05
X0027693Y0123926
X0016402Y0140051
T06
X0279Y0010878
Y0016783
Y0022689
Y0028594
Y00345
Y0040405
X03111Y0040511
Y0034606
Y00287
Y0022794
Y0016889
Y0010983
T07
X0093621Y0013091
X0105431
T08
X0135081Y0087781
X0149Y01017
X0040157Y0246555
X0020472
Y0293012
X0040157
X0080709Y0320965
X0159449
X0139764Y0242224
X0100394
T10
X0059055Y0358366
X0177165
T12
X02005Y027
Y031
Y034
X02305Y033
X0253Y03395
Y03095
Y02695
X02305Y027
X0283Y02695
Y03295
T13
X0026Y03385
X02285Y03565
X0261
X0281
X02085
X0026Y03585
T14
X0151969Y0013878
X0015748Y0188287
M30
